<svg width="24" height="26" viewBox="0 0 24 26" fill="none" xmlns="http://www.w3.org/2000/svg">
<path d="M17 10.9776H19C21 10.9776 22 9.96635 22 7.94388V5.9214C22 3.89893 21 2.8877 19 2.8877H17C15 2.8877 14 3.89893 14 5.9214V7.94388C14 9.96635 15 10.9776 17 10.9776Z" fill="#FB5E04"/>
<path d="M5 23.1124H7C9 23.1124 10 22.1011 10 20.0786V18.0562C10 16.0337 9 15.0225 7 15.0225H5C3 15.0225 2 16.0337 2 18.0562V20.0786C2 22.1011 3 23.1124 5 23.1124Z" fill="#FB5E04"/>
<path d="M6 10.9776C8.20914 10.9776 10 9.1666 10 6.93264C10 4.69868 8.20914 2.8877 6 2.8877C3.79086 2.8877 2 4.69868 2 6.93264C2 9.1666 3.79086 10.9776 6 10.9776Z" fill="#FB5E04"/>
<path d="M18 23.1124C20.2091 23.1124 22 21.3014 22 19.0674C22 16.8334 20.2091 15.0225 18 15.0225C15.7909 15.0225 14 16.8334 14 19.0674C14 21.3014 15.7909 23.1124 18 23.1124Z" fill="#FB5E04"/>
</svg>
