<svg width="24" height="26" viewBox="0 0 24 26" fill="none" xmlns="http://www.w3.org/2000/svg">
<path d="M20.83 8.96524L14.28 3.66637C13 2.6349 11 2.62479 9.72996 3.65625L3.17996 8.96524C2.23996 9.72367 1.66996 11.2405 1.86996 12.4338L3.12996 20.0585C3.41996 21.7675 4.98996 23.1124 6.69996 23.1124H17.3C18.99 23.1124 20.59 21.7372 20.88 20.0484L22.14 12.4237C22.32 11.2405 21.75 9.72367 20.83 8.96524ZM12.75 19.0675C12.75 19.4821 12.41 19.8259 12 19.8259C11.59 19.8259 11.25 19.4821 11.25 19.0675V16.0338C11.25 15.6192 11.59 15.2754 12 15.2754C12.41 15.2754 12.75 15.6192 12.75 16.0338V19.0675Z" fill="#FB5E04"/>
</svg>
