<svg width="16" height="22" viewBox="0 0 16 22" fill="none" xmlns="http://www.w3.org/2000/svg">
<path fill-rule="evenodd" clip-rule="evenodd" d="M13.935 7.16471C13.6945 4.95041 11.7699 4.227 9.34878 4.04014L9.31133 0.965729L7.43759 0.985159L7.47421 3.97858C6.98158 3.98359 6.47825 3.99848 5.97806 4.01356L5.94167 1.00026L4.06903 1.0194L4.10584 4.09297C3.70036 4.10542 3.30197 4.11711 2.91357 4.12127L2.91323 4.11166L0.328961 4.13714L0.353798 6.13588C0.353798 6.13588 1.73712 6.09545 1.71446 6.121C2.47329 6.11342 2.72574 6.55104 2.80237 6.93002L2.84513 10.4325C2.89744 10.4322 2.96578 10.4336 3.04338 10.4436L2.98893 10.4441L2.98885 10.4441C2.94263 10.4445 2.89459 10.445 2.84541 10.4459L2.90465 15.3525C2.87437 15.5914 2.73861 15.9733 2.20832 15.9796C2.23265 16.0005 0.846337 15.9932 0.846337 15.9932L0.501173 18.232L2.9396 18.207C3.2067 18.2046 3.4713 18.2047 3.7332 18.2049C3.91627 18.2049 4.09803 18.205 4.27842 18.2042L4.31712 21.3137L6.18882 21.2948L6.1512 18.2182C6.6653 18.2236 7.16257 18.2225 7.64823 18.2172L7.6847 21.2795L9.55852 21.2601L9.52118 18.1561C12.6692 17.9434 14.8642 17.1284 15.1019 14.1709C15.294 11.7896 14.1606 10.7396 12.3673 10.329C13.447 9.76535 14.1144 8.78498 13.9357 7.16478L13.935 7.16453L13.935 7.16471ZM11.3957 13.8223C11.4223 15.9594 8.07424 15.9467 6.5424 15.9408L6.54235 15.9408C6.40457 15.9403 6.28149 15.9398 6.17688 15.941L6.12769 11.8111C6.25521 11.8099 6.41008 11.8046 6.58552 11.7987L6.58563 11.7987C8.15471 11.7457 11.3695 11.6371 11.3957 13.8223L11.3957 13.8223ZM6.38261 9.95495C7.66081 9.96304 10.4492 9.98069 10.4263 8.03871L10.4264 8.03867C10.4022 6.0527 7.72253 6.15106 6.41378 6.1991C6.26655 6.20451 6.13667 6.20927 6.02987 6.21036L6.07491 9.95446C6.16285 9.95356 6.2665 9.95422 6.38261 9.95495Z" fill="#FB5E04"/>
</svg>
