<svg width="29" height="28" viewBox="0 0 29 28" fill="none" xmlns="http://www.w3.org/2000/svg">
<path d="M28.0783 17.3869C26.2084 24.887 18.6117 29.451 11.1107 27.5811C3.61328 25.7113 -0.951155 18.1145 0.919158 10.6149C2.78816 3.11395 10.3845 -1.45093 17.8832 0.418948C25.3837 2.28882 29.9477 9.88645 28.0778 17.3869H28.0783Z" fill="#F7931A"/>
<path fill-rule="evenodd" clip-rule="evenodd" d="M18.7164 12.3736C18.9052 11.1099 17.943 10.4305 16.6273 9.97733L17.0541 8.26542L16.0117 8.00573L15.5962 9.67252C15.3226 9.60426 15.0412 9.53985 14.7616 9.47604L15.1801 7.79827L14.1387 7.53857L13.7116 9.24989C13.4848 9.19824 13.2622 9.1472 13.0462 9.09348L13.0473 9.08813L11.6103 8.72931L11.3331 9.84229C11.3331 9.84229 12.1062 10.0195 12.0899 10.0305C12.5119 10.1358 12.5885 10.4151 12.5754 10.6365L12.0893 12.5867C12.1184 12.5942 12.1561 12.6048 12.1976 12.6215L12.0878 12.5942L11.4061 15.3261C11.3544 15.4544 11.2235 15.6467 10.9285 15.5737C10.9389 15.5888 10.1711 15.3846 10.1711 15.3846L9.65381 16.5777L11.0102 16.9158C11.1633 16.9541 11.3145 16.9936 11.4641 17.0326L11.4644 17.0327C11.5612 17.058 11.6573 17.083 11.7527 17.1075L11.3215 18.8393L12.3623 19.099L12.7897 17.3859C13.0738 17.4631 13.3498 17.5343 13.6199 17.6014L13.1943 19.3064L14.2363 19.5661L14.6675 17.8379C16.4444 18.1742 17.7809 18.0385 18.3427 16.4317C18.7959 15.1377 18.3205 14.3912 17.3856 13.9042C18.0664 13.7466 18.5793 13.2987 18.7161 12.3736H18.7164ZM16.3352 15.7123C16.0394 16.8999 14.18 16.4085 13.33 16.1839L13.33 16.1839C13.2539 16.1638 13.1858 16.1458 13.1278 16.1313L13.7 13.8374C13.771 13.8551 13.8577 13.8746 13.956 13.8967C14.8353 14.094 16.6375 14.4984 16.3355 15.7123H16.3352ZM14.1327 12.8322C14.842 13.0214 16.3879 13.4338 16.6572 12.3549C16.9326 11.2512 15.4293 10.9185 14.6951 10.756C14.6126 10.7378 14.5397 10.7217 14.4803 10.7068L13.9615 12.7874C14.0106 12.7996 14.0682 12.815 14.1327 12.8322Z" fill="white"/>
</svg>
