<svg width="33" height="34" viewBox="0 0 33 34" fill="none" xmlns="http://www.w3.org/2000/svg">
<path d="M32.5063 20.9914C30.3024 29.8308 21.3485 35.2103 12.5071 33.006C3.66937 30.8023 -1.7107 21.8489 0.494207 13.0103C2.69718 4.16991 11.651 -1.20996 20.4897 0.993736C29.3305 3.19743 34.7103 12.1518 32.5061 20.9916L32.5062 20.9914H32.5063Z" fill="#F7931A"/>
<path fill-rule="evenodd" clip-rule="evenodd" d="M23.7765 14.649C24.1049 12.4532 22.433 11.2729 20.1468 10.4855L20.8885 7.51108L19.0776 7.05992L18.3557 9.956C17.8796 9.83728 17.3907 9.72541 16.9048 9.61452L17.6321 6.69933L15.8224 6.24817L15.0803 9.22159C14.6864 9.13191 14.2995 9.04327 13.9241 8.94988L13.9262 8.94052L11.429 8.31702L10.9473 10.2509C10.9473 10.2509 12.2908 10.5588 12.2625 10.5777C12.9958 10.7607 13.1284 11.2461 13.1063 11.6308L12.2615 15.0193C12.312 15.0321 12.3775 15.0507 12.4498 15.0797L12.3972 15.0666C12.3525 15.0554 12.3061 15.0438 12.2584 15.0324L11.0742 19.7792C10.9846 20.002 10.7571 20.3363 10.2445 20.2093C10.2626 20.2356 8.92833 19.8809 8.92833 19.8809L8.0293 21.9535L10.3858 22.5409C10.6437 22.6055 10.8986 22.672 11.1509 22.7377L11.1512 22.7378L11.1519 22.738C11.3281 22.7839 11.503 22.8295 11.6768 22.8739L10.9275 25.8825L12.7362 26.3336L13.4783 23.357C13.9724 23.4912 14.4519 23.6149 14.9213 23.7315L14.1818 26.694L15.9927 27.1452L16.7419 24.1423C19.8297 24.7267 22.1515 24.4911 23.1288 21.6985C23.9163 19.4501 23.0896 18.1532 21.4651 17.3075C22.6483 17.0347 23.5395 16.2566 23.7771 14.6492L23.7766 14.6488L23.7765 14.649ZM19.6392 20.45C19.1258 22.5128 15.8965 21.66 14.419 21.2698C14.2861 21.2347 14.1674 21.2033 14.0661 21.1782L15.0605 17.1924C15.1839 17.2233 15.3348 17.2571 15.5057 17.2955L15.5057 17.2955C17.034 17.6384 20.1652 18.341 19.6393 20.45H19.6392ZM15.8123 15.4456C17.0441 15.7743 19.7312 16.4913 20.1992 14.6165H20.1994C20.6772 12.699 18.0658 12.1209 16.7903 11.8385C16.6469 11.8068 16.5203 11.7788 16.4169 11.753L15.5154 15.3678C15.6005 15.389 15.7004 15.4157 15.8123 15.4456Z" fill="white"/>
</svg>
