<svg width="357" height="119" viewBox="0 0 357 119" fill="none" xmlns="http://www.w3.org/2000/svg">
<g opacity="0.5">
<g filter="url(#filter0_d_2_2361)">
<rect x="20" width="317" height="72" rx="10" fill="white"/>
</g>
<g clip-path="url(#clip0_2_2361)">
<path d="M76.367 41.08C73.5623 52.3301 62.1678 59.1767 50.9163 56.3713C39.6696 53.5666 32.823 42.1713 35.6289 30.9221C38.4324 19.6708 49.8269 12.8237 61.0749 15.6284C72.3255 18.4331 79.1717 29.8296 76.3667 41.0802L76.3669 41.08H76.367Z" fill="#F7931A"/>
<path d="M65.273 32.9876C65.691 30.1929 63.5633 28.6907 60.6539 27.6886L61.5977 23.903L59.2933 23.3288L58.3746 27.0147C57.7687 26.8636 57.1466 26.7212 56.5283 26.5801L57.4537 22.8699L55.1508 22.2957L54.2064 26.08C53.7051 25.9659 53.2127 25.8531 52.735 25.7342L52.7376 25.7223L49.5598 24.9287L48.9468 27.39C48.9468 27.39 50.6565 27.7819 50.6205 27.806C51.5536 28.0389 51.7224 28.6566 51.6944 29.1463L50.6192 33.4589C50.6835 33.4752 50.7668 33.4989 50.8588 33.5358C50.7819 33.5167 50.7001 33.4959 50.6152 33.4756L49.1083 39.517C48.9942 39.8005 48.7048 40.226 48.0524 40.0644C48.0755 40.0979 46.3775 39.6464 46.3775 39.6464L45.2334 42.2842L48.2322 43.0318C48.7901 43.1717 49.3368 43.3181 49.8752 43.4557L48.9216 47.2847L51.2233 47.8589L52.1677 44.0706C52.7965 44.2413 53.4067 44.3987 54.0041 44.5472L53.0629 48.3177L55.3674 48.8919L56.3209 45.07C60.2504 45.8137 63.2051 45.5139 64.4487 41.9597C65.4509 39.0981 64.3989 37.4475 62.3316 36.3712C63.8373 36.0239 64.9714 35.0336 65.2738 32.9879L65.2731 32.9874L65.273 32.9876ZM60.008 40.3705C59.2958 43.2321 54.4778 41.6852 52.9157 41.2973L54.1812 36.2245C55.7431 36.6145 60.7523 37.3862 60.0081 40.3705H60.008ZM60.7206 32.9461C60.071 35.549 56.0609 34.2266 54.7601 33.9024L55.9074 29.3017C57.2082 29.6259 61.3974 30.2311 60.7208 32.9461H60.7206Z" fill="white"/>
</g>
<path d="M94.3193 23.0059H97.2861C98.6624 23.0059 99.6559 23.2064 100.267 23.6074C100.882 24.0085 101.189 24.6419 101.189 25.5078C101.189 26.0911 101.039 26.5765 100.738 26.9639C100.438 27.3512 100.005 27.5951 99.4395 27.6953V27.7637C100.141 27.8958 100.656 28.1579 100.984 28.5498C101.317 28.9372 101.483 29.4635 101.483 30.1289C101.483 31.0267 101.169 31.7308 100.54 32.2412C99.9157 32.7471 99.0452 33 97.9287 33H94.3193V23.0059ZM95.9531 27.1348H97.5254C98.209 27.1348 98.708 27.0277 99.0225 26.8135C99.3369 26.5947 99.4941 26.2256 99.4941 25.7061C99.4941 25.2367 99.3232 24.8971 98.9814 24.6875C98.6442 24.4779 98.1064 24.373 97.3682 24.373H95.9531V27.1348ZM95.9531 28.4609V31.626H97.6895C98.373 31.626 98.888 31.4961 99.2344 31.2363C99.5853 30.972 99.7607 30.5573 99.7607 29.9922C99.7607 29.4727 99.583 29.0876 99.2275 28.8369C98.8721 28.5863 98.332 28.4609 97.6074 28.4609H95.9531ZM107.014 33H105.38V24.4072H102.44V23.0059H109.953V24.4072H107.014V33ZM115.743 24.2637C114.804 24.2637 114.066 24.5964 113.528 25.2617C112.991 25.9271 112.722 26.8454 112.722 28.0166C112.722 29.2425 112.979 30.1699 113.494 30.7988C114.014 31.4277 114.763 31.7422 115.743 31.7422C116.167 31.7422 116.577 31.7012 116.974 31.6191C117.37 31.5326 117.783 31.4232 118.211 31.291V32.6924C117.427 32.9886 116.538 33.1367 115.545 33.1367C114.082 33.1367 112.959 32.6947 112.175 31.8105C111.391 30.9219 110.999 29.6527 110.999 28.0029C110.999 26.9639 111.188 26.0547 111.566 25.2754C111.949 24.4961 112.501 23.8991 113.221 23.4844C113.941 23.0697 114.786 22.8623 115.757 22.8623C116.778 22.8623 117.721 23.0765 118.587 23.5049L117.999 24.8652C117.662 24.7057 117.304 24.5667 116.926 24.4482C116.552 24.3252 116.158 24.2637 115.743 24.2637Z" fill="#1A2B41"/>
<rect x="93" y="45" width="60" height="8" rx="4" fill="url(#paint0_linear_2_2361)"/>
<path d="M271.375 33V29.402H270.283V28.506H271.375V27.358H270.283V26.462H271.375V23.004H272.831L274.161 26.462H275.813V23.004H276.919V26.462H278.011V27.358H276.919V28.506H278.011V29.402H276.919V33H275.449L274.119 29.402H272.467V33H271.375ZM272.439 26.462H273.027L272.439 24.726H272.383L272.439 26.462ZM272.467 28.506H273.783L273.363 27.358H272.439L272.467 28.506ZM274.903 28.506H275.841L275.813 27.358H274.483L274.903 28.506ZM275.813 31.026H275.869L275.827 29.402H275.239L275.813 31.026ZM283.486 33H281.88V26.5469C281.88 25.7767 281.898 25.166 281.935 24.7148C281.83 24.8242 281.7 24.945 281.545 25.0771C281.395 25.2093 280.884 25.6286 280.014 26.335L279.207 25.3164L282.146 23.0059H283.486V33ZM286.795 28.7412C286.795 24.8311 288.388 22.876 291.573 22.876C292.075 22.876 292.498 22.9147 292.845 22.9922V24.332C292.498 24.2318 292.097 24.1816 291.642 24.1816C290.571 24.1816 289.766 24.4688 289.229 25.043C288.691 25.6172 288.399 26.5378 288.354 27.8047H288.436C288.65 27.4355 288.951 27.1507 289.338 26.9502C289.725 26.7451 290.181 26.6426 290.705 26.6426C291.612 26.6426 292.318 26.9206 292.824 27.4766C293.33 28.0326 293.583 28.7868 293.583 29.7393C293.583 30.7874 293.289 31.6169 292.701 32.2275C292.118 32.8337 291.32 33.1367 290.309 33.1367C289.593 33.1367 288.971 32.9658 288.442 32.624C287.914 32.2777 287.506 31.7764 287.219 31.1201C286.936 30.4593 286.795 29.6663 286.795 28.7412ZM290.281 31.8105C290.833 31.8105 291.257 31.6328 291.553 31.2773C291.854 30.9219 292.004 30.4137 292.004 29.7529C292.004 29.1787 291.863 28.7275 291.58 28.3994C291.302 28.0713 290.883 27.9072 290.322 27.9072C289.976 27.9072 289.657 27.9824 289.365 28.1328C289.074 28.2786 288.843 28.4814 288.675 28.7412C288.506 28.9964 288.422 29.2585 288.422 29.5273C288.422 30.1699 288.595 30.7122 288.941 31.1543C289.292 31.5918 289.739 31.8105 290.281 31.8105ZM295.06 32.1455C295.06 31.8128 295.146 31.5576 295.319 31.3799C295.493 31.2021 295.743 31.1133 296.071 31.1133C296.404 31.1133 296.657 31.2067 296.83 31.3936C297.003 31.5758 297.09 31.8265 297.09 32.1455C297.09 32.4691 297.001 32.7266 296.823 32.918C296.65 33.1048 296.399 33.1982 296.071 33.1982C295.743 33.1982 295.493 33.1048 295.319 32.918C295.146 32.7311 295.06 32.4736 295.06 32.1455ZM305.382 27.2715C305.382 29.2402 304.985 30.71 304.192 31.6807C303.399 32.6514 302.205 33.1367 300.61 33.1367C300.004 33.1367 299.569 33.1003 299.305 33.0273V31.6807C299.71 31.7946 300.118 31.8516 300.528 31.8516C301.613 31.8516 302.422 31.5599 302.955 30.9766C303.488 30.3932 303.78 29.4772 303.83 28.2285H303.748C303.479 28.6387 303.153 28.9349 302.771 29.1172C302.392 29.2995 301.948 29.3906 301.438 29.3906C300.553 29.3906 299.858 29.1149 299.353 28.5635C298.847 28.012 298.594 27.2555 298.594 26.2939C298.594 25.2503 298.885 24.4209 299.469 23.8057C300.057 23.1859 300.856 22.876 301.868 22.876C302.579 22.876 303.199 23.0492 303.728 23.3955C304.256 23.7419 304.664 24.2454 304.951 24.9062C305.238 25.5625 305.382 26.3509 305.382 27.2715ZM301.896 24.209C301.34 24.209 300.913 24.3913 300.617 24.7559C300.321 25.1159 300.173 25.624 300.173 26.2803C300.173 26.8499 300.31 27.2988 300.583 27.627C300.861 27.9505 301.28 28.1123 301.841 28.1123C302.383 28.1123 302.839 27.9505 303.208 27.627C303.577 27.3034 303.762 26.9251 303.762 26.4922C303.762 26.0866 303.682 25.7083 303.522 25.3574C303.368 25.002 303.149 24.7217 302.866 24.5166C302.584 24.3115 302.26 24.209 301.896 24.209ZM309.996 22.876C310.944 22.876 311.694 23.0947 312.245 23.5322C312.797 23.9652 313.072 24.5462 313.072 25.2754C313.072 26.3008 312.457 27.1165 311.227 27.7227C312.01 28.1146 312.566 28.527 312.895 28.96C313.227 29.3929 313.394 29.876 313.394 30.4092C313.394 31.234 313.09 31.8949 312.484 32.3916C311.878 32.8883 311.058 33.1367 310.023 33.1367C308.939 33.1367 308.098 32.9043 307.501 32.4395C306.904 31.9746 306.605 31.3161 306.605 30.4639C306.605 29.9079 306.76 29.4089 307.07 28.9668C307.385 28.5202 307.897 28.1237 308.608 27.7773C307.998 27.4128 307.562 27.0277 307.303 26.6221C307.043 26.2165 306.913 25.7607 306.913 25.2549C306.913 24.5303 307.198 23.9538 307.768 23.5254C308.337 23.0924 309.08 22.876 309.996 22.876ZM308.144 30.4092C308.144 30.8831 308.31 31.2523 308.643 31.5166C308.975 31.7764 309.426 31.9062 309.996 31.9062C310.584 31.9062 311.04 31.7718 311.363 31.5029C311.691 31.2295 311.855 30.8604 311.855 30.3955C311.855 30.0264 311.705 29.6891 311.404 29.3838C311.104 29.0785 310.648 28.7959 310.037 28.5361L309.839 28.4473C309.237 28.7116 308.804 29.0033 308.54 29.3223C308.276 29.6367 308.144 29.999 308.144 30.4092ZM309.982 24.1133C309.527 24.1133 309.16 24.2272 308.882 24.4551C308.604 24.6784 308.465 24.9837 308.465 25.3711C308.465 25.6081 308.515 25.82 308.615 26.0068C308.715 26.1937 308.861 26.3646 309.053 26.5195C309.244 26.6699 309.568 26.8522 310.023 27.0664C310.57 26.8249 310.955 26.5719 311.179 26.3076C311.407 26.0387 311.521 25.7266 311.521 25.3711C311.521 24.9837 311.379 24.6784 311.097 24.4551C310.819 24.2272 310.447 24.1133 309.982 24.1133ZM315.752 33L319.703 24.4346H314.508V23.0195H321.419V24.1406L317.488 33H315.752Z" fill="#1A2B41"/>
<rect x="262" y="45" width="60" height="8" rx="4" fill="url(#paint1_linear_2_2361)"/>
</g>
<defs>
<filter id="filter0_d_2_2361" x="0" y="0" width="357" height="119" filterUnits="userSpaceOnUse" color-interpolation-filters="sRGB">
<feFlood flood-opacity="0" result="BackgroundImageFix"/>
<feColorMatrix in="SourceAlpha" type="matrix" values="0 0 0 0 0 0 0 0 0 0 0 0 0 0 0 0 0 0 127 0" result="hardAlpha"/>
<feOffset dy="27"/>
<feGaussianBlur stdDeviation="10"/>
<feComposite in2="hardAlpha" operator="out"/>
<feColorMatrix type="matrix" values="0 0 0 0 0 0 0 0 0 0 0 0 0 0 0 0 0 0 0.02 0"/>
<feBlend mode="normal" in2="BackgroundImageFix" result="effect1_dropShadow_2_2361"/>
<feBlend mode="normal" in="SourceGraphic" in2="effect1_dropShadow_2_2361" result="shape"/>
</filter>
<linearGradient id="paint0_linear_2_2361" x1="93" y1="49" x2="153" y2="49" gradientUnits="userSpaceOnUse">
<stop stop-color="#011154"/>
<stop offset="1" stop-color="#011154" stop-opacity="0"/>
</linearGradient>
<linearGradient id="paint1_linear_2_2361" x1="322" y1="49" x2="256" y2="49" gradientUnits="userSpaceOnUse">
<stop stop-color="#30D299"/>
<stop offset="1" stop-color="#30D299" stop-opacity="0"/>
</linearGradient>
<clipPath id="clip0_2_2361">
<rect width="42" height="42" fill="white" transform="translate(35 15)"/>
</clipPath>
</defs>
</svg>
