<svg width="375" height="386" viewBox="0 0 375 386" fill="none" xmlns="http://www.w3.org/2000/svg">
<g filter="url(#filter0_f_2_2426)">
<ellipse cx="189.979" cy="339.985" rx="104.695" ry="12.849" fill="#1A2B41" fill-opacity="0.15"/>
</g>
<path d="M26.6856 218.679C31.1204 261.946 108.25 289.096 198.959 279.319C289.668 269.543 359.607 226.543 355.172 183.276" stroke="#FA620C" stroke-width="0.841107"/>
<path d="M62.94 310.796C34.8054 278.187 67.3751 201.513 135.686 139.54C203.998 77.5666 282.183 53.7621 310.317 86.3709" stroke="#FA620C" stroke-width="0.841107"/>
<mask id="mask0_2_2426" style="mask-type:alpha" maskUnits="userSpaceOnUse" x="55" y="123" width="262" height="178">
<rect x="72.9111" y="122.505" width="246.51" height="150.38" rx="10.8377" transform="rotate(7 72.9111 122.505)" fill="#011154"/>
</mask>
<g mask="url(#mask0_2_2426)">
<rect x="72.9111" y="122.505" width="246.51" height="150.38" rx="10.8377" transform="rotate(7 72.9111 122.505)" fill="url(#paint0_linear_2_2426)"/>
<path d="M245.809 308.886C236.595 387.831 89.4679 370.479 42.3922 306.46C9.48916 261.715 -12.4177 190.845 36.3837 164.338C74.4043 143.687 130.175 163.363 175.008 196.163C216.956 226.852 252.768 249.255 245.809 308.886Z" fill="#FF782B" fill-opacity="0.2"/>
</g>
<g clip-path="url(#clip0_2_2426)">
<path d="M280.843 173.169C277.456 172.753 274.217 174.12 273.822 177.332C273.37 181.015 278.706 181.929 278.479 183.779C278.383 184.558 277.396 185.145 275.856 184.956C273.671 184.688 272.157 183.513 272.157 183.513L271.06 186.668C271.06 186.668 272.841 187.722 275.339 188.029C279.041 188.484 282.178 187.018 282.58 183.751C283.057 179.858 277.698 178.95 277.909 177.232C277.984 176.622 278.806 176.044 280.342 176.233C282.074 176.445 283.4 177.328 283.4 177.328L284.469 174.281C284.469 174.281 283.011 173.435 280.843 173.169ZM249.831 169.601L249.691 170.064C249.691 170.064 251.084 170.497 252.304 171.169C253.884 171.963 253.959 172.321 254.106 173.424L255.717 185.372L259.781 185.872L267.863 171.815L263.808 171.317L258.547 180.903L257.954 172.157C257.924 171.161 257.23 170.509 256.296 170.395L249.831 169.601ZM269.494 172.015L264.493 186.45L268.36 186.925L273.35 172.489L269.494 172.015ZM291.062 174.663C290.129 174.549 289.574 174.983 289.106 175.802L281.787 188.573L285.842 189.071L286.902 186.923L291.843 187.53L292.044 189.833L295.622 190.272L294.321 175.064L291.062 174.663ZM291.097 178.734L291.616 184.444L288.396 184.049L291.097 178.734Z" fill="white"/>
</g>
<path d="M92.5268 152.304L91.6777 152.199L88.8399 146.399L88.8048 146.395C88.7741 147.031 88.7266 147.612 88.6621 148.137L88.2155 151.774L87.5283 151.69L88.314 145.291L89.1544 145.394L91.9861 151.171L92.0211 151.175C92.025 151.096 92.0428 150.842 92.0747 150.413C92.1069 149.982 92.1373 149.675 92.1657 149.491L92.6166 145.819L93.3125 145.905L92.5268 152.304ZM97.127 152.869L97.0664 152.168L97.0314 152.164C96.7552 152.435 96.4909 152.61 96.2383 152.688C95.9891 152.764 95.6864 152.781 95.3305 152.737C94.8548 152.678 94.4964 152.51 94.2551 152.232C94.0167 151.954 93.9253 151.588 93.9808 151.136C94.0998 150.167 94.9369 149.755 96.4921 149.898L97.3094 149.972L97.3459 149.674C97.3922 149.298 97.3445 149.011 97.2029 148.813C97.0647 148.612 96.8175 148.49 96.4615 148.446C96.0618 148.397 95.5944 148.464 95.0595 148.647L94.9046 148.064C95.1567 147.964 95.4273 147.895 95.7164 147.857C96.0084 147.819 96.2959 147.817 96.5789 147.852C97.1509 147.922 97.5584 148.101 97.8015 148.388C98.0475 148.676 98.1362 149.1 98.0674 149.661L97.6654 152.935L97.127 152.869ZM95.5485 152.155C96.0008 152.21 96.3706 152.13 96.6578 151.913C96.948 151.697 97.1205 151.366 97.1753 150.92L97.2285 150.486L96.4981 150.428C95.9179 150.377 95.4895 150.416 95.213 150.545C94.9398 150.672 94.7826 150.903 94.7414 151.238C94.7091 151.501 94.7634 151.71 94.9041 151.867C95.0477 152.024 95.2626 152.12 95.5485 152.155ZM105.281 153.87L105.665 150.749C105.711 150.367 105.665 150.071 105.525 149.861C105.385 149.648 105.143 149.521 104.799 149.479C104.346 149.423 103.996 149.512 103.748 149.745C103.501 149.978 103.344 150.365 103.277 150.905L102.948 153.583L102.222 153.494L102.605 150.373C102.652 149.991 102.605 149.695 102.465 149.485C102.325 149.273 102.082 149.145 101.735 149.102C101.28 149.047 100.929 149.143 100.682 149.391C100.438 149.636 100.279 150.07 100.202 150.691L99.8933 153.208L99.1667 153.119L99.7557 148.322L100.347 148.394L100.384 149.065L100.419 149.07C100.585 148.853 100.8 148.694 101.064 148.594C101.331 148.493 101.619 148.462 101.929 148.5C102.679 148.592 103.136 148.923 103.299 149.494L103.334 149.499C103.508 149.265 103.74 149.092 104.029 148.98C104.318 148.867 104.637 148.832 104.984 148.875C105.527 148.942 105.915 149.131 106.149 149.444C106.386 149.755 106.467 150.217 106.392 150.829L106.008 153.959L105.281 153.87ZM109.525 154.48C108.816 154.393 108.282 154.108 107.924 153.626C107.568 153.144 107.438 152.519 107.532 151.751C107.627 150.978 107.892 150.387 108.327 149.979C108.765 149.57 109.305 149.406 109.947 149.484C110.548 149.558 111 149.815 111.301 150.255C111.603 150.692 111.714 151.234 111.635 151.882L111.578 152.341L108.273 151.936C108.219 152.501 108.308 152.946 108.541 153.27C108.776 153.595 109.139 153.788 109.629 153.848C110.146 153.912 110.67 153.866 111.201 153.712L111.121 154.36C110.851 154.44 110.598 154.488 110.361 154.507C110.128 154.529 109.849 154.519 109.525 154.48ZM109.864 150.092C109.479 150.044 109.155 150.132 108.894 150.355C108.636 150.578 108.459 150.908 108.364 151.347L110.872 151.655C110.928 151.197 110.869 150.834 110.694 150.567C110.52 150.297 110.243 150.138 109.864 150.092ZM118.436 149.571C117.733 149.485 117.148 149.652 116.682 150.071C116.219 150.488 115.938 151.104 115.838 151.918C115.735 152.756 115.851 153.427 116.185 153.934C116.524 154.437 117.056 154.733 117.782 154.823C118.229 154.878 118.748 154.86 119.34 154.77L119.259 155.422C118.796 155.534 118.238 155.55 117.587 155.47C116.645 155.354 115.952 154.979 115.509 154.344C115.068 153.709 114.913 152.865 115.042 151.812C115.123 151.152 115.317 150.589 115.623 150.123C115.931 149.658 116.334 149.319 116.831 149.108C117.331 148.897 117.896 148.83 118.527 148.907C119.198 148.99 119.769 149.184 120.241 149.491L119.847 150.091C119.391 149.804 118.92 149.631 118.436 149.571ZM123.477 156.104L123.416 155.403L123.381 155.399C123.105 155.67 122.84 155.845 122.588 155.924C122.339 156 122.036 156.016 121.68 155.972C121.204 155.914 120.846 155.745 120.605 155.467C120.366 155.189 120.275 154.824 120.33 154.371C120.449 153.403 121.286 152.99 122.842 153.134L123.659 153.207L123.695 152.91C123.742 152.533 123.694 152.246 123.552 152.048C123.414 151.847 123.167 151.725 122.811 151.681C122.411 151.632 121.944 151.699 121.409 151.882L121.254 151.299C121.506 151.2 121.777 151.131 122.066 151.092C122.358 151.054 122.645 151.052 122.928 151.087C123.5 151.157 123.908 151.336 124.151 151.624C124.397 151.912 124.486 152.336 124.417 152.896L124.015 156.17L123.477 156.104ZM121.898 155.39C122.35 155.446 122.72 155.365 123.007 155.149C123.297 154.933 123.47 154.601 123.525 154.155L123.578 153.722L122.848 153.663C122.267 153.612 121.839 153.652 121.562 153.781C121.289 153.907 121.132 154.138 121.091 154.474C121.059 154.736 121.113 154.946 121.254 155.102C121.397 155.259 121.612 155.355 121.898 155.39ZM128.304 151.738C128.517 151.764 128.706 151.805 128.871 151.861L128.688 152.523C128.495 152.455 128.323 152.411 128.171 152.393C127.783 152.345 127.431 152.462 127.115 152.743C126.802 153.024 126.616 153.4 126.559 153.87L126.243 156.444L125.516 156.354L126.105 151.557L126.705 151.631L126.679 152.529L126.714 152.534C126.93 152.243 127.174 152.029 127.446 151.891C127.718 151.752 128.004 151.701 128.304 151.738ZM132.52 156.561L132.48 156.556C132.085 157.002 131.553 157.184 130.885 157.102C130.257 157.025 129.795 156.751 129.497 156.279C129.203 155.807 129.104 155.176 129.201 154.385C129.298 153.595 129.549 153.002 129.953 152.607C130.357 152.212 130.871 152.053 131.495 152.13C132.146 152.21 132.616 152.508 132.905 153.023L132.962 153.03L132.974 152.68L132.998 152.341L133.237 150.389L133.964 150.478L133.128 157.289L132.537 157.216L132.52 156.561ZM131.051 156.505C131.547 156.566 131.923 156.476 132.178 156.235C132.436 155.991 132.601 155.569 132.675 154.967L132.694 154.814C132.778 154.134 132.723 153.636 132.531 153.319C132.342 153 132 152.81 131.504 152.749C131.078 152.696 130.73 152.823 130.462 153.127C130.197 153.429 130.027 153.883 129.953 154.487C129.878 155.099 129.933 155.576 130.12 155.915C130.306 156.255 130.617 156.452 131.051 156.505Z" fill="white" fill-opacity="0.7"/>
<path d="M93.9812 167.395C93.8021 168.853 93.2973 169.942 92.4667 170.661C91.6402 171.38 90.5591 171.658 89.2232 171.494C87.871 171.328 86.8805 170.8 86.2516 169.91C85.6274 169.017 85.406 167.83 85.5876 166.352C85.7692 164.873 86.2722 163.782 87.0967 163.078C87.9253 162.376 89.0156 162.107 90.3678 162.273C91.6996 162.437 92.6797 162.966 93.308 163.86C93.9364 164.754 94.1608 165.932 93.9812 167.395ZM87.1426 166.555C87.0071 167.658 87.127 168.523 87.502 169.149C87.8776 169.772 88.5025 170.137 89.3767 170.244C90.2469 170.351 90.9371 170.15 91.4476 169.64C91.9621 169.131 92.2878 168.319 92.4247 167.203C92.5597 166.105 92.4414 165.244 92.0699 164.622C91.7025 164.001 91.0837 163.636 90.2136 163.53C89.3353 163.422 88.6366 163.624 88.1175 164.137C87.6025 164.65 87.2775 165.456 87.1426 166.555ZM96.6406 172.281L95.2006 172.104L96.3713 162.569L97.8114 162.746L96.6406 172.281ZM105.135 169.871C104.999 170.978 104.609 171.807 103.965 172.359C103.321 172.91 102.492 173.123 101.479 172.999C100.846 172.921 100.303 172.71 99.8524 172.364C99.4014 172.018 99.078 171.562 98.8823 170.994C98.6866 170.427 98.6321 169.79 98.7188 169.083C98.8538 167.985 99.241 167.161 99.8805 166.614C100.52 166.066 101.352 165.855 102.378 165.981C103.358 166.101 104.096 166.513 104.59 167.217C105.084 167.916 105.266 168.801 105.135 169.871ZM100.202 169.266C100.01 170.83 100.492 171.683 101.648 171.825C102.792 171.966 103.46 171.254 103.652 169.689C103.842 168.141 103.361 167.296 102.209 167.155C101.604 167.08 101.14 167.227 100.818 167.593C100.499 167.961 100.294 168.518 100.202 169.266ZM111.936 174.158L111.448 170.889C111.382 170.541 111.286 169.739 111.158 168.484L111.103 168.477C110.731 169.551 110.447 170.31 110.251 170.755L108.964 173.794L107.37 173.598L106.303 166.587L107.774 166.768L108.228 170.214C108.322 171.063 108.374 171.787 108.384 172.385L108.421 172.39C108.498 172.096 108.601 171.763 108.73 171.389C108.864 171.011 108.973 170.73 109.058 170.546L110.525 167.106L112.106 167.3L112.667 170.989C112.704 171.197 112.742 171.512 112.781 171.936C112.824 172.36 112.84 172.688 112.828 172.918L112.877 172.924C113 172.429 113.229 171.744 113.565 170.869L114.851 167.637L116.297 167.815L113.553 174.357L111.936 174.158ZM121.415 175.322L121.322 174.409L121.249 174.4C121.01 174.69 120.694 174.902 120.3 175.036C119.91 175.171 119.478 175.209 119.004 175.151C118.183 175.05 117.595 174.771 117.241 174.312C116.887 173.854 116.761 173.21 116.862 172.381L117.406 167.951L118.859 168.129L118.346 172.308C118.282 172.827 118.34 173.23 118.521 173.518C118.701 173.801 119.019 173.971 119.472 174.026C120.077 174.101 120.542 173.975 120.868 173.65C121.199 173.322 121.416 172.733 121.52 171.883L121.935 168.507L123.381 168.684L122.549 175.462L121.415 175.322ZM133.573 176.815L132.984 174.217L129.558 173.797L128.376 176.177L126.832 175.988L131.289 167.404L132.882 167.599L135.129 177.006L133.573 176.815ZM132.753 172.908L132.213 170.366C132.171 170.195 132.117 169.927 132.05 169.562C131.987 169.198 131.945 168.931 131.924 168.763C131.752 169.252 131.523 169.782 131.238 170.352L130.142 172.587L132.753 172.908ZM140.468 170.658C141.314 170.762 141.934 171.149 142.328 171.819C142.727 172.49 142.858 173.379 142.722 174.486C142.586 175.598 142.241 176.434 141.687 176.997C141.133 177.555 140.431 177.782 139.581 177.677C138.723 177.572 138.095 177.182 137.697 176.507L137.599 176.495L137.237 177.265L136.159 177.133L137.329 167.598L138.77 167.775L138.491 170.042C138.471 170.209 138.432 170.458 138.375 170.787C138.318 171.115 138.28 171.324 138.261 171.413L138.322 171.421C138.862 170.803 139.578 170.549 140.468 170.658ZM139.95 171.789C139.37 171.717 138.93 171.838 138.63 172.149C138.336 172.457 138.135 173.011 138.028 173.811L138.016 173.909C137.915 174.734 137.972 175.348 138.188 175.752C138.404 176.152 138.809 176.388 139.401 176.461C139.912 176.524 140.323 176.369 140.634 175.997C140.949 175.625 141.153 175.057 141.247 174.293C141.436 172.753 141.004 171.918 139.95 171.789ZM148.218 178.613L148.046 177.634L147.997 177.628C147.62 178.001 147.256 178.242 146.907 178.353C146.558 178.459 146.124 178.481 145.605 178.417C144.939 178.335 144.44 178.092 144.109 177.686C143.781 177.281 143.658 176.749 143.738 176.092C143.824 175.393 144.148 174.898 144.711 174.606C145.273 174.314 146.087 174.217 147.154 174.315L148.329 174.422L148.373 174.061C148.426 173.628 148.364 173.292 148.185 173.055C148.012 172.814 147.713 172.667 147.288 172.615C146.941 172.572 146.601 172.582 146.27 172.645C145.939 172.708 145.618 172.791 145.307 172.894L144.967 171.807C145.358 171.661 145.779 171.565 146.228 171.521C146.677 171.472 147.096 171.472 147.484 171.519C148.346 171.625 148.973 171.893 149.364 172.322C149.759 172.752 149.907 173.37 149.808 174.175L149.248 178.74L148.218 178.613ZM146.194 177.37C146.717 177.434 147.153 177.34 147.504 177.089C147.858 176.834 148.068 176.443 148.133 175.916L148.205 175.328L147.33 175.257C146.649 175.199 146.141 175.252 145.805 175.419C145.474 175.581 145.283 175.871 145.232 176.287C145.195 176.59 145.256 176.836 145.415 177.025C145.575 177.211 145.834 177.326 146.194 177.37ZM151.06 172.083L152.629 172.276L153.536 176.287C153.677 176.86 153.753 177.392 153.763 177.882L153.812 177.888C153.876 177.668 153.977 177.405 154.114 177.098C154.252 176.787 154.958 175.327 156.232 172.718L157.789 172.909L153.947 180.231C153.247 181.576 152.283 182.173 151.053 182.022C150.734 181.983 150.428 181.91 150.134 181.803L150.274 180.664C150.485 180.739 150.729 180.794 151.007 180.828C151.701 180.913 152.239 180.571 152.619 179.801L152.949 179.194L151.06 172.083ZM164.415 177.15C164.279 178.257 163.889 179.086 163.245 179.637C162.601 180.189 161.772 180.402 160.759 180.278C160.126 180.2 159.584 179.988 159.133 179.643C158.682 179.297 158.358 178.84 158.163 178.273C157.967 177.706 157.912 177.069 157.999 176.362C158.134 175.263 158.521 174.44 159.161 173.892C159.8 173.345 160.633 173.134 161.658 173.26C162.638 173.38 163.376 173.792 163.87 174.495C164.365 175.195 164.546 176.08 164.415 177.15ZM159.482 176.544C159.29 178.109 159.772 178.962 160.928 179.104C162.072 179.245 162.74 178.532 162.932 176.968C163.122 175.42 162.641 174.575 161.489 174.433C160.884 174.359 160.421 174.505 160.098 174.872C159.779 175.239 159.574 175.797 159.482 176.544ZM171.369 181.456L169.923 181.278L170.436 177.099C170.5 176.58 170.449 176.182 170.284 175.905C170.12 175.624 169.829 175.457 169.412 175.406C168.857 175.338 168.426 175.47 168.12 175.801C167.818 176.129 167.616 176.714 167.513 177.555L167.098 180.932L165.658 180.755L166.49 173.977L167.618 174.116L167.711 175.029L167.784 175.038C168.012 174.739 168.314 174.523 168.691 174.391C169.072 174.259 169.477 174.22 169.906 174.272C170.948 174.4 171.595 174.841 171.846 175.593L171.944 175.605C172.186 175.295 172.5 175.068 172.886 174.925C173.273 174.781 173.701 174.738 174.171 174.796C174.98 174.895 175.543 175.172 175.861 175.626C176.182 176.08 176.292 176.726 176.189 177.563L175.646 181.981L174.206 181.804L174.719 177.625C174.783 177.106 174.73 176.708 174.561 176.43C174.397 176.149 174.106 175.982 173.689 175.931C173.13 175.863 172.698 175.988 172.393 176.307C172.093 176.623 171.899 177.142 171.81 177.865L171.369 181.456ZM179.096 182.405L177.656 182.228L178.488 175.451L179.928 175.627L179.096 182.405ZM178.623 173.645C178.655 173.387 178.748 173.198 178.904 173.076C179.064 172.954 179.275 172.91 179.536 172.942C179.79 172.973 179.977 173.067 180.099 173.223C180.225 173.379 180.272 173.586 180.241 173.843C180.211 174.088 180.115 174.274 179.955 174.399C179.799 174.521 179.594 174.566 179.341 174.535C179.079 174.503 178.886 174.409 178.76 174.252C178.638 174.092 178.593 173.89 178.623 173.645Z" fill="white"/>
<path d="M80.2039 240.83L76.6367 240.392L77.4224 233.993L80.9896 234.431L80.9085 235.092L78.0853 234.745L77.8322 236.807L80.4847 237.133L80.404 237.789L77.7516 237.464L77.4624 239.818L80.2856 240.165L80.2039 240.83ZM85.8853 241.528L85.0405 241.424L83.6659 238.399L81.5695 240.998L80.7817 240.901L83.3195 237.818L81.7118 234.52L82.5347 234.621L83.8124 237.35L85.7255 235.013L86.5178 235.11L84.1631 237.895L85.8853 241.528ZM91.4143 237.604C91.3347 238.252 91.0517 238.723 90.5652 239.019C90.0819 239.312 89.4289 239.408 88.606 239.307L87.8532 239.215L87.5441 241.732L86.8 241.64L87.5858 235.241L89.2446 235.445C90.8437 235.641 91.5669 236.361 91.4143 237.604ZM87.9316 238.576L88.6013 238.658C89.2608 238.739 89.7509 238.691 90.0718 238.514C90.3927 238.337 90.582 238.014 90.6396 237.544C90.6916 237.121 90.5917 236.789 90.3399 236.548C90.0881 236.307 89.669 236.15 89.0825 236.078L88.2508 235.976L87.9316 238.576ZM100.038 239.956C99.9084 241.012 99.5218 241.785 98.8781 242.275C98.2378 242.762 97.3792 242.939 96.3025 242.807L94.5298 242.589L95.3155 236.19L97.2764 236.431C98.2715 236.553 99.0109 236.924 99.4947 237.543C99.9784 238.162 100.16 238.966 100.038 239.956ZM99.2471 239.885C99.3495 239.051 99.2166 238.396 98.8484 237.921C98.4831 237.447 97.8875 237.159 97.0617 237.058L95.9806 236.925L95.3529 242.037L96.2589 242.149C97.146 242.257 97.8395 242.122 98.3393 241.742C98.8395 241.359 99.1421 240.74 99.2471 239.885ZM105.091 243.886L104.545 241.753L101.98 241.438L100.942 243.377L100.189 243.284L103.508 237.169L104.134 237.246L105.862 243.981L105.091 243.886ZM104.395 241.055L103.894 238.981C103.829 238.718 103.767 238.398 103.71 238.021C103.612 238.293 103.482 238.589 103.321 238.91L102.325 240.801L104.395 241.055ZM108.711 244.331L107.967 244.239L108.672 238.501L106.645 238.252L106.726 237.591L111.524 238.18L111.442 238.841L109.416 238.592L108.711 244.331ZM115.272 245.136L111.705 244.698L112.491 238.299L116.058 238.737L115.977 239.398L113.154 239.051L112.901 241.113L115.553 241.439L115.472 242.095L112.82 241.769L112.531 244.124L115.354 244.471L115.272 245.136Z" fill="white" fill-opacity="0.7"/>
<path d="M76.8967 256.874L76.1876 256.787L76.7476 252.226C76.7942 251.847 76.8499 251.489 76.9148 251.154C76.846 251.208 76.7696 251.263 76.6855 251.321C76.6014 251.379 76.2192 251.621 75.539 252.047L75.215 251.501L77.0696 250.4L77.6824 250.475L76.8967 256.874ZM83.541 257.69L79.3347 257.174L79.4115 256.548L81.3047 255.061C81.882 254.604 82.266 254.275 82.4566 254.074C82.6473 253.872 82.7963 253.671 82.9038 253.471C83.0113 253.271 83.08 253.05 83.1097 252.808C83.1516 252.466 83.0812 252.183 82.8983 251.96C82.7159 251.733 82.4408 251.597 82.0732 251.552C81.8076 251.519 81.5498 251.532 81.2998 251.59C81.0527 251.649 80.7691 251.775 80.449 251.97L80.1246 251.428C80.7742 251.01 81.4462 250.844 82.1407 250.929C82.7418 251.003 83.1941 251.215 83.4975 251.567C83.8013 251.915 83.9213 252.349 83.8575 252.868C83.8077 253.274 83.6447 253.661 83.3683 254.03C83.092 254.399 82.6044 254.848 81.9054 255.379L80.3365 256.577L80.3322 256.612L83.6237 257.016L83.541 257.69ZM88.0121 251.743L84.8409 257.85L84.1144 257.76L87.2855 251.654L88.0121 251.743ZM91.9623 258.724L87.756 258.208L87.8329 257.582L89.726 256.095C90.3033 255.638 90.6873 255.309 90.878 255.108C91.0686 254.906 91.2177 254.705 91.3252 254.505C91.4327 254.305 91.5013 254.084 91.531 253.842C91.5729 253.5 91.5025 253.217 91.3197 252.994C91.1372 252.767 90.8622 252.631 90.4945 252.586C90.229 252.553 89.9712 252.566 89.7212 252.624C89.474 252.683 89.1904 252.809 88.8703 253.004L88.5459 252.462C89.1955 252.044 89.8676 251.878 90.5621 251.963C91.1632 252.037 91.6154 252.249 91.9189 252.601C92.2226 252.949 92.3426 253.383 92.2789 253.902C92.2291 254.308 92.066 254.695 91.7897 255.064C91.5133 255.433 91.0257 255.882 90.3267 256.413L88.7579 257.611L88.7536 257.646L92.0451 258.05L91.9623 258.724ZM95.3661 255.174C96.0401 255.257 96.5491 255.49 96.8931 255.873C97.2403 256.253 97.3783 256.734 97.307 257.314C97.2257 257.977 96.9504 258.47 96.481 258.795C96.0146 259.119 95.4108 259.236 94.6697 259.145C93.9489 259.057 93.413 258.874 93.062 258.597L93.148 257.897C93.3361 258.053 93.5773 258.188 93.8714 258.301C94.1659 258.411 94.4606 258.484 94.7553 258.52C95.2688 258.584 95.682 258.511 95.9948 258.304C96.3105 258.097 96.4965 257.764 96.5527 257.306C96.6624 256.413 96.1701 255.9 95.0758 255.765C94.7986 255.731 94.4228 255.728 93.9485 255.756L93.6016 255.469L94.2099 252.504L97.392 252.895L97.3098 253.565L94.7492 253.25L94.3514 255.152C94.6952 255.126 95.0334 255.134 95.3661 255.174Z" fill="white"/>
<path d="M155.113 244.115C154.41 244.028 153.826 244.195 153.359 244.615C152.896 245.032 152.615 245.647 152.515 246.461C152.412 247.299 152.528 247.971 152.863 248.477C153.201 248.98 153.733 249.277 154.46 249.366C154.906 249.421 155.425 249.403 156.017 249.313L155.937 249.965C155.473 250.077 154.916 250.093 154.265 250.013C153.322 249.897 152.629 249.522 152.186 248.887C151.746 248.252 151.59 247.408 151.719 246.355C151.8 245.695 151.994 245.133 152.3 244.667C152.609 244.201 153.012 243.863 153.509 243.651C154.009 243.44 154.574 243.373 155.204 243.45C155.875 243.533 156.447 243.727 156.918 244.034L156.525 244.635C156.068 244.347 155.598 244.174 155.113 244.115ZM161.754 244.348L162.555 244.446L159.462 250.562L158.727 250.472L157.219 243.791L158.007 243.888L158.969 248.209C159.08 248.706 159.158 249.185 159.202 249.646C159.365 249.186 159.56 248.732 159.787 248.283L161.754 244.348ZM167.094 245.004L167.895 245.102L164.802 251.218L164.067 251.128L162.559 244.447L163.347 244.544L164.309 248.865C164.42 249.361 164.498 249.84 164.542 250.302C164.705 249.842 164.9 249.388 165.127 248.939L167.094 245.004ZM175.32 252.509L174.471 252.405L171.633 246.605L171.598 246.601C171.568 247.237 171.52 247.817 171.455 248.343L171.009 251.98L170.322 251.896L171.107 245.496L171.948 245.6L174.779 251.377L174.814 251.381C174.818 251.301 174.836 251.047 174.868 250.619C174.9 250.187 174.931 249.88 174.959 249.697L175.41 246.025L176.106 246.11L175.32 252.509ZM182.698 246.92L182.189 251.06C182.1 251.79 181.809 252.336 181.317 252.699C180.825 253.062 180.194 253.197 179.424 253.102C178.653 253.008 178.083 252.724 177.711 252.252C177.342 251.78 177.203 251.177 177.294 250.441L177.8 246.318L178.544 246.41L178.031 250.585C177.966 251.119 178.061 251.547 178.318 251.869C178.575 252.191 178.986 252.386 179.552 252.456C180.092 252.522 180.525 252.43 180.852 252.18C181.179 251.927 181.376 251.532 181.442 250.995L181.954 246.828L182.698 246.92ZM186.442 253.875L184.968 247.936L184.933 247.932C184.918 248.386 184.873 248.922 184.797 249.541L184.297 253.612L183.61 253.527L184.396 247.128L185.516 247.266L186.895 252.793L186.93 252.797L189.622 247.77L190.734 247.906L189.948 254.305L189.204 254.214L189.71 250.091C189.768 249.618 189.852 249.107 189.961 248.558L189.926 248.553L187.042 253.949L186.442 253.875ZM192.493 248.122L194.301 248.344C195.15 248.449 195.749 248.651 196.097 248.951C196.445 249.252 196.586 249.676 196.518 250.225C196.472 250.604 196.327 250.905 196.083 251.127C195.843 251.346 195.516 251.467 195.101 251.49L195.096 251.534C196.047 251.82 196.47 252.39 196.365 253.245C196.295 253.817 196.046 254.24 195.618 254.513C195.194 254.787 194.634 254.881 193.94 254.796L191.708 254.521L192.493 248.122ZM192.901 250.954L194.127 251.104C194.652 251.169 195.04 251.133 195.29 250.998C195.541 250.86 195.691 250.596 195.739 250.205C195.783 249.846 195.686 249.572 195.449 249.383C195.212 249.191 194.813 249.06 194.253 248.991L193.158 248.857L192.901 250.954ZM192.824 251.584L192.53 253.978L193.865 254.142C194.381 254.206 194.781 254.154 195.065 253.987C195.353 253.818 195.523 253.521 195.575 253.095C195.624 252.698 195.525 252.39 195.28 252.17C195.037 251.951 194.643 251.807 194.097 251.74L192.824 251.584ZM201.088 255.673L197.52 255.235L198.306 248.836L201.873 249.274L201.792 249.935L198.969 249.588L198.716 251.65L201.368 251.976L201.288 252.632L198.635 252.306L198.346 254.661L201.169 255.008L201.088 255.673ZM203.581 253.278L203.254 255.939L202.51 255.848L203.296 249.449L205.051 249.664C205.836 249.761 206.397 249.982 206.733 250.328C207.073 250.675 207.205 251.151 207.131 251.755C207.027 252.601 206.528 253.12 205.634 253.312L207.018 256.401L206.139 256.293L204.916 253.442L203.581 253.278ZM203.659 252.639L204.679 252.764C205.204 252.829 205.602 252.772 205.873 252.595C206.144 252.415 206.305 252.117 206.356 251.699C206.408 251.276 206.32 250.956 206.092 250.738C205.867 250.521 205.479 250.379 204.927 250.311L203.96 250.192L203.659 252.639Z" fill="white" fill-opacity="0.7"/>
<path d="M151.918 266.086L151.209 265.999L151.769 261.438C151.816 261.059 151.871 260.701 151.936 260.366C151.868 260.419 151.791 260.475 151.707 260.533C151.623 260.591 151.241 260.833 150.56 261.258L150.237 260.712L152.091 259.611L152.704 259.687L151.918 266.086ZM158.562 266.902L154.356 266.385L154.433 265.759L156.326 264.272C156.903 263.816 157.287 263.487 157.478 263.285C157.669 263.084 157.818 262.883 157.925 262.683C158.033 262.483 158.101 262.261 158.131 262.019C158.173 261.678 158.103 261.395 157.92 261.171C157.737 260.945 157.462 260.809 157.095 260.763C156.829 260.731 156.571 260.744 156.321 260.802C156.074 260.86 155.791 260.987 155.47 261.182L155.146 260.64C155.796 260.222 156.468 260.056 157.162 260.141C157.763 260.215 158.216 260.427 158.519 260.778C158.823 261.127 158.943 261.561 158.879 262.08C158.829 262.486 158.666 262.873 158.39 263.242C158.113 263.611 157.626 264.06 156.927 264.59L155.358 265.788L155.354 265.823L158.645 266.228L158.562 266.902ZM164.052 262.608C164.002 263.017 163.846 263.337 163.584 263.568C163.324 263.8 162.979 263.934 162.548 263.97L162.544 264.005C163.049 264.132 163.41 264.342 163.626 264.635C163.842 264.928 163.923 265.288 163.871 265.714C163.796 266.324 163.527 266.768 163.063 267.046C162.6 267.32 161.979 267.41 161.2 267.314C160.861 267.273 160.554 267.208 160.277 267.121C160.003 267.037 159.741 266.915 159.491 266.754L159.576 266.062C159.837 266.233 160.119 266.374 160.422 266.486C160.728 266.594 161.022 266.666 161.302 266.7C162.408 266.836 163.014 266.471 163.12 265.604C163.216 264.828 162.653 264.365 161.434 264.215L160.803 264.138L160.88 263.512L161.519 263.59C162.018 263.652 162.427 263.591 162.746 263.408C163.065 263.222 163.248 262.933 163.296 262.542C163.335 262.23 163.257 261.972 163.063 261.767C162.872 261.563 162.592 261.438 162.224 261.393C161.944 261.359 161.676 261.364 161.418 261.41C161.161 261.455 160.861 261.561 160.518 261.726L160.21 261.19C160.498 261.015 160.82 260.891 161.176 260.816C161.535 260.738 161.904 260.723 162.283 260.77C162.905 260.846 163.37 261.048 163.679 261.376C163.989 261.702 164.113 262.112 164.052 262.608Z" fill="white"/>
<path d="M85.6777 198.393L85.0621 201.033L87.8512 200.608L87.8607 202.151L85.3146 202.045L86.6999 204.426L85.2143 205.004L84.3424 202.494L83.0083 204.733L81.6646 203.808L83.5498 201.828L81.0676 201.317L81.4993 199.828L84.0396 200.907L84.081 198.197L85.6777 198.393ZM93.5353 199.358L92.9197 201.998L95.7088 201.572L95.7183 203.116L93.1722 203.01L94.5575 205.391L93.0719 205.969L92.2 203.459L90.8659 205.698L89.5222 204.772L91.4074 202.793L88.9252 202.282L89.3569 200.792L91.8972 201.872L91.9386 199.162L93.5353 199.358ZM101.393 200.322L100.777 202.962L103.566 202.537L103.576 204.081L101.03 203.974L102.415 206.355L100.929 206.934L100.058 204.424L98.7234 206.663L97.3798 205.737L99.265 203.758L96.7827 203.247L97.2145 201.757L99.7548 202.837L99.7961 200.126L101.393 200.322ZM109.25 201.287L108.635 203.927L111.424 203.502L111.433 205.046L108.887 204.939L110.273 207.32L108.787 207.898L107.915 205.389L106.581 207.628L105.237 206.702L107.123 204.723L104.64 204.212L105.072 202.722L107.612 203.802L107.654 201.091L109.25 201.287ZM128.285 203.624L127.669 206.264L130.459 205.839L130.468 207.383L127.922 207.276L129.307 209.657L127.822 210.236L126.95 207.726L125.616 209.965L124.272 209.039L126.157 207.06L123.675 206.549L124.107 205.059L126.647 206.139L126.688 203.428L128.285 203.624ZM136.143 204.589L135.527 207.229L138.316 206.804L138.326 208.348L135.78 208.241L137.165 210.622L135.679 211.2L134.807 208.691L133.473 210.929L132.13 210.004L134.015 208.025L131.533 207.514L131.964 206.024L134.505 207.104L134.546 204.393L136.143 204.589ZM144 205.554L143.385 208.194L146.174 207.769L146.183 209.312L143.637 209.206L145.022 211.587L143.537 212.165L142.665 209.655L141.331 211.894L139.987 210.969L141.872 208.989L139.39 208.478L139.822 206.989L142.362 208.068L142.404 205.358L144 205.554ZM151.858 206.519L151.242 209.159L154.031 208.733L154.041 210.277L151.495 210.171L152.88 212.552L151.394 213.13L150.523 210.62L149.188 212.859L147.845 211.933L149.73 209.954L147.248 209.443L147.679 207.954L150.22 209.033L150.261 206.323L151.858 206.519ZM170.892 208.856L170.277 211.496L173.066 211.071L173.075 212.614L170.529 212.508L171.915 214.889L170.429 215.467L169.557 212.957L168.223 215.196L166.879 214.271L168.765 212.291L166.282 211.78L166.714 210.291L169.254 211.37L169.296 208.66L170.892 208.856ZM178.75 209.821L178.134 212.461L180.924 212.035L180.933 213.579L178.387 213.473L179.772 215.854L178.287 216.432L177.415 213.922L176.081 216.161L174.737 215.235L176.622 213.256L174.14 212.745L174.572 211.256L177.112 212.335L177.153 209.625L178.75 209.821ZM186.608 210.786L185.992 213.426L188.781 213L188.791 214.544L186.245 214.438L187.63 216.818L186.144 217.397L185.272 214.887L183.938 217.126L182.595 216.2L184.48 214.221L181.998 213.71L182.429 212.22L184.97 213.3L185.011 210.59L186.608 210.786ZM194.465 211.75L193.85 214.39L196.639 213.965L196.648 215.509L194.102 215.402L195.487 217.783L194.002 218.361L193.13 215.852L191.796 218.091L190.452 217.165L192.337 215.186L189.855 214.675L190.287 213.185L192.827 214.265L192.868 211.554L194.465 211.75ZM212.918 225.077L211.272 224.875L212.084 218.264C212.181 217.475 212.277 216.852 212.371 216.394C212.25 216.493 212.101 216.601 211.926 216.716C211.755 216.833 211.18 217.198 210.199 217.812L209.501 216.667L212.803 214.67L214.175 214.839L212.918 225.077ZM223.22 226.342L216.28 225.49L216.433 224.244L219.399 221.913C220.277 221.211 220.862 220.709 221.155 220.409C221.453 220.104 221.678 219.812 221.831 219.532C221.984 219.252 222.081 218.944 222.122 218.608C222.179 218.146 222.084 217.765 221.836 217.464C221.593 217.164 221.227 216.984 220.737 216.924C220.344 216.876 219.955 216.901 219.568 217.001C219.187 217.101 218.732 217.31 218.205 217.63L217.448 216.435C218.077 216.024 218.672 215.751 219.234 215.616C219.795 215.481 220.38 215.451 220.987 215.526C221.939 215.643 222.672 215.986 223.185 216.556C223.698 217.122 223.903 217.825 223.8 218.665C223.743 219.127 223.605 219.556 223.386 219.951C223.172 220.346 222.865 220.744 222.465 221.145C222.07 221.542 221.427 222.068 220.537 222.721L218.546 224.226L218.538 224.296L223.398 224.893L223.22 226.342ZM231.997 219.415C231.917 220.064 231.661 220.583 231.23 220.97C230.799 221.354 230.231 221.578 229.527 221.643L229.52 221.699C230.329 221.902 230.914 222.235 231.274 222.696C231.635 223.153 231.774 223.72 231.691 224.397C231.57 225.382 231.129 226.1 230.367 226.552C229.606 226.998 228.584 227.143 227.3 226.985C226.165 226.846 225.231 226.544 224.496 226.08L224.676 224.616C225.084 224.884 225.523 225.106 225.995 225.282C226.466 225.459 226.925 225.574 227.374 225.63C228.167 225.727 228.778 225.653 229.207 225.407C229.635 225.161 229.887 224.73 229.963 224.113C230.03 223.567 229.862 223.139 229.459 222.829C229.057 222.519 228.391 222.307 227.462 222.193L226.572 222.083L226.736 220.746L227.64 220.857C229.274 221.057 230.16 220.593 230.299 219.463C230.353 219.024 230.252 218.668 229.996 218.395C229.741 218.122 229.335 217.951 228.78 217.883C228.392 217.835 228.012 217.846 227.639 217.914C227.266 217.977 226.815 218.137 226.286 218.394L225.621 217.147C226.645 216.571 227.777 216.359 229.019 216.512C230.051 216.639 230.829 216.959 231.354 217.474C231.878 217.989 232.092 218.636 231.997 219.415ZM240.246 226.165L238.866 225.996L238.592 228.23L236.988 228.033L237.262 225.799L232.584 225.224L232.74 223.957L238.249 217.766L239.853 217.963L239.034 224.63L240.414 224.799L240.246 226.165ZM237.43 224.433L237.746 221.863C237.858 220.948 237.973 220.201 238.092 219.624L238.036 219.617C237.867 219.909 237.616 220.257 237.282 220.661L234.286 224.047L237.43 224.433Z" fill="white"/>
<path d="M26.6857 218.679C22.2509 175.413 92.1901 132.413 182.899 122.636C273.608 112.86 350.738 140.01 355.172 183.276" stroke="#FA620C" stroke-width="0.841107"/>
<path d="M62.9397 310.796C91.0743 343.405 169.259 319.6 237.571 257.627C305.882 195.654 338.452 118.98 310.317 86.3708" stroke="#FA620C" stroke-width="0.841107"/>
<path d="M98.6089 93.0674C98.6089 93.0674 101.922 92.1129 103.245 91.0211C104.969 89.5987 105.339 86.3373 105.339 86.3373C105.339 86.3373 106.023 89.5257 107.433 91.0211C108.922 92.6006 112.069 93.0674 112.069 93.0674C112.069 93.0674 108.87 93.957 107.433 95.6848C106.255 97.1003 105.339 99.7974 105.339 99.7974C105.339 99.7974 104.734 97.08 103.245 95.6848C101.923 94.4456 98.6089 93.0674 98.6089 93.0674Z" fill="#FA620C"/>
<path d="M327.987 296.747C327.987 296.747 331.3 295.793 332.623 294.701C334.347 293.278 334.717 290.017 334.717 290.017C334.717 290.017 335.401 293.205 336.811 294.701C338.299 296.28 341.447 296.747 341.447 296.747C341.447 296.747 338.248 297.637 336.811 299.364C335.633 300.78 334.717 303.477 334.717 303.477C334.717 303.477 334.111 300.76 332.623 299.364C331.301 298.125 327.987 296.747 327.987 296.747Z" fill="#FA620C"/>
<path d="M308 43.4792C308 43.4792 315.95 41.1886 319.126 38.5681C323.264 35.1544 324.152 27.3271 324.152 27.3271C324.152 27.3271 325.795 34.9792 329.177 38.5681C332.75 42.3589 340.304 43.4792 340.304 43.4792C340.304 43.4792 332.626 45.6143 329.177 49.761C326.351 53.1582 324.152 59.6314 324.152 59.6314C324.152 59.6314 322.699 53.1096 319.126 49.761C315.954 46.7869 308 43.4792 308 43.4792Z" fill="#FA620C" fill-opacity="0.05"/>
<path d="M44.3579 320.542C44.3579 320.542 47.6708 319.587 48.9941 318.495C50.7179 317.073 51.088 313.811 51.088 313.811C51.088 313.811 51.7725 317 53.1819 318.495C54.6706 320.075 57.818 320.542 57.818 320.542C57.818 320.542 54.6191 321.431 53.1819 323.159C52.0044 324.574 51.088 327.272 51.088 327.272C51.088 327.272 50.4826 324.554 48.9941 323.159C47.6721 321.92 44.3579 320.542 44.3579 320.542Z" fill="#E2E8F0"/>
<defs>
<filter id="filter0_f_2_2426" x="55.2842" y="297.136" width="269.391" height="85.698" filterUnits="userSpaceOnUse" color-interpolation-filters="sRGB">
<feFlood flood-opacity="0" result="BackgroundImageFix"/>
<feBlend mode="normal" in="SourceGraphic" in2="BackgroundImageFix" result="shape"/>
<feGaussianBlur stdDeviation="15" result="effect1_foregroundBlur_2_2426"/>
</filter>
<linearGradient id="paint0_linear_2_2426" x1="72.9111" y1="116.49" x2="353.867" y2="319.165" gradientUnits="userSpaceOnUse">
<stop offset="0.188358" stop-color="#FB5E04"/>
<stop offset="1" stop-color="#E25200"/>
</linearGradient>
<clipPath id="clip0_2_2426">
<rect width="48.0994" height="15.4677" fill="white" transform="translate(249.755 169.326) rotate(7)"/>
</clipPath>
</defs>
</svg>
