<svg width="33" height="34" viewBox="0 0 33 34" fill="none" xmlns="http://www.w3.org/2000/svg">
<path d="M32.5063 20.9914C30.3024 29.8308 21.3485 35.2103 12.5071 33.006C3.66937 30.8023 -1.7107 21.8489 0.494207 13.0103C2.69718 4.16991 11.651 -1.20996 20.4897 0.993736C29.3305 3.19743 34.7103 12.1518 32.5061 20.9916L32.5062 20.9914H32.5063Z" fill="#CB1AF7"/>
<path d="M17.0132 20.6365L10.4375 17.5084L17.0132 28.9999L23.5891 17.5084L17.0132 20.6365Z" fill="white"/>
<path d="M22.873 15.1774L17.0133 5L11.147 15.1891L17.0133 12.4062L22.873 15.1774Z" fill="white"/>
<path d="M11.6553 16.5095L17.0131 19.0473L22.3799 16.5053L17.0131 13.9676L11.6553 16.5095Z" fill="white"/>
</svg>
