<svg width="40" height="40" viewBox="0 0 40 40" fill="none" xmlns="http://www.w3.org/2000/svg">
<path d="M20 40C31.0457 40 40 31.0457 40 20C40 8.9543 31.0457 0 20 0C8.9543 0 0 8.9543 0 20C0 31.0457 8.9543 40 20 40Z" fill="#627EEA"/>
<path d="M20.6233 4.99707V16.0851L29.9945 20.2732L20.6233 4.99707Z" fill="white" fill-opacity="0.602"/>
<path d="M20.6233 4.99707L11.2521 20.2732L20.6233 16.0851V4.99707Z" fill="white"/>
<path d="M20.6233 27.4577V34.9919L30 22.0176L20.6233 27.4577Z" fill="white" fill-opacity="0.602"/>
<path d="M20.6233 34.9919V27.4577L11.2521 22.0176L20.6233 34.9919Z" fill="white"/>
<path d="M20.6233 25.7137L29.9945 20.2735L20.6233 16.0854V25.7137Z" fill="white" fill-opacity="0.2"/>
</svg>
