<svg width="357" height="119" viewBox="0 0 357 119" fill="none" xmlns="http://www.w3.org/2000/svg">
<g filter="url(#filter0_d_2_2374)">
<rect x="20" width="317" height="72" rx="10" fill="white"/>
</g>
<g clip-path="url(#clip0_2_2374)">
<path d="M56.0001 54.7272C66.3428 54.7272 74.7272 46.3428 74.7272 36.0001C74.7272 25.6574 66.3428 17.2729 56.0001 17.2729C45.6574 17.2729 37.2729 25.6574 37.2729 36.0001C37.2729 46.3428 45.6574 54.7272 56.0001 54.7272Z" fill="white"/>
<path d="M56 15C51.8466 15 47.7865 16.2316 44.333 18.5391C40.8796 20.8466 38.188 24.1264 36.5985 27.9636C35.0091 31.8009 34.5932 36.0233 35.4035 40.0969C36.2138 44.1705 38.2139 47.9123 41.1508 50.8492C44.0877 53.7861 47.8295 55.7862 51.9031 56.5965C55.9767 57.4068 60.1991 56.9909 64.0364 55.4015C67.8736 53.812 71.1534 51.1204 73.4609 47.667C75.7684 44.2135 77 40.1534 77 36V36C77.008 33.2503 76.4744 30.5258 75.4295 27.9823C74.3846 25.4388 72.849 23.126 70.9103 21.176C68.9716 19.226 66.6678 17.6769 64.1304 16.6172C61.593 15.5575 58.8718 15.008 56.122 15H56ZM56.3559 36.7119L54.1695 44.0847H65.8644C65.9419 44.082 66.0191 44.0946 66.0917 44.1218C66.1643 44.1489 66.2309 44.1901 66.2875 44.243C66.3442 44.2959 66.3899 44.3594 66.422 44.43C66.4541 44.5006 66.472 44.5768 66.4746 44.6542V44.8475L65.4576 48.3559C65.4128 48.5218 65.3129 48.6676 65.1743 48.7692C65.0357 48.8709 64.8666 48.9224 64.6949 48.9153H46.7966L49.7966 38.6949L46.4407 39.7119L47.2034 37.3729L50.5593 36.3559L54.7797 22.0169C54.8261 21.852 54.9265 21.7073 55.0647 21.6059C55.2029 21.5045 55.3711 21.4523 55.5424 21.4576H60.0678C60.1453 21.4549 60.2225 21.4675 60.2951 21.4946C60.3677 21.5218 60.4343 21.563 60.4909 21.6159C60.5476 21.6688 60.5933 21.7323 60.6254 21.8029C60.6575 21.8735 60.6754 21.9496 60.678 22.0271V22.2203L57.1187 34.322L60.4746 33.3051L59.7627 35.7458L56.3559 36.7119Z" fill="#345D9D"/>
</g>
<path d="M94.3193 33V23.0059H95.9531V31.5986H100.185V33H94.3193ZM105.359 33H103.726V24.4072H100.786V23.0059H108.299V24.4072H105.359V33ZM114.089 24.2637C113.15 24.2637 112.412 24.5964 111.874 25.2617C111.336 25.9271 111.067 26.8454 111.067 28.0166C111.067 29.2425 111.325 30.1699 111.84 30.7988C112.359 31.4277 113.109 31.7422 114.089 31.7422C114.513 31.7422 114.923 31.7012 115.319 31.6191C115.716 31.5326 116.128 31.4232 116.557 31.291V32.6924C115.773 32.9886 114.884 33.1367 113.891 33.1367C112.428 33.1367 111.304 32.6947 110.521 31.8105C109.737 30.9219 109.345 29.6527 109.345 28.0029C109.345 26.9639 109.534 26.0547 109.912 25.2754C110.295 24.4961 110.846 23.8991 111.566 23.4844C112.286 23.0697 113.132 22.8623 114.103 22.8623C115.123 22.8623 116.067 23.0765 116.933 23.5049L116.345 24.8652C116.007 24.7057 115.65 24.5667 115.271 24.4482C114.898 24.3252 114.504 24.2637 114.089 24.2637Z" fill="#1A2B41"/>
<rect x="93" y="45" width="60" height="8" rx="4" fill="url(#paint0_linear_2_2374)"/>
<path d="M271.375 33V29.402H270.283V28.506H271.375V27.358H270.283V26.462H271.375V23.004H272.831L274.161 26.462H275.813V23.004H276.919V26.462H278.011V27.358H276.919V28.506H278.011V29.402H276.919V33H275.449L274.119 29.402H272.467V33H271.375ZM272.439 26.462H273.027L272.439 24.726H272.383L272.439 26.462ZM272.467 28.506H273.783L273.363 27.358H272.439L272.467 28.506ZM274.903 28.506H275.841L275.813 27.358H274.483L274.903 28.506ZM275.813 31.026H275.869L275.827 29.402H275.239L275.813 31.026ZM283.486 33H281.88V26.5469C281.88 25.7767 281.898 25.166 281.935 24.7148C281.83 24.8242 281.7 24.945 281.545 25.0771C281.395 25.2093 280.884 25.6286 280.014 26.335L279.207 25.3164L282.146 23.0059H283.486V33ZM286.795 28.7412C286.795 24.8311 288.388 22.876 291.573 22.876C292.075 22.876 292.498 22.9147 292.845 22.9922V24.332C292.498 24.2318 292.097 24.1816 291.642 24.1816C290.571 24.1816 289.766 24.4688 289.229 25.043C288.691 25.6172 288.399 26.5378 288.354 27.8047H288.436C288.65 27.4355 288.951 27.1507 289.338 26.9502C289.725 26.7451 290.181 26.6426 290.705 26.6426C291.612 26.6426 292.318 26.9206 292.824 27.4766C293.33 28.0326 293.583 28.7868 293.583 29.7393C293.583 30.7874 293.289 31.6169 292.701 32.2275C292.118 32.8337 291.32 33.1367 290.309 33.1367C289.593 33.1367 288.971 32.9658 288.442 32.624C287.914 32.2777 287.506 31.7764 287.219 31.1201C286.936 30.4593 286.795 29.6663 286.795 28.7412ZM290.281 31.8105C290.833 31.8105 291.257 31.6328 291.553 31.2773C291.854 30.9219 292.004 30.4137 292.004 29.7529C292.004 29.1787 291.863 28.7275 291.58 28.3994C291.302 28.0713 290.883 27.9072 290.322 27.9072C289.976 27.9072 289.657 27.9824 289.365 28.1328C289.074 28.2786 288.843 28.4814 288.675 28.7412C288.506 28.9964 288.422 29.2585 288.422 29.5273C288.422 30.1699 288.595 30.7122 288.941 31.1543C289.292 31.5918 289.739 31.8105 290.281 31.8105ZM295.06 32.1455C295.06 31.8128 295.146 31.5576 295.319 31.3799C295.493 31.2021 295.743 31.1133 296.071 31.1133C296.404 31.1133 296.657 31.2067 296.83 31.3936C297.003 31.5758 297.09 31.8265 297.09 32.1455C297.09 32.4691 297.001 32.7266 296.823 32.918C296.65 33.1048 296.399 33.1982 296.071 33.1982C295.743 33.1982 295.493 33.1048 295.319 32.918C295.146 32.7311 295.06 32.4736 295.06 32.1455ZM305.382 27.2715C305.382 29.2402 304.985 30.71 304.192 31.6807C303.399 32.6514 302.205 33.1367 300.61 33.1367C300.004 33.1367 299.569 33.1003 299.305 33.0273V31.6807C299.71 31.7946 300.118 31.8516 300.528 31.8516C301.613 31.8516 302.422 31.5599 302.955 30.9766C303.488 30.3932 303.78 29.4772 303.83 28.2285H303.748C303.479 28.6387 303.153 28.9349 302.771 29.1172C302.392 29.2995 301.948 29.3906 301.438 29.3906C300.553 29.3906 299.858 29.1149 299.353 28.5635C298.847 28.012 298.594 27.2555 298.594 26.2939C298.594 25.2503 298.885 24.4209 299.469 23.8057C300.057 23.1859 300.856 22.876 301.868 22.876C302.579 22.876 303.199 23.0492 303.728 23.3955C304.256 23.7419 304.664 24.2454 304.951 24.9062C305.238 25.5625 305.382 26.3509 305.382 27.2715ZM301.896 24.209C301.34 24.209 300.913 24.3913 300.617 24.7559C300.321 25.1159 300.173 25.624 300.173 26.2803C300.173 26.8499 300.31 27.2988 300.583 27.627C300.861 27.9505 301.28 28.1123 301.841 28.1123C302.383 28.1123 302.839 27.9505 303.208 27.627C303.577 27.3034 303.762 26.9251 303.762 26.4922C303.762 26.0866 303.682 25.7083 303.522 25.3574C303.368 25.002 303.149 24.7217 302.866 24.5166C302.584 24.3115 302.26 24.209 301.896 24.209ZM309.996 22.876C310.944 22.876 311.694 23.0947 312.245 23.5322C312.797 23.9652 313.072 24.5462 313.072 25.2754C313.072 26.3008 312.457 27.1165 311.227 27.7227C312.01 28.1146 312.566 28.527 312.895 28.96C313.227 29.3929 313.394 29.876 313.394 30.4092C313.394 31.234 313.09 31.8949 312.484 32.3916C311.878 32.8883 311.058 33.1367 310.023 33.1367C308.939 33.1367 308.098 32.9043 307.501 32.4395C306.904 31.9746 306.605 31.3161 306.605 30.4639C306.605 29.9079 306.76 29.4089 307.07 28.9668C307.385 28.5202 307.897 28.1237 308.608 27.7773C307.998 27.4128 307.562 27.0277 307.303 26.6221C307.043 26.2165 306.913 25.7607 306.913 25.2549C306.913 24.5303 307.198 23.9538 307.768 23.5254C308.337 23.0924 309.08 22.876 309.996 22.876ZM308.144 30.4092C308.144 30.8831 308.31 31.2523 308.643 31.5166C308.975 31.7764 309.426 31.9062 309.996 31.9062C310.584 31.9062 311.04 31.7718 311.363 31.5029C311.691 31.2295 311.855 30.8604 311.855 30.3955C311.855 30.0264 311.705 29.6891 311.404 29.3838C311.104 29.0785 310.648 28.7959 310.037 28.5361L309.839 28.4473C309.237 28.7116 308.804 29.0033 308.54 29.3223C308.276 29.6367 308.144 29.999 308.144 30.4092ZM309.982 24.1133C309.527 24.1133 309.16 24.2272 308.882 24.4551C308.604 24.6784 308.465 24.9837 308.465 25.3711C308.465 25.6081 308.515 25.82 308.615 26.0068C308.715 26.1937 308.861 26.3646 309.053 26.5195C309.244 26.6699 309.568 26.8522 310.023 27.0664C310.57 26.8249 310.955 26.5719 311.179 26.3076C311.407 26.0387 311.521 25.7266 311.521 25.3711C311.521 24.9837 311.379 24.6784 311.097 24.4551C310.819 24.2272 310.447 24.1133 309.982 24.1133ZM315.752 33L319.703 24.4346H314.508V23.0195H321.419V24.1406L317.488 33H315.752Z" fill="#1A2B41"/>
<rect x="262" y="45" width="60" height="8" rx="4" fill="url(#paint1_linear_2_2374)"/>
<defs>
<filter id="filter0_d_2_2374" x="0" y="0" width="357" height="119" filterUnits="userSpaceOnUse" color-interpolation-filters="sRGB">
<feFlood flood-opacity="0" result="BackgroundImageFix"/>
<feColorMatrix in="SourceAlpha" type="matrix" values="0 0 0 0 0 0 0 0 0 0 0 0 0 0 0 0 0 0 127 0" result="hardAlpha"/>
<feOffset dy="27"/>
<feGaussianBlur stdDeviation="10"/>
<feComposite in2="hardAlpha" operator="out"/>
<feColorMatrix type="matrix" values="0 0 0 0 0 0 0 0 0 0 0 0 0 0 0 0 0 0 0.02 0"/>
<feBlend mode="normal" in2="BackgroundImageFix" result="effect1_dropShadow_2_2374"/>
<feBlend mode="normal" in="SourceGraphic" in2="effect1_dropShadow_2_2374" result="shape"/>
</filter>
<linearGradient id="paint0_linear_2_2374" x1="93" y1="49" x2="153" y2="49" gradientUnits="userSpaceOnUse">
<stop stop-color="#011154"/>
<stop offset="1" stop-color="#011154" stop-opacity="0"/>
</linearGradient>
<linearGradient id="paint1_linear_2_2374" x1="322" y1="49" x2="256" y2="49" gradientUnits="userSpaceOnUse">
<stop stop-color="#30D299"/>
<stop offset="1" stop-color="#30D299" stop-opacity="0"/>
</linearGradient>
<clipPath id="clip0_2_2374">
<rect width="42" height="42" fill="white" transform="translate(35 15)"/>
</clipPath>
</defs>
</svg>
