<svg width="40" height="41" viewBox="0 0 40 41" fill="none" xmlns="http://www.w3.org/2000/svg">
<rect y="0.682129" width="40" height="40" rx="8" fill="#10192D"/>
<path d="M20 8.68213C13.376 8.68213 8 14.0581 8 20.6821C8 27.3061 13.376 32.6821 20 32.6821C26.624 32.6821 32 27.3061 32 20.6821C32 14.0581 26.624 8.68213 20 8.68213ZM20 30.2821C14.708 30.2821 10.4 25.9741 10.4 20.6821C10.4 15.3901 14.708 11.0821 20 11.0821C25.292 11.0821 29.6 15.3901 29.6 20.6821C29.6 25.9741 25.292 30.2821 20 30.2821ZM18.8 25.4821H21.2V27.8821H18.8V25.4821ZM20.732 13.5301C18.26 13.1701 16.076 14.6941 15.416 16.8781C15.2 17.5741 15.728 18.2821 16.46 18.2821H16.7C17.192 18.2821 17.588 17.9341 17.756 17.4781C18.14 16.4101 19.28 15.6781 20.516 15.9421C21.656 16.1821 22.496 17.2981 22.4 18.4621C22.28 20.0701 20.456 20.4181 19.46 21.9181C19.46 21.9301 19.448 21.9301 19.448 21.9421C19.436 21.9661 19.424 21.9781 19.412 22.0021C19.304 22.1821 19.196 22.3861 19.112 22.6021C19.1 22.6381 19.076 22.6621 19.064 22.6981C19.052 22.7221 19.052 22.7461 19.04 22.7821C18.896 23.1901 18.8 23.6821 18.8 24.2821H21.2C21.2 23.7781 21.332 23.3581 21.536 22.9981C21.56 22.9621 21.572 22.9261 21.596 22.8901C21.692 22.7221 21.812 22.5661 21.932 22.4221C21.944 22.4101 21.956 22.3861 21.968 22.3741C22.088 22.2301 22.22 22.0981 22.364 21.9661C23.516 20.8741 25.076 19.9861 24.752 17.6941C24.464 15.6061 22.82 13.8421 20.732 13.5301Z" fill="white"/>
</svg>
