<svg width="24" height="26" viewBox="0 0 24 26" fill="none" xmlns="http://www.w3.org/2000/svg">
<path d="M17 10.9776H19C21 10.9776 22 9.96635 22 7.94388V5.9214C22 3.89893 21 2.8877 19 2.8877H17C15 2.8877 14 3.89893 14 5.9214V7.94388C14 9.96635 15 10.9776 17 10.9776Z" stroke="#8E9BAE" stroke-width="1.5" stroke-miterlimit="10" stroke-linecap="round" stroke-linejoin="round"/>
<path d="M5 23.1125H7C9 23.1125 10 22.1012 10 20.0788V18.0563C10 16.0338 9 15.0226 7 15.0226H5C3 15.0226 2 16.0338 2 18.0563V20.0788C2 22.1012 3 23.1125 5 23.1125Z" stroke="#8E9BAE" stroke-width="1.5" stroke-miterlimit="10" stroke-linecap="round" stroke-linejoin="round"/>
<path d="M6 10.9776C8.20914 10.9776 10 9.1666 10 6.93264C10 4.69868 8.20914 2.8877 6 2.8877C3.79086 2.8877 2 4.69868 2 6.93264C2 9.1666 3.79086 10.9776 6 10.9776Z" stroke="#8E9BAE" stroke-width="1.5" stroke-miterlimit="10" stroke-linecap="round" stroke-linejoin="round"/>
<path d="M18 23.1125C20.2091 23.1125 22 21.3015 22 19.0675C22 16.8336 20.2091 15.0226 18 15.0226C15.7909 15.0226 14 16.8336 14 19.0675C14 21.3015 15.7909 23.1125 18 23.1125Z" stroke="#8E9BAE" stroke-width="1.5" stroke-miterlimit="10" stroke-linecap="round" stroke-linejoin="round"/>
</svg>
