<svg width="22" height="22" viewBox="0 0 22 22" fill="none" xmlns="http://www.w3.org/2000/svg">
<path d="M9.0448 2.04468L9.04518 2.04437C10.1286 1.16441 11.8663 1.16955 12.9659 2.05545C12.966 2.05553 12.9661 2.05561 12.9662 2.05569L19.5119 7.35105C19.5125 7.35152 19.5131 7.352 19.5136 7.35247C19.8912 7.66436 20.2185 8.15285 20.4297 8.71192C20.6408 9.2705 20.7198 9.85668 20.6461 10.3455L19.3872 17.9638C19.3871 17.9642 19.387 17.9647 19.3869 17.9652C19.1362 19.4204 17.7389 20.6124 16.3 20.6124H5.69996C4.2398 20.6124 2.87367 19.4495 2.62308 17.9758C2.62303 17.9755 2.62297 17.9752 2.62292 17.9748L1.36327 10.3523L1.36308 10.3511C1.28054 9.85865 1.35472 9.2713 1.5653 8.71287C1.77593 8.15433 2.10732 7.66631 2.49393 7.35438L2.4948 7.35367L9.0448 2.04468ZM11 18.3259C11.6914 18.3259 12.25 17.753 12.25 17.0675V14.0338C12.25 13.3483 11.6914 12.7754 11 12.7754C10.3086 12.7754 9.74996 13.3483 9.74996 14.0338V17.0675C9.74996 17.753 10.3086 18.3259 11 18.3259Z" stroke="#8E9BAE"/>
</svg>
