<svg width="20" height="20" viewBox="0 0 20 20" fill="none" xmlns="http://www.w3.org/2000/svg">
<path d="M9.99994 14.4584C10.7501 14.4584 11.3583 13.8502 11.3583 13.1C11.3583 12.3498 10.7501 11.7417 9.99994 11.7417C9.24975 11.7417 8.6416 12.3498 8.6416 13.1C8.6416 13.8502 9.24975 14.4584 9.99994 14.4584Z" fill="#8E9BAE"/>
<path d="M15.2332 7.94169V6.90002C15.2332 4.65002 14.6915 1.66669 9.99984 1.66669C5.30817 1.66669 4.7665 4.65002 4.7665 6.90002V7.94169C2.43317 8.23335 1.6665 9.41669 1.6665 12.325V13.875C1.6665 17.2917 2.70817 18.3334 6.12484 18.3334H13.8748C17.2915 18.3334 18.3332 17.2917 18.3332 13.875V12.325C18.3332 9.41669 17.5665 8.23335 15.2332 7.94169ZM9.99984 15.6167C8.60817 15.6167 7.48317 14.4834 7.48317 13.1C7.48317 11.7084 8.6165 10.5834 9.99984 10.5834C11.3832 10.5834 12.5165 11.7167 12.5165 13.1C12.5165 14.4917 11.3915 15.6167 9.99984 15.6167ZM6.12484 7.86669C6.05817 7.86669 5.99984 7.86669 5.93317 7.86669V6.90002C5.93317 4.45835 6.62484 2.83335 9.99984 2.83335C13.3748 2.83335 14.0665 4.45835 14.0665 6.90002V7.87502C13.9998 7.87502 13.9415 7.87502 13.8748 7.87502H6.12484V7.86669Z" fill="#8E9BAE"/>
</svg>
