<svg width="32" height="32" viewBox="0 0 32 32" fill="none" xmlns="http://www.w3.org/2000/svg">
<path d="M16.1264 0.00264984C7.37485 -0.15575 0.16105 6.80725 0.00264984 15.5523C-0.15575 24.2973 6.80725 31.5177 15.5522 31.6761C24.2972 31.8345 31.5176 24.8715 31.676 16.1199C31.8344 7.37485 24.8714 0.15445 16.1264 0.00264984ZM15.6051 28.7061C8.51005 28.5741 2.84065 22.7001 2.97265 15.6051C3.09805 8.51005 8.97205 2.84065 16.067 2.96605C23.1686 3.09805 28.8314 8.97205 28.706 16.0671C28.5806 23.1621 22.7001 28.8315 15.6051 28.7061Z" fill="#345D9D"/>
<path d="M16.0486 4.28875C9.67963 4.17655 4.40623 9.26515 4.29403 15.6341C4.17523 21.9965 9.26383 27.2699 15.6328 27.3887C22.0018 27.5009 27.2752 22.4123 27.3874 16.0499C27.4996 9.68095 22.4176 4.40755 16.0486 4.28875ZM20.8072 22.5443H10.3L11.587 15.4229L10.0954 15.7331V14.5187L11.8114 14.1557L12.9268 8.03095H17.1178L16.1674 13.2449L17.6326 12.9347V14.1491L15.943 14.4989L14.9662 19.8845H21.586L20.8072 22.5443Z" fill="#345D9D"/>
</svg>
