<svg width="357" height="119" viewBox="0 0 357 119" fill="none" xmlns="http://www.w3.org/2000/svg">
<g opacity="0.5">
<g filter="url(#filter0_d_2_2385)">
<rect x="20" width="317" height="72" rx="10" fill="white"/>
</g>
<path d="M56 15C67.599 15 77 24.4028 77 36C77 47.599 67.599 57 56 57C44.4028 57 35 47.5981 35 36C35 24.4028 44.4028 15 56 15Z" fill="#2873FF"/>
<path d="M99.9727 33H94.3193V23.0059H99.9727V24.3867H95.9531V27.1074H99.7197V28.4746H95.9531V31.6123H99.9727V33ZM105.592 33H103.958V24.4072H101.019V23.0059H108.531V24.4072H105.592V33ZM117.951 33H116.311V28.4951H111.703V33H110.069V23.0059H111.703V27.0938H116.311V23.0059H117.951V33Z" fill="#1A2B41"/>
<rect x="93" y="45" width="60" height="8" rx="4" fill="url(#paint0_linear_2_2385)"/>
<path d="M279.373 33V29.402H278.281V28.506H279.373V27.358H278.281V26.462H279.373V23.004H280.829L282.159 26.462H283.811V23.004H284.917V26.462H286.009V27.358H284.917V28.506H286.009V29.402H284.917V33H283.447L282.117 29.402H280.465V33H279.373ZM280.437 26.462H281.025L280.437 24.726H280.381L280.437 26.462ZM280.465 28.506H281.781L281.361 27.358H280.437L280.465 28.506ZM282.901 28.506H283.839L283.811 27.358H282.481L282.901 28.506ZM283.811 31.026H283.867L283.825 29.402H283.237L283.811 31.026ZM286.795 28.7412C286.795 24.8311 288.388 22.876 291.573 22.876C292.075 22.876 292.498 22.9147 292.845 22.9922V24.332C292.498 24.2318 292.097 24.1816 291.642 24.1816C290.571 24.1816 289.766 24.4688 289.229 25.043C288.691 25.6172 288.399 26.5378 288.354 27.8047H288.436C288.65 27.4355 288.951 27.1507 289.338 26.9502C289.725 26.7451 290.181 26.6426 290.705 26.6426C291.612 26.6426 292.318 26.9206 292.824 27.4766C293.33 28.0326 293.583 28.7868 293.583 29.7393C293.583 30.7874 293.289 31.6169 292.701 32.2275C292.118 32.8337 291.32 33.1367 290.309 33.1367C289.593 33.1367 288.971 32.9658 288.442 32.624C287.914 32.2777 287.506 31.7764 287.219 31.1201C286.936 30.4593 286.795 29.6663 286.795 28.7412ZM290.281 31.8105C290.833 31.8105 291.257 31.6328 291.553 31.2773C291.854 30.9219 292.004 30.4137 292.004 29.7529C292.004 29.1787 291.863 28.7275 291.58 28.3994C291.302 28.0713 290.883 27.9072 290.322 27.9072C289.976 27.9072 289.657 27.9824 289.365 28.1328C289.074 28.2786 288.843 28.4814 288.675 28.7412C288.506 28.9964 288.422 29.2585 288.422 29.5273C288.422 30.1699 288.595 30.7122 288.941 31.1543C289.292 31.5918 289.739 31.8105 290.281 31.8105ZM295.06 32.1455C295.06 31.8128 295.146 31.5576 295.319 31.3799C295.493 31.2021 295.743 31.1133 296.071 31.1133C296.404 31.1133 296.657 31.2067 296.83 31.3936C297.003 31.5758 297.09 31.8265 297.09 32.1455C297.09 32.4691 297.001 32.7266 296.823 32.918C296.65 33.1048 296.399 33.1982 296.071 33.1982C295.743 33.1982 295.493 33.1048 295.319 32.918C295.146 32.7311 295.06 32.4736 295.06 32.1455ZM305.382 27.2715C305.382 29.2402 304.985 30.71 304.192 31.6807C303.399 32.6514 302.205 33.1367 300.61 33.1367C300.004 33.1367 299.569 33.1003 299.305 33.0273V31.6807C299.71 31.7946 300.118 31.8516 300.528 31.8516C301.613 31.8516 302.422 31.5599 302.955 30.9766C303.488 30.3932 303.78 29.4772 303.83 28.2285H303.748C303.479 28.6387 303.153 28.9349 302.771 29.1172C302.392 29.2995 301.948 29.3906 301.438 29.3906C300.553 29.3906 299.858 29.1149 299.353 28.5635C298.847 28.012 298.594 27.2555 298.594 26.2939C298.594 25.2503 298.885 24.4209 299.469 23.8057C300.057 23.1859 300.856 22.876 301.868 22.876C302.579 22.876 303.199 23.0492 303.728 23.3955C304.256 23.7419 304.664 24.2454 304.951 24.9062C305.238 25.5625 305.382 26.3509 305.382 27.2715ZM301.896 24.209C301.34 24.209 300.913 24.3913 300.617 24.7559C300.321 25.1159 300.173 25.624 300.173 26.2803C300.173 26.8499 300.31 27.2988 300.583 27.627C300.861 27.9505 301.28 28.1123 301.841 28.1123C302.383 28.1123 302.839 27.9505 303.208 27.627C303.577 27.3034 303.762 26.9251 303.762 26.4922C303.762 26.0866 303.682 25.7083 303.522 25.3574C303.368 25.002 303.149 24.7217 302.866 24.5166C302.584 24.3115 302.26 24.209 301.896 24.209ZM309.996 22.876C310.944 22.876 311.694 23.0947 312.245 23.5322C312.797 23.9652 313.072 24.5462 313.072 25.2754C313.072 26.3008 312.457 27.1165 311.227 27.7227C312.01 28.1146 312.566 28.527 312.895 28.96C313.227 29.3929 313.394 29.876 313.394 30.4092C313.394 31.234 313.09 31.8949 312.484 32.3916C311.878 32.8883 311.058 33.1367 310.023 33.1367C308.939 33.1367 308.098 32.9043 307.501 32.4395C306.904 31.9746 306.605 31.3161 306.605 30.4639C306.605 29.9079 306.76 29.4089 307.07 28.9668C307.385 28.5202 307.897 28.1237 308.608 27.7773C307.998 27.4128 307.562 27.0277 307.303 26.6221C307.043 26.2165 306.913 25.7607 306.913 25.2549C306.913 24.5303 307.198 23.9538 307.768 23.5254C308.337 23.0924 309.08 22.876 309.996 22.876ZM308.144 30.4092C308.144 30.8831 308.31 31.2523 308.643 31.5166C308.975 31.7764 309.426 31.9062 309.996 31.9062C310.584 31.9062 311.04 31.7718 311.363 31.5029C311.691 31.2295 311.855 30.8604 311.855 30.3955C311.855 30.0264 311.705 29.6891 311.404 29.3838C311.104 29.0785 310.648 28.7959 310.037 28.5361L309.839 28.4473C309.237 28.7116 308.804 29.0033 308.54 29.3223C308.276 29.6367 308.144 29.999 308.144 30.4092ZM309.982 24.1133C309.527 24.1133 309.16 24.2272 308.882 24.4551C308.604 24.6784 308.465 24.9837 308.465 25.3711C308.465 25.6081 308.515 25.82 308.615 26.0068C308.715 26.1937 308.861 26.3646 309.053 26.5195C309.244 26.6699 309.568 26.8522 310.023 27.0664C310.57 26.8249 310.955 26.5719 311.179 26.3076C311.407 26.0387 311.521 25.7266 311.521 25.3711C311.521 24.9837 311.379 24.6784 311.097 24.4551C310.819 24.2272 310.447 24.1133 309.982 24.1133ZM315.752 33L319.703 24.4346H314.508V23.0195H321.419V24.1406L317.488 33H315.752Z" fill="#1A2B41"/>
<rect x="262" y="45" width="60" height="8" rx="4" fill="url(#paint1_linear_2_2385)"/>
</g>
<defs>
<filter id="filter0_d_2_2385" x="0" y="0" width="357" height="119" filterUnits="userSpaceOnUse" color-interpolation-filters="sRGB">
<feFlood flood-opacity="0" result="BackgroundImageFix"/>
<feColorMatrix in="SourceAlpha" type="matrix" values="0 0 0 0 0 0 0 0 0 0 0 0 0 0 0 0 0 0 127 0" result="hardAlpha"/>
<feOffset dy="27"/>
<feGaussianBlur stdDeviation="10"/>
<feComposite in2="hardAlpha" operator="out"/>
<feColorMatrix type="matrix" values="0 0 0 0 0 0 0 0 0 0 0 0 0 0 0 0 0 0 0.02 0"/>
<feBlend mode="normal" in2="BackgroundImageFix" result="effect1_dropShadow_2_2385"/>
<feBlend mode="normal" in="SourceGraphic" in2="effect1_dropShadow_2_2385" result="shape"/>
</filter>
<linearGradient id="paint0_linear_2_2385" x1="93" y1="49" x2="153" y2="49" gradientUnits="userSpaceOnUse">
<stop stop-color="#011154"/>
<stop offset="1" stop-color="#011154" stop-opacity="0"/>
</linearGradient>
<linearGradient id="paint1_linear_2_2385" x1="322" y1="49" x2="256" y2="49" gradientUnits="userSpaceOnUse">
<stop stop-color="#D23030"/>
<stop offset="1" stop-color="#D23030" stop-opacity="0"/>
</linearGradient>
</defs>
</svg>
