<svg width="40" height="40" viewBox="0 0 40 40" fill="none" xmlns="http://www.w3.org/2000/svg">
<rect width="40" height="40" rx="8" fill="#000000"/>
<path d="M22.85 11.95V15.75H21.35V11.95C21.35 11.68 21.11 11.55 20.95 11.55C20.9 11.55 20.85 11.56 20.8 11.58L12.87 14.57C12.34 14.77 12 15.27 12 15.84V16.51C11.09 17.19 10.5 18.28 10.5 19.51V15.84C10.5 14.65 11.23 13.59 12.34 13.17L20.28 10.17C20.5 10.09 20.73 10.05 20.95 10.05C21.95 10.05 22.85 10.86 22.85 11.95Z" fill="white"/>
<path d="M29.5 22.5V23.5C29.5 23.77 29.29 23.99 29.01 24H27.55C27.02 24 26.54 23.61 26.5 23.09C26.47 22.78 26.59 22.49 26.79 22.29C26.97 22.1 27.22 22 27.49 22H29C29.29 22.01 29.5 22.23 29.5 22.5Z" fill="white"/>
<path d="M27.48 20.95H28.5C29.05 20.95 29.5 20.5 29.5 19.95V19.51C29.5 17.44 27.81 15.75 25.74 15.75H14.26C13.41 15.75 12.63 16.03 12 16.51C11.09 17.19 10.5 18.28 10.5 19.51V26.24C10.5 28.31 12.19 30 14.26 30H25.74C27.81 30 29.5 28.31 29.5 26.24V26.05C29.5 25.5 29.05 25.05 28.5 25.05H27.63C26.67 25.05 25.75 24.46 25.5 23.53C25.29 22.77 25.54 22.04 26.04 21.55C26.41 21.17 26.92 20.95 27.48 20.95ZM22 20.75H15C14.59 20.75 14.25 20.41 14.25 20C14.25 19.59 14.59 19.25 15 19.25H22C22.41 19.25 22.75 19.59 22.75 20C22.75 20.41 22.41 20.75 22 20.75Z" fill="white"/>
</svg>
