<svg width="28" height="24" viewBox="0 0 28 24" fill="none" xmlns="http://www.w3.org/2000/svg">
<path d="M3.34303 16.9932C3.34806 17.2521 3.47813 17.4921 3.69073 17.6381C3.90962 17.7888 4.18018 17.8185 4.4184 17.7333C7.34505 16.6869 10.6096 16.5656 13.5784 17.4841C16.8786 18.5044 20.5377 18.4434 23.79 17.281C24.1159 17.1643 24.3305 16.8522 24.3228 16.5061L24.0622 6.83699C24.0572 6.57807 23.9271 6.33809 23.7145 6.19204C23.5007 6.04478 23.2313 6.00972 22.9869 6.0968C20.0602 7.14328 16.8129 7.21374 13.8443 6.29453C10.5449 5.27453 6.9365 5.3527 3.68402 6.51585C3.35742 6.6323 3.14275 6.9444 3.15051 7.29051L3.34303 16.9932ZM18.5199 10.9804C18.9641 10.9708 19.332 11.3231 19.3417 11.7672C19.3513 12.2115 18.9991 12.5794 18.5548 12.589C18.1106 12.5987 17.7427 12.2464 17.733 11.8022C17.7234 11.3579 18.0757 10.9901 18.5199 10.9804ZM13.6591 9.47656C14.9896 9.44801 16.096 10.5074 16.1241 11.837C16.1537 13.1671 15.0943 14.2734 13.7637 14.302C12.4376 14.3313 11.3284 13.2832 11.2986 11.9416C11.2691 10.6115 12.3284 9.5051 13.6591 9.47656ZM8.86809 11.19C9.31226 11.1804 9.6802 11.5327 9.68989 11.9769C9.69949 12.4211 9.34721 12.789 8.90304 12.7987C8.45877 12.8083 8.09088 12.456 8.08124 12.0118C8.07158 11.5675 8.42388 11.1996 8.86809 11.19Z" fill="#FB5E04"/>
<path d="M13.7288 12.694C14.1776 12.6835 14.5245 12.3131 14.5158 11.8718C14.5056 11.4355 14.1502 11.0779 13.6936 11.0849C13.2448 11.0953 12.8979 11.4657 12.9066 11.907C12.9169 12.3472 13.279 12.7039 13.7288 12.694Z" fill="#FB5E04"/>
</svg>
