<svg width="40" height="41" viewBox="0 0 40 41" fill="none" xmlns="http://www.w3.org/2000/svg">
<rect y="0.182129" width="40" height="40" rx="8" fill="#10192D"/>
<path d="M21.82 30.1821H18.18C17.7101 30.1821 17.3035 29.8551 17.203 29.3961L16.796 27.5121C16.253 27.2742 15.7382 26.9768 15.261 26.6251L13.424 27.2101C12.976 27.353 12.489 27.1644 12.254 26.7571L10.43 23.6061C10.1976 23.1986 10.2776 22.6846 10.623 22.3671L12.048 21.0671C11.9832 20.4782 11.9832 19.884 12.048 19.2951L10.623 17.9981C10.2771 17.6805 10.197 17.1658 10.43 16.7581L12.25 13.6051C12.485 13.1978 12.972 13.0093 13.42 13.1521L15.257 13.7371C15.501 13.5563 15.7551 13.3894 16.018 13.2371C16.2703 13.0948 16.53 12.966 16.796 12.8511L17.204 10.9691C17.304 10.5101 17.7102 10.1826 18.18 10.1821H21.82C22.2898 10.1826 22.6959 10.5101 22.796 10.9691L23.208 12.8521C23.4888 12.9756 23.7622 13.1152 24.027 13.2701C24.2743 13.4129 24.5133 13.5695 24.743 13.7391L26.581 13.1541C27.0287 13.0118 27.5151 13.2003 27.75 13.6071L29.57 16.7601C29.8024 17.1676 29.7223 17.6816 29.377 17.9991L27.952 19.2991C28.0168 19.888 28.0168 20.4822 27.952 21.0711L29.377 22.3711C29.7223 22.6886 29.8024 23.2026 29.57 23.6101L27.75 26.7631C27.5151 27.17 27.0287 27.3585 26.581 27.2161L24.743 26.6311C24.5104 26.8024 24.2687 26.961 24.019 27.1061C23.7568 27.258 23.4864 27.3952 23.209 27.5171L22.796 29.3961C22.6955 29.8548 22.2895 30.1817 21.82 30.1821ZM19.996 16.1821C17.7868 16.1821 15.996 17.973 15.996 20.1821C15.996 22.3913 17.7868 24.1821 19.996 24.1821C22.2051 24.1821 23.996 22.3913 23.996 20.1821C23.996 17.973 22.2051 16.1821 19.996 16.1821Z" fill="white"/>
</svg>
