<svg width="262" height="250" viewBox="0 0 262 250" fill="none" xmlns="http://www.w3.org/2000/svg">
<path d="M127.092 39.7727L146.403 19.3181" stroke="#F1F5F9" stroke-width="3.40789" stroke-linecap="round"/>
<path d="M240.688 120.455L260 100" stroke="#FB5E04" stroke-width="3.40789" stroke-linecap="round"/>
<path d="M194.114 239.773L213.426 219.318" stroke="#04A1FB" stroke-width="3.40789" stroke-linecap="round"/>
<path d="M5.54395 110.227L24.8553 89.7727" stroke="#FACC15" stroke-width="3.40789" stroke-linecap="round"/>
<path d="M56.6621 220.455L75.9735 200" stroke="#04A1FB" stroke-width="3.40789" stroke-linecap="round"/>
<ellipse cx="95.2851" cy="4.54545" rx="4.54386" ry="4.54545" fill="#FB5E04"/>
<ellipse cx="74.8378" cy="46.5909" rx="4.54386" ry="4.54545" fill="#F1F5F9"/>
<ellipse cx="39.623" cy="132.955" rx="4.54386" ry="4.54545" fill="#F1F5F9"/>
<ellipse cx="4.54386" cy="189.273" rx="4.54386" ry="4.54545" fill="#22C36B"/>
<ellipse cx="106.644" cy="245.455" rx="4.54386" ry="4.54545" fill="#F1F5F9"/>
<ellipse cx="177.074" cy="200" rx="5.67982" ry="5.68182" fill="#FACC15"/>
<ellipse cx="230.465" cy="171.591" rx="5.67982" ry="5.68182" fill="#F1F5F9"/>
<ellipse cx="207.881" cy="42.6818" rx="5.67982" ry="5.68182" fill="#22C36B"/>
<ellipse cx="202.066" cy="95.4545" rx="3.40789" ry="3.40909" fill="#F1F5F9"/>
<ellipse cx="15.7673" cy="47.7273" rx="3.40789" ry="3.40909" fill="#04A1FB"/>
<ellipse cx="130.5" cy="126.136" rx="56.7982" ry="56.8182" fill="#22C36B"/>
<path d="M150.805 113.211L124.962 139.062L112.041 126.137" stroke="white" stroke-width="5.67982" stroke-linecap="round" stroke-linejoin="round"/>
</svg>
