<svg width="315" height="267" viewBox="0 0 315 267" fill="none" xmlns="http://www.w3.org/2000/svg">
<rect x="29.8708" width="244.162" height="142.621" rx="23.2535" fill="url(#paint0_linear_1067_7301)"/>
<mask id="mask0_1067_7301" style="mask-type:alpha" maskUnits="userSpaceOnUse" x="29" y="0" width="246" height="143">
<rect x="29.8708" width="244.162" height="142.621" rx="23.2535" fill="#ED713C"/>
</mask>
<g mask="url(#mask0_1067_7301)">
<ellipse opacity="0.1" cx="48.8613" cy="165.1" rx="124.406" ry="87.5882" fill="black"/>
<ellipse opacity="0.08" cx="255.042" cy="-22.4785" rx="124.406" ry="87.5882" fill="black"/>
</g>
<path d="M214.376 126.307C216.938 126.307 218.142 124.193 218.142 121.463C218.142 118.761 216.938 116.647 214.376 116.647C211.8 116.647 210.596 118.761 210.596 121.463C210.596 124.193 211.8 126.307 214.376 126.307ZM214.39 125.145C212.528 125.145 211.884 123.619 211.884 121.463C211.884 119.335 212.528 117.795 214.39 117.795C216.238 117.795 216.868 119.335 216.868 121.463C216.868 123.619 216.238 125.145 214.39 125.145ZM222.998 126.307C225.322 126.307 226.61 124.669 226.61 121.757V121.435C226.61 117.725 225.14 116.647 223.096 116.647C221.178 116.647 219.862 118.033 219.862 119.853C219.862 121.561 220.702 122.947 222.62 122.947C224.132 122.947 225.168 122.037 225.322 120.455V121.477C225.322 124.403 224.216 125.131 223.096 125.131C222.088 125.131 221.388 124.515 221.024 123.577L219.988 124.445C220.534 125.551 221.57 126.307 222.998 126.307ZM223.096 121.813C221.752 121.813 221.136 121.015 221.136 119.783C221.136 118.663 221.906 117.809 223.124 117.809C224.37 117.809 225.168 118.453 225.168 119.979C225.168 121.197 224.314 121.813 223.096 121.813ZM229.414 126.727L233.054 116.227H231.962L228.322 126.727H229.414ZM241.362 126.167V125.089H237.484L236.336 125.173L237.344 124.319L238.8 122.947C239.654 122.135 241.124 120.735 241.124 119.195C241.124 117.753 240.298 116.647 238.464 116.647C236.308 116.647 234.838 118.131 235.034 119.979L236.168 120.693C235.93 118.831 236.812 117.823 238.38 117.823C239.444 117.823 239.864 118.523 239.864 119.279C239.864 120.315 239.066 121.183 238.044 122.191L234.978 125.215V126.167H241.362ZM246.745 126.307C248.789 126.307 250.007 125.061 250.007 123.157C250.007 121.351 249.041 120.049 247.179 120.049C245.947 120.049 245.205 120.707 244.911 121.533L245.163 117.935H249.293V116.787H243.959L243.665 122.163L244.869 122.289L244.883 122.135C244.939 121.505 245.639 121.057 246.661 121.057C247.683 121.057 248.719 121.631 248.719 123.157C248.719 124.375 248.075 125.145 246.787 125.145C245.471 125.145 244.631 124.361 244.295 123.143L243.315 124.179C243.791 125.369 245.065 126.307 246.745 126.307Z" fill="white"/>
<path opacity="0.9" d="M57.7723 126.307C59.8163 126.307 61.0343 125.061 61.0343 123.157C61.0343 121.351 60.0683 120.049 58.2063 120.049C56.9743 120.049 56.2323 120.707 55.9383 121.533L56.1903 117.935H60.3203V116.787H54.9863L54.6923 122.163L55.8963 122.289L55.9103 122.135C55.9663 121.505 56.6663 121.057 57.6883 121.057C58.7103 121.057 59.7463 121.631 59.7463 123.157C59.7463 124.375 59.1023 125.145 57.8143 125.145C56.4983 125.145 55.6583 124.361 55.3223 123.143L54.3423 124.179C54.8183 125.369 56.0923 126.307 57.7723 126.307ZM69.2624 126.167V125.089H65.3844L64.2364 125.173L65.2444 124.319L66.7004 122.947C67.5544 122.135 69.0244 120.735 69.0244 119.195C69.0244 117.753 68.1984 116.647 66.3644 116.647C64.2084 116.647 62.7384 118.131 62.9344 119.979L64.0684 120.693C63.8304 118.831 64.7124 117.823 66.2804 117.823C67.3444 117.823 67.7644 118.523 67.7644 119.279C67.7644 120.315 66.9664 121.183 65.9444 122.191L62.8784 125.215V126.167H69.2624ZM74.4304 126.307C76.7544 126.307 77.8744 125.271 77.8744 123.759C77.8744 122.807 77.2864 121.785 75.7464 121.407C76.9504 121.211 77.5944 120.301 77.5944 119.209C77.5944 117.809 76.4744 116.647 74.4304 116.647C72.3724 116.647 71.2664 117.809 71.2664 119.223C71.2664 120.301 71.8264 121.211 73.0444 121.407C71.5044 121.785 70.9864 122.807 70.9864 123.759C70.9864 125.271 72.0924 126.307 74.4304 126.307ZM74.4304 120.917C73.0724 120.917 72.5544 120.259 72.5544 119.363C72.5544 118.551 73.0864 117.795 74.4304 117.795C75.7744 117.795 76.3204 118.551 76.3204 119.363C76.3204 120.259 75.6484 120.917 74.4304 120.917ZM74.4304 125.159C72.7924 125.159 72.4004 124.389 72.4004 123.549C72.4004 122.611 73.0724 121.897 74.4304 121.897C75.7884 121.897 76.4604 122.611 76.4604 123.549C76.4604 124.389 76.0684 125.159 74.4304 125.159ZM86.2721 126.167V125.089H82.3941L81.2461 125.173L82.2541 124.319L83.7101 122.947C84.5641 122.135 86.0341 120.735 86.0341 119.195C86.0341 117.753 85.2081 116.647 83.3741 116.647C81.2181 116.647 79.7481 118.131 79.9441 119.979L81.0781 120.693C80.8401 118.831 81.7221 117.823 83.2901 117.823C84.3541 117.823 84.7741 118.523 84.7741 119.279C84.7741 120.315 83.9761 121.183 82.9541 122.191L79.8881 125.215V126.167H86.2721ZM95.4174 126.307C97.4614 126.307 98.7494 125.271 98.7494 123.745C98.7494 122.527 98.1334 121.463 96.4254 121.323C97.6154 121.155 98.3294 120.161 98.3294 119.195C98.3294 117.991 97.5174 116.647 95.3474 116.647C93.6674 116.647 92.4354 117.655 92.0434 118.929L93.0794 119.797C93.2474 118.509 94.1154 117.823 95.3194 117.823C96.5234 117.823 97.0554 118.565 97.0554 119.461C97.0554 120.441 96.4674 120.945 95.2914 120.945H93.7514V121.995H95.2774C96.5794 121.995 97.4614 122.499 97.4614 123.619C97.4614 124.571 96.7754 125.145 95.5714 125.145C93.8074 125.145 93.2054 124.193 92.9254 122.765L91.8894 123.689C92.1974 125.103 93.3874 126.307 95.4174 126.307ZM106.401 126.167V123.927H108.081V122.849H106.401V116.787H105.183L100.465 122.975V123.927H105.183V126.167H106.401ZM101.851 122.849L105.183 118.551V122.849H101.851ZM113.225 126.307C115.269 126.307 116.487 125.061 116.487 123.157C116.487 121.351 115.521 120.049 113.659 120.049C112.427 120.049 111.685 120.707 111.391 121.533L111.643 117.935H115.773V116.787H110.439L110.145 122.163L111.349 122.289L111.363 122.135C111.419 121.505 112.119 121.057 113.141 121.057C114.163 121.057 115.199 121.631 115.199 123.157C115.199 124.375 114.555 125.145 113.267 125.145C111.951 125.145 111.111 124.361 110.775 123.143L109.795 124.179C110.271 125.369 111.545 126.307 113.225 126.307ZM121.934 126.307C123.852 126.307 125.168 124.921 125.168 123.101C125.168 121.393 124.328 120.007 122.41 120.007C120.884 120.007 119.862 120.917 119.708 122.499V121.477C119.708 118.551 120.814 117.823 121.948 117.823C122.942 117.823 123.642 118.439 123.992 119.377L125.042 118.509C124.496 117.403 123.46 116.647 122.046 116.647C119.736 116.647 118.42 118.299 118.42 121.351V121.519C118.42 125.229 119.89 126.307 121.934 126.307ZM121.906 125.145C120.646 125.145 119.848 124.501 119.848 122.975C119.848 121.757 120.716 121.141 121.934 121.141C123.278 121.141 123.88 121.939 123.88 123.171C123.88 124.291 123.124 125.145 121.906 125.145ZM133.259 126.167C133.259 122.177 134.505 120.147 136.577 118.173V116.787H130.431V117.935H135.471C133.931 119.419 131.929 121.505 131.929 126.167H133.259ZM140.946 126.307C143.27 126.307 144.39 125.271 144.39 123.759C144.39 122.807 143.802 121.785 142.262 121.407C143.466 121.211 144.11 120.301 144.11 119.209C144.11 117.809 142.99 116.647 140.946 116.647C138.888 116.647 137.782 117.809 137.782 119.223C137.782 120.301 138.342 121.211 139.56 121.407C138.02 121.785 137.502 122.807 137.502 123.759C137.502 125.271 138.608 126.307 140.946 126.307ZM140.946 120.917C139.588 120.917 139.07 120.259 139.07 119.363C139.07 118.551 139.602 117.795 140.946 117.795C142.29 117.795 142.836 118.551 142.836 119.363C142.836 120.259 142.164 120.917 140.946 120.917ZM140.946 125.159C139.308 125.159 138.916 124.389 138.916 123.549C138.916 122.611 139.588 121.897 140.946 121.897C142.304 121.897 142.976 122.611 142.976 123.549C142.976 124.389 142.584 125.159 140.946 125.159ZM149.341 126.307C151.665 126.307 152.953 124.669 152.953 121.757V121.435C152.953 117.725 151.483 116.647 149.439 116.647C147.521 116.647 146.205 118.033 146.205 119.853C146.205 121.561 147.045 122.947 148.963 122.947C150.475 122.947 151.511 122.037 151.665 120.455V121.477C151.665 124.403 150.559 125.131 149.439 125.131C148.431 125.131 147.731 124.515 147.367 123.577L146.331 124.445C146.877 125.551 147.913 126.307 149.341 126.307ZM149.439 121.813C148.095 121.813 147.479 121.015 147.479 119.783C147.479 118.663 148.249 117.809 149.467 117.809C150.713 117.809 151.511 118.453 151.511 119.979C151.511 121.197 150.657 121.813 149.439 121.813ZM158.796 126.307C161.358 126.307 162.562 124.193 162.562 121.463C162.562 118.761 161.358 116.647 158.796 116.647C156.22 116.647 155.016 118.761 155.016 121.463C155.016 124.193 156.22 126.307 158.796 126.307ZM158.81 125.145C156.948 125.145 156.304 123.619 156.304 121.463C156.304 119.335 156.948 117.795 158.81 117.795C160.658 117.795 161.288 119.335 161.288 121.463C161.288 123.619 160.658 125.145 158.81 125.145ZM170.735 126.167V116.787H169.713C169.265 117.403 168.593 117.627 167.837 117.627V118.467H169.517V126.167H170.735ZM179.397 126.167V125.089H175.519L174.371 125.173L175.379 124.319L176.835 122.947C177.689 122.135 179.159 120.735 179.159 119.195C179.159 117.753 178.333 116.647 176.499 116.647C174.343 116.647 172.873 118.131 173.069 119.979L174.203 120.693C173.965 118.831 174.847 117.823 176.415 117.823C177.479 117.823 177.899 118.523 177.899 119.279C177.899 120.315 177.101 121.183 176.079 122.191L173.013 125.215V126.167H179.397ZM184.565 126.307C186.889 126.307 188.009 125.271 188.009 123.759C188.009 122.807 187.421 121.785 185.881 121.407C187.085 121.211 187.729 120.301 187.729 119.209C187.729 117.809 186.609 116.647 184.565 116.647C182.507 116.647 181.401 117.809 181.401 119.223C181.401 120.301 181.961 121.211 183.179 121.407C181.639 121.785 181.121 122.807 181.121 123.759C181.121 125.271 182.227 126.307 184.565 126.307ZM184.565 120.917C183.207 120.917 182.689 120.259 182.689 119.363C182.689 118.551 183.221 117.795 184.565 117.795C185.909 117.795 186.455 118.551 186.455 119.363C186.455 120.259 185.783 120.917 184.565 120.917ZM184.565 125.159C182.927 125.159 182.535 124.389 182.535 123.549C182.535 122.611 183.207 121.897 184.565 121.897C185.923 121.897 186.595 122.611 186.595 123.549C186.595 124.389 186.203 125.159 184.565 125.159ZM192.96 126.307C195.284 126.307 196.572 124.669 196.572 121.757V121.435C196.572 117.725 195.102 116.647 193.058 116.647C191.14 116.647 189.824 118.033 189.824 119.853C189.824 121.561 190.664 122.947 192.582 122.947C194.094 122.947 195.13 122.037 195.284 120.455V121.477C195.284 124.403 194.178 125.131 193.058 125.131C192.05 125.131 191.35 124.515 190.986 123.577L189.95 124.445C190.496 125.551 191.532 126.307 192.96 126.307ZM193.058 121.813C191.714 121.813 191.098 121.015 191.098 119.783C191.098 118.663 191.868 117.809 193.086 117.809C194.332 117.809 195.13 118.453 195.13 119.979C195.13 121.197 194.276 121.813 193.058 121.813Z" fill="white"/>
<path d="M202.839 23.258C202.707 23.2963 202.574 23.3355 202.44 23.3733C201.287 23.7027 200.13 24.0244 198.981 24.3635C197.991 24.6521 197.02 25.0044 196.075 25.4182C195.222 25.7951 194.401 26.2307 193.639 26.7713C193.156 27.1158 192.762 27.5465 192.515 28.0886C192.383 28.3615 192.321 28.6622 192.334 28.9645C192.348 29.3298 192.498 29.6767 192.756 29.9373C193.119 30.3123 193.55 30.5807 194.026 30.7856C194.543 30.9993 195.08 31.163 195.629 31.2744C196.143 31.3868 196.659 31.492 197.174 31.6005C197.191 31.6034 197.206 31.6119 197.218 31.6247C196.991 31.6693 196.766 31.7187 196.536 31.7579C196.007 31.8512 195.47 31.8943 194.933 31.8868C194.172 31.8718 193.431 31.755 192.733 31.4358C192.212 31.2065 191.758 30.8522 191.409 30.4048C191.155 30.0716 190.991 29.6791 190.933 29.2649C190.819 28.5062 191.004 27.8062 191.368 27.1449C191.752 26.4463 192.303 25.909 192.981 25.486C194.122 24.7813 195.363 24.2498 196.662 23.9091C197.348 23.7233 198.046 23.5815 198.75 23.4847C199.219 23.4212 199.689 23.3684 200.159 23.3307C200.63 23.2929 201.095 23.2715 201.563 23.2585C201.99 23.2478 202.414 23.258 202.839 23.258Z" fill="white"/>
<path d="M195.165 28.8303C195.438 28.7818 195.71 28.7218 195.984 28.6782C196.468 28.5991 196.958 28.5634 197.449 28.5716C198.21 28.5871 198.951 28.7033 199.649 29.0231C200.169 29.2528 200.624 29.6076 200.972 30.0555C201.226 30.3891 201.389 30.7817 201.447 31.1959C201.56 31.9522 201.375 32.6493 201.013 33.3101C200.636 33.9961 200.099 34.5295 199.436 34.9481C198.349 35.6263 197.17 36.1453 195.935 36.4892C195.178 36.7061 194.407 36.868 193.626 36.9737C193.106 37.0434 192.584 37.0967 192.06 37.1403C191.648 37.1747 191.232 37.1888 190.819 37.2004C190.396 37.2106 189.971 37.2028 189.545 37.2028C189.623 37.1796 189.702 37.1544 189.781 37.1331C190.796 36.8463 191.812 36.5638 192.825 36.2717C193.77 35.9994 194.704 35.6956 195.618 35.3323C196.628 34.9307 197.598 34.4535 198.506 33.8547C198.922 33.58 199.295 33.2622 199.586 32.8562C199.809 32.5471 199.973 32.2123 200.03 31.833C200.09 31.4865 200.03 31.13 199.86 30.8219C199.757 30.6388 199.604 30.491 199.448 30.3496C199.069 30.0075 198.627 29.774 198.154 29.5909C197.614 29.3816 197.054 29.245 196.489 29.1258C196.061 29.0352 195.634 28.947 195.205 28.8579C195.193 28.855 195.18 28.8506 195.167 28.8472L195.165 28.8303Z" fill="white"/>
<path d="M202.11 39.4155C204.324 39.4155 206.07 38.2635 206.07 36.1575C206.07 33.9435 204.396 33.2235 202.542 32.7915L201.12 32.4495C199.554 32.0715 198.672 31.5315 198.672 30.2175C198.672 28.9035 199.842 28.1475 201.3 28.1475C203.046 28.1475 204.342 28.9395 204.9 30.6315L205.89 29.8395C205.188 28.0215 203.532 27.0315 201.318 27.0315C199.284 27.0315 197.43 28.1655 197.43 30.3075C197.43 32.4135 199.05 33.1515 200.742 33.5475L202.056 33.8355C203.892 34.2675 204.882 34.7715 204.882 36.1935C204.882 37.7235 203.586 38.3175 202.11 38.3175C200.526 38.3175 198.564 37.5615 197.988 35.4915L197.07 36.2835C197.844 38.5155 199.932 39.4155 202.11 39.4155ZM210.841 39.2535L212.677 33.4935L213.181 31.6035L213.667 33.4935L215.503 39.2535H217.033L219.391 30.6135H218.059L216.655 36.4455L216.259 38.3715L215.737 36.4455L213.901 30.6135H212.443L210.607 36.4455L210.085 38.3715L209.689 36.4455L208.267 30.6135H206.953L209.311 39.2535H210.841ZM222.138 29.0655V27.1935H220.95V29.0655H222.138ZM222.138 39.2535V30.6135H220.95V39.2535H222.138ZM227.485 39.4515C228.601 39.4515 229.447 38.9295 229.825 38.2995L229.411 37.1475C229.123 37.7595 228.493 38.3175 227.719 38.3175C226.963 38.3175 226.315 37.9755 226.315 36.7335V31.5315H229.213V30.6135H226.315V28.4895L225.145 29.3715V30.6135H223.741V31.5315H225.145V37.0575C225.145 38.6235 226.171 39.4515 227.485 39.4515ZM234.287 39.4335C236.447 39.4335 237.797 38.1735 238.139 36.4275L237.005 35.9415C236.825 37.3995 235.961 38.4435 234.305 38.4435C232.595 38.4435 231.461 37.2195 231.461 34.9335C231.461 32.6295 232.595 31.4055 234.305 31.4055C235.961 31.4055 236.825 32.4675 237.005 33.9255L238.139 33.4395C237.797 31.6935 236.447 30.4335 234.305 30.4335C231.857 30.4335 230.255 32.1255 230.255 34.9335C230.255 37.7415 231.857 39.4335 234.287 39.4335ZM241.298 39.2535V34.2495C241.298 32.7555 242.054 31.4235 243.908 31.4235C245.384 31.4235 245.996 32.2875 245.996 33.6915V39.2535H247.184V33.4215C247.184 31.4415 246.068 30.4335 244.394 30.4335C242.63 30.4335 241.604 31.6215 241.298 33.0255V27.1935H240.11V39.2535H241.298ZM251.382 39.4335C253.11 39.4335 254.226 38.1015 254.514 36.8595V37.7775C254.514 38.8755 255.09 39.2535 255.954 39.2535H256.764V38.1915H256.26C255.846 38.1915 255.648 38.0295 255.648 37.5795V33.5295C255.648 31.6035 254.604 30.4335 252.588 30.4335C250.752 30.4335 249.492 31.4595 248.952 32.3595L249.78 33.1875C250.23 32.2335 251.166 31.4955 252.462 31.4955C253.866 31.4955 254.478 32.2515 254.478 33.5475V33.6195L251.202 35.1135C249.996 35.6535 249.15 36.3735 249.15 37.5075C249.15 38.6595 249.96 39.4335 251.382 39.4335ZM250.338 37.3455C250.338 36.6975 250.77 36.2655 251.706 35.8335L254.514 34.5015V36.0315C254.514 37.2015 253.326 38.4435 251.724 38.4435C250.878 38.4435 250.338 38.0655 250.338 37.3455Z" fill="white"/>
<path d="M63.1203 69.106V66.558C66.4523 66.362 68.8603 64.43 68.8603 61.378C68.8603 57.682 65.9483 56.646 63.2883 56.002L63.1203 55.974V49.842C64.6883 50.262 65.8923 51.326 66.5643 53.202L68.6083 51.578C67.6563 49.282 65.6683 47.854 63.1203 47.434V44.746H61.2163V47.294C57.9963 47.35 55.1403 49.198 55.1403 52.558C55.1403 56.086 57.9683 57.206 60.4603 57.766L61.2163 57.934V64.178C59.1723 63.842 57.1003 62.666 56.3723 60.146L54.5243 61.77C55.6163 64.822 58.2203 66.222 61.2163 66.53V69.106H63.1203ZM57.7163 52.39C57.7163 50.682 59.2003 49.646 61.2163 49.618V55.498C59.0883 54.966 57.7163 54.266 57.7163 52.39ZM66.3683 61.434C66.3683 63.282 64.9403 64.122 63.1203 64.262V58.382C65.1083 58.914 66.3683 59.558 66.3683 61.434ZM79.5101 66.586C83.5981 66.586 86.0341 64.094 86.0341 60.286C86.0341 56.674 84.1021 54.07 80.3781 54.07C77.9141 54.07 76.4301 55.386 75.8421 57.038L76.3461 49.842H84.6061V47.546H73.9381L73.3501 58.298L75.7581 58.55L75.7861 58.242C75.8981 56.982 77.2981 56.086 79.3421 56.086C81.3861 56.086 83.4581 57.234 83.4581 60.286C83.4581 62.722 82.1701 64.262 79.5941 64.262C76.9621 64.262 75.2821 62.694 74.6101 60.258L72.6501 62.33C73.6021 64.71 76.1501 66.586 79.5101 66.586ZM89.6214 69.162C91.5254 68.938 92.0574 67.958 92.0574 66.306V62.666H89.1174V66.306H90.4894V66.698C90.4894 67.482 90.0414 67.678 89.0894 67.818L89.6214 69.162ZM99.6789 66.306C99.6789 58.326 102.171 54.266 106.315 50.318V47.546H94.0229V49.842H104.103C101.023 52.81 97.0189 56.982 97.0189 66.306H99.6789ZM115.194 66.586C119.282 66.586 121.718 64.094 121.718 60.286C121.718 56.674 119.786 54.07 116.062 54.07C113.598 54.07 112.114 55.386 111.526 57.038L112.03 49.842H120.29V47.546H109.622L109.034 58.298L111.442 58.55L111.47 58.242C111.582 56.982 112.982 56.086 115.026 56.086C117.07 56.086 119.142 57.234 119.142 60.286C119.142 62.722 117.854 64.262 115.278 64.262C112.646 64.262 110.966 62.694 110.294 60.258L108.334 62.33C109.286 64.71 111.834 66.586 115.194 66.586ZM131.811 66.586C136.935 66.586 139.343 62.358 139.343 56.898C139.343 51.494 136.935 47.266 131.811 47.266C126.659 47.266 124.251 51.494 124.251 56.898C124.251 62.358 126.659 66.586 131.811 66.586ZM131.839 64.262C128.115 64.262 126.827 61.21 126.827 56.898C126.827 52.642 128.115 49.562 131.839 49.562C135.535 49.562 136.795 52.642 136.795 56.898C136.795 61.21 135.535 64.262 131.839 64.262ZM142.367 69.162C144.271 68.938 144.803 67.958 144.803 66.306V62.666H141.863V66.306H143.235V66.698C143.235 67.482 142.787 67.678 141.835 67.818L142.367 69.162ZM161.1 66.306V64.15H153.344L151.048 64.318L153.064 62.61L155.976 59.866C157.684 58.242 160.624 55.442 160.624 52.362C160.624 49.478 158.972 47.266 155.304 47.266C150.992 47.266 148.052 50.234 148.444 53.93L150.712 55.358C150.236 51.634 152 49.618 155.136 49.618C157.264 49.618 158.104 51.018 158.104 52.53C158.104 54.602 156.508 56.338 154.464 58.354L148.332 64.402V66.306H161.1ZM170.94 66.586C176.064 66.586 178.472 62.358 178.472 56.898C178.472 51.494 176.064 47.266 170.94 47.266C165.788 47.266 163.38 51.494 163.38 56.898C163.38 62.358 165.788 66.586 170.94 66.586ZM170.968 64.262C167.244 64.262 165.956 61.21 165.956 56.898C165.956 52.642 167.244 49.562 170.968 49.562C174.664 49.562 175.924 52.642 175.924 56.898C175.924 61.21 174.664 64.262 170.968 64.262Z" fill="white"/>
<path opacity="0.54" d="M58.2203 36.3655C60.3203 36.3655 61.7343 35.2455 62.3363 33.3135L61.2443 32.5995C60.9363 34.1675 60.0123 35.2175 58.2343 35.2175C56.0923 35.2175 55.1123 33.6915 55.1123 31.5495C55.1123 29.4075 56.0923 27.8815 58.2343 27.8815C60.0123 27.8815 60.9363 28.9315 61.2443 30.4995L62.3363 29.7855C61.7343 27.8535 60.3203 26.7335 58.2203 26.7335C55.3783 26.7335 53.8243 28.8475 53.8243 31.5495C53.8243 34.2515 55.3783 36.3655 58.2203 36.3655ZM65.9513 36.3935C67.3093 36.3935 68.0373 35.4695 68.2893 34.4055V36.2535H69.4933V29.4775H68.2893V33.3275C68.2893 34.4475 67.8133 35.3715 66.4973 35.3715C65.3493 35.3715 64.9993 34.7415 64.9993 33.8735V29.4775H63.7953V34.1675C63.7953 35.5955 64.6213 36.3935 65.9513 36.3935ZM72.5612 36.2535V32.4175C72.5612 31.2555 73.3452 30.2335 74.2132 30.2335C74.7032 30.2335 74.9132 30.5695 74.9132 30.9615C74.9132 31.3395 74.7312 31.7595 74.5072 31.9555H75.8372C75.9492 31.7875 76.1032 31.3675 76.1032 30.7935C76.1032 29.8415 75.4032 29.3235 74.6752 29.3235C73.5272 29.3235 72.8272 30.2335 72.5612 31.2835V29.4775H71.3432V36.2535H72.5612ZM78.3854 36.2535V32.4175C78.3854 31.2555 79.1694 30.2335 80.0374 30.2335C80.5274 30.2335 80.7374 30.5695 80.7374 30.9615C80.7374 31.3395 80.5554 31.7595 80.3314 31.9555H81.6614C81.7734 31.7875 81.9274 31.3675 81.9274 30.7935C81.9274 29.8415 81.2274 29.3235 80.4994 29.3235C79.3514 29.3235 78.6514 30.2335 78.3854 31.2835V29.4775H77.1674V36.2535H78.3854ZM85.7799 36.3935C87.2499 36.3935 88.1879 35.7075 88.6919 34.8955L87.9499 34.0555C87.6839 34.6435 87.1379 35.3855 85.7799 35.3855C84.5759 35.3855 83.7779 34.5735 83.7079 33.1455H88.7339C88.7619 33.0195 88.7899 32.8095 88.7899 32.5995C88.7899 30.6115 87.6279 29.3375 85.7099 29.3375C83.8479 29.3375 82.5319 30.7235 82.5319 32.8655C82.5319 35.0215 83.8619 36.3935 85.7799 36.3935ZM85.7099 30.3595C86.8439 30.3595 87.5719 31.0175 87.6979 32.2635H83.7359C83.8899 31.0035 84.6179 30.3595 85.7099 30.3595ZM91.5514 36.2535V32.4175C91.5514 31.2835 92.0274 30.3735 93.3294 30.3735C94.4774 30.3735 94.8274 30.9895 94.8274 31.8715V36.2535H96.0314V31.5775C96.0314 30.1355 95.2054 29.3375 93.8754 29.3375C92.5454 29.3375 91.8174 30.2335 91.5514 31.2835V29.4775H90.3334V36.2535H91.5514ZM99.9159 36.4075C100.854 36.4075 101.498 35.9735 101.792 35.5115L101.386 34.3075C101.204 34.7275 100.784 35.2315 100.182 35.2315C99.6499 35.2315 99.2439 35.0215 99.2439 34.1535V30.4295H101.47V29.4775H99.2439V27.7135L98.0259 28.6095V29.4775H96.9339V30.4295H98.0259V34.5175C98.0259 35.6795 98.8099 36.4075 99.9159 36.4075ZM110.006 36.2535C112.036 36.2535 113.24 35.3295 113.24 33.7335C113.24 32.5295 112.554 31.5635 110.594 31.3535C112.162 31.1855 112.82 30.2755 112.82 29.2675C112.82 27.8395 111.868 26.8735 110.076 26.8735H106.114V36.2535H110.006ZM109.656 27.9515C110.776 27.9515 111.56 28.3015 111.56 29.4215C111.56 30.5555 110.79 30.8915 109.712 30.8915H107.332V27.9515H109.656ZM109.852 31.9835C111.07 31.9835 111.98 32.4455 111.98 33.5795C111.98 34.6995 111.294 35.1755 109.81 35.1755H107.332V31.9835H109.852ZM116.302 36.3935C117.702 36.3935 118.43 35.3855 118.654 34.4895V34.9655C118.654 35.9175 119.158 36.2535 119.858 36.2535H120.642V35.1475H120.208C119.956 35.1475 119.83 35.0495 119.83 34.7275V31.9415C119.83 30.3315 118.934 29.3375 117.268 29.3375C115.756 29.3375 114.748 30.1915 114.342 30.8915L115.168 31.7455C115.518 31.0035 116.162 30.4435 117.128 30.4435C118.192 30.4435 118.57 31.0315 118.612 31.8295L116.162 32.9215C115.196 33.3555 114.51 33.9295 114.51 34.8395C114.51 35.7355 115.154 36.3935 116.302 36.3935ZM115.742 34.6435C115.742 34.2235 116.036 33.9435 116.68 33.6355L118.654 32.7115V33.6495C118.654 34.6295 117.842 35.3855 116.694 35.3855C116.064 35.3855 115.742 35.1055 115.742 34.6435ZM123.27 36.2535V26.8735H122.052V36.2535H123.27ZM126.501 36.3935C127.901 36.3935 128.629 35.3855 128.853 34.4895V34.9655C128.853 35.9175 129.357 36.2535 130.057 36.2535H130.841V35.1475H130.407C130.155 35.1475 130.029 35.0495 130.029 34.7275V31.9415C130.029 30.3315 129.133 29.3375 127.467 29.3375C125.955 29.3375 124.947 30.1915 124.541 30.8915L125.367 31.7455C125.717 31.0035 126.361 30.4435 127.327 30.4435C128.391 30.4435 128.769 31.0315 128.811 31.8295L126.361 32.9215C125.395 33.3555 124.709 33.9295 124.709 34.8395C124.709 35.7355 125.353 36.3935 126.501 36.3935ZM125.941 34.6435C125.941 34.2235 126.235 33.9435 126.879 33.6355L128.853 32.7115V33.6495C128.853 34.6295 128.041 35.3855 126.893 35.3855C126.263 35.3855 125.941 35.1055 125.941 34.6435ZM133.469 36.2535V32.4175C133.469 31.2835 133.945 30.3735 135.247 30.3735C136.395 30.3735 136.745 30.9895 136.745 31.8715V36.2535H137.949V31.5775C137.949 30.1355 137.123 29.3375 135.793 29.3375C134.463 29.3375 133.735 30.2335 133.469 31.2835V29.4775H132.251V36.2535L133.469 36.2535ZM142.544 36.3935C144.308 36.3935 145.344 35.3715 145.666 34.0135L144.476 33.5235C144.336 34.6015 143.776 35.3855 142.558 35.3855C141.326 35.3855 140.584 34.4615 140.584 32.8655C140.584 31.2695 141.326 30.3595 142.558 30.3595C143.776 30.3595 144.336 31.1295 144.476 32.2075L145.666 31.7175C145.344 30.3595 144.308 29.3375 142.544 29.3375C140.598 29.3375 139.352 30.7235 139.352 32.8655C139.352 35.0215 140.598 36.3935 142.544 36.3935ZM149.874 36.3935C151.344 36.3935 152.282 35.7075 152.786 34.8955L152.044 34.0555C151.778 34.6435 151.232 35.3855 149.874 35.3855C148.67 35.3855 147.872 34.5735 147.802 33.1455H152.828C152.856 33.0195 152.884 32.8095 152.884 32.5995C152.884 30.6115 151.722 29.3375 149.804 29.3375C147.942 29.3375 146.626 30.7235 146.626 32.8655C146.626 35.0215 147.956 36.3935 149.874 36.3935ZM149.804 30.3595C150.938 30.3595 151.666 31.0175 151.792 32.2635H147.83C147.984 31.0035 148.712 30.3595 149.804 30.3595Z" fill="white"/>
<rect x="12.8708" y="36.0001" width="285.129" height="166.552" rx="27.1552" fill="url(#paint1_linear_1067_7301)"/>
<mask id="mask1_1067_7301" style="mask-type:alpha" maskUnits="userSpaceOnUse" x="12" y="36" width="286" height="167">
<rect x="12.8708" y="36.0001" width="285.129" height="166.552" rx="27.1552" fill="#ED713C"/>
</mask>
<g mask="url(#mask1_1067_7301)">
<ellipse opacity="0.1" cx="35.0477" cy="228.802" rx="145.28" ry="102.284" fill="black"/>
<ellipse opacity="0.08" cx="275.823" cy="9.75006" rx="145.28" ry="102.284" fill="black"/>
</g>
<path d="M234.442 181.295C237.004 181.295 238.208 179.181 238.208 176.451C238.208 173.749 237.004 171.635 234.442 171.635C231.866 171.635 230.662 173.749 230.662 176.451C230.662 179.181 231.866 181.295 234.442 181.295ZM234.456 180.133C232.594 180.133 231.95 178.607 231.95 176.451C231.95 174.323 232.594 172.783 234.456 172.783C236.304 172.783 236.934 174.323 236.934 176.451C236.934 178.607 236.304 180.133 234.456 180.133ZM243.064 181.295C245.388 181.295 246.676 179.657 246.676 176.745V176.423C246.676 172.713 245.206 171.635 243.162 171.635C241.244 171.635 239.928 173.021 239.928 174.841C239.928 176.549 240.768 177.935 242.686 177.935C244.198 177.935 245.234 177.025 245.388 175.443V176.465C245.388 179.391 244.282 180.119 243.162 180.119C242.154 180.119 241.454 179.503 241.09 178.565L240.054 179.433C240.6 180.539 241.636 181.295 243.064 181.295ZM243.162 176.801C241.818 176.801 241.202 176.003 241.202 174.771C241.202 173.651 241.972 172.797 243.19 172.797C244.436 172.797 245.234 173.441 245.234 174.967C245.234 176.185 244.38 176.801 243.162 176.801ZM249.48 181.715L253.12 171.215H252.028L248.388 181.715H249.48ZM261.428 181.155V180.077H257.55L256.402 180.161L257.41 179.307L258.866 177.935C259.72 177.123 261.19 175.723 261.19 174.183C261.19 172.741 260.364 171.635 258.53 171.635C256.374 171.635 254.904 173.119 255.1 174.967L256.234 175.681C255.996 173.819 256.878 172.811 258.446 172.811C259.51 172.811 259.93 173.511 259.93 174.267C259.93 175.303 259.132 176.171 258.11 177.179L255.044 180.203V181.155H261.428ZM266.811 181.295C268.855 181.295 270.073 180.049 270.073 178.145C270.073 176.339 269.107 175.037 267.245 175.037C266.013 175.037 265.271 175.695 264.977 176.521L265.229 172.923H269.359V171.775H264.025L263.731 177.151L264.935 177.277L264.949 177.123C265.005 176.493 265.705 176.045 266.727 176.045C267.749 176.045 268.785 176.619 268.785 178.145C268.785 179.363 268.141 180.133 266.853 180.133C265.537 180.133 264.697 179.349 264.361 178.131L263.381 179.167C263.857 180.357 265.131 181.295 266.811 181.295Z" fill="white"/>
<path opacity="0.9" d="M44.6741 181.295C46.7181 181.295 47.9361 180.049 47.9361 178.145C47.9361 176.339 46.9701 175.037 45.1081 175.037C43.8761 175.037 43.1341 175.695 42.8401 176.521L43.0921 172.923H47.2221V171.775H41.8881L41.5941 177.151L42.7981 177.277L42.8121 177.123C42.8681 176.493 43.5681 176.045 44.5901 176.045C45.6121 176.045 46.6481 176.619 46.6481 178.145C46.6481 179.363 46.0041 180.133 44.7161 180.133C43.4001 180.133 42.5601 179.349 42.2241 178.131L41.2441 179.167C41.7201 180.357 42.9941 181.295 44.6741 181.295ZM56.1642 181.155V180.077H52.2862L51.1382 180.161L52.1462 179.307L53.6022 177.935C54.4562 177.123 55.9262 175.723 55.9262 174.183C55.9262 172.741 55.1002 171.635 53.2662 171.635C51.1102 171.635 49.6402 173.119 49.8362 174.967L50.9702 175.681C50.7322 173.819 51.6142 172.811 53.1822 172.811C54.2462 172.811 54.6662 173.511 54.6662 174.267C54.6662 175.303 53.8682 176.171 52.8462 177.179L49.7802 180.203V181.155H56.1642ZM61.3322 181.295C63.6562 181.295 64.7762 180.259 64.7762 178.747C64.7762 177.795 64.1882 176.773 62.6482 176.395C63.8522 176.199 64.4962 175.289 64.4962 174.197C64.4962 172.797 63.3762 171.635 61.3322 171.635C59.2742 171.635 58.1682 172.797 58.1682 174.211C58.1682 175.289 58.7282 176.199 59.9462 176.395C58.4062 176.773 57.8882 177.795 57.8882 178.747C57.8882 180.259 58.9942 181.295 61.3322 181.295ZM61.3322 175.905C59.9742 175.905 59.4562 175.247 59.4562 174.351C59.4562 173.539 59.9882 172.783 61.3322 172.783C62.6762 172.783 63.2222 173.539 63.2222 174.351C63.2222 175.247 62.5502 175.905 61.3322 175.905ZM61.3322 180.147C59.6942 180.147 59.3022 179.377 59.3022 178.537C59.3022 177.599 59.9742 176.885 61.3322 176.885C62.6902 176.885 63.3622 177.599 63.3622 178.537C63.3622 179.377 62.9702 180.147 61.3322 180.147ZM73.174 181.155V180.077H69.296L68.148 180.161L69.156 179.307L70.612 177.935C71.466 177.123 72.936 175.723 72.936 174.183C72.936 172.741 72.11 171.635 70.276 171.635C68.12 171.635 66.65 173.119 66.846 174.967L67.98 175.681C67.742 173.819 68.624 172.811 70.192 172.811C71.256 172.811 71.676 173.511 71.676 174.267C71.676 175.303 70.878 176.171 69.856 177.179L66.79 180.203V181.155H73.174ZM82.3193 181.295C84.3633 181.295 85.6513 180.259 85.6513 178.733C85.6513 177.515 85.0353 176.451 83.3273 176.311C84.5173 176.143 85.2313 175.149 85.2313 174.183C85.2313 172.979 84.4193 171.635 82.2493 171.635C80.5693 171.635 79.3373 172.643 78.9453 173.917L79.9813 174.785C80.1493 173.497 81.0173 172.811 82.2213 172.811C83.4253 172.811 83.9573 173.553 83.9573 174.449C83.9573 175.429 83.3693 175.933 82.1933 175.933H80.6533V176.983H82.1793C83.4813 176.983 84.3633 177.487 84.3633 178.607C84.3633 179.559 83.6773 180.133 82.4733 180.133C80.7093 180.133 80.1073 179.181 79.8273 177.753L78.7913 178.677C79.0993 180.091 80.2893 181.295 82.3193 181.295ZM93.3024 181.155V178.915H94.9824V177.837H93.3024V171.775H92.0844L87.3664 177.963V178.915H92.0844V181.155H93.3024ZM88.7524 177.837L92.0844 173.539V177.837H88.7524ZM100.127 181.295C102.171 181.295 103.389 180.049 103.389 178.145C103.389 176.339 102.423 175.037 100.561 175.037C99.3292 175.037 98.5872 175.695 98.2932 176.521L98.5452 172.923H102.675V171.775H97.3412L97.0472 177.151L98.2512 177.277L98.2652 177.123C98.3212 176.493 99.0212 176.045 100.043 176.045C101.065 176.045 102.101 176.619 102.101 178.145C102.101 179.363 101.457 180.133 100.169 180.133C98.8532 180.133 98.0132 179.349 97.6772 178.131L96.6972 179.167C97.1732 180.357 98.4472 181.295 100.127 181.295ZM108.836 181.295C110.754 181.295 112.07 179.909 112.07 178.089C112.07 176.381 111.23 174.995 109.312 174.995C107.786 174.995 106.764 175.905 106.61 177.487V176.465C106.61 173.539 107.716 172.811 108.85 172.811C109.844 172.811 110.544 173.427 110.894 174.365L111.944 173.497C111.398 172.391 110.362 171.635 108.948 171.635C106.638 171.635 105.322 173.287 105.322 176.339V176.507C105.322 180.217 106.792 181.295 108.836 181.295ZM108.808 180.133C107.548 180.133 106.75 179.489 106.75 177.963C106.75 176.745 107.618 176.129 108.836 176.129C110.18 176.129 110.782 176.927 110.782 178.159C110.782 179.279 110.026 180.133 108.808 180.133ZM120.161 181.155C120.161 177.165 121.407 175.135 123.479 173.161V171.775H117.333V172.923H122.373C120.833 174.407 118.831 176.493 118.831 181.155H120.161ZM127.848 181.295C130.172 181.295 131.292 180.259 131.292 178.747C131.292 177.795 130.704 176.773 129.164 176.395C130.368 176.199 131.012 175.289 131.012 174.197C131.012 172.797 129.892 171.635 127.848 171.635C125.79 171.635 124.684 172.797 124.684 174.211C124.684 175.289 125.244 176.199 126.462 176.395C124.922 176.773 124.404 177.795 124.404 178.747C124.404 180.259 125.51 181.295 127.848 181.295ZM127.848 175.905C126.49 175.905 125.972 175.247 125.972 174.351C125.972 173.539 126.504 172.783 127.848 172.783C129.192 172.783 129.738 173.539 129.738 174.351C129.738 175.247 129.066 175.905 127.848 175.905ZM127.848 180.147C126.21 180.147 125.818 179.377 125.818 178.537C125.818 177.599 126.49 176.885 127.848 176.885C129.206 176.885 129.878 177.599 129.878 178.537C129.878 179.377 129.486 180.147 127.848 180.147ZM136.243 181.295C138.567 181.295 139.855 179.657 139.855 176.745V176.423C139.855 172.713 138.385 171.635 136.341 171.635C134.423 171.635 133.107 173.021 133.107 174.841C133.107 176.549 133.947 177.935 135.865 177.935C137.377 177.935 138.413 177.025 138.567 175.443V176.465C138.567 179.391 137.461 180.119 136.341 180.119C135.333 180.119 134.633 179.503 134.269 178.565L133.233 179.433C133.779 180.539 134.815 181.295 136.243 181.295ZM136.341 176.801C134.997 176.801 134.381 176.003 134.381 174.771C134.381 173.651 135.151 172.797 136.369 172.797C137.615 172.797 138.413 173.441 138.413 174.967C138.413 176.185 137.559 176.801 136.341 176.801ZM145.698 181.295C148.26 181.295 149.464 179.181 149.464 176.451C149.464 173.749 148.26 171.635 145.698 171.635C143.122 171.635 141.918 173.749 141.918 176.451C141.918 179.181 143.122 181.295 145.698 181.295ZM145.712 180.133C143.85 180.133 143.206 178.607 143.206 176.451C143.206 174.323 143.85 172.783 145.712 172.783C147.56 172.783 148.19 174.323 148.19 176.451C148.19 178.607 147.56 180.133 145.712 180.133ZM157.637 181.155V171.775H156.615C156.167 172.391 155.495 172.615 154.739 172.615V173.455H156.419V181.155H157.637ZM166.299 181.155V180.077H162.421L161.273 180.161L162.281 179.307L163.737 177.935C164.591 177.123 166.061 175.723 166.061 174.183C166.061 172.741 165.235 171.635 163.401 171.635C161.245 171.635 159.775 173.119 159.971 174.967L161.105 175.681C160.867 173.819 161.749 172.811 163.317 172.811C164.381 172.811 164.801 173.511 164.801 174.267C164.801 175.303 164.003 176.171 162.981 177.179L159.915 180.203V181.155H166.299ZM171.467 181.295C173.791 181.295 174.911 180.259 174.911 178.747C174.911 177.795 174.323 176.773 172.783 176.395C173.987 176.199 174.631 175.289 174.631 174.197C174.631 172.797 173.511 171.635 171.467 171.635C169.409 171.635 168.303 172.797 168.303 174.211C168.303 175.289 168.863 176.199 170.081 176.395C168.541 176.773 168.023 177.795 168.023 178.747C168.023 180.259 169.129 181.295 171.467 181.295ZM171.467 175.905C170.109 175.905 169.591 175.247 169.591 174.351C169.591 173.539 170.123 172.783 171.467 172.783C172.811 172.783 173.357 173.539 173.357 174.351C173.357 175.247 172.685 175.905 171.467 175.905ZM171.467 180.147C169.829 180.147 169.437 179.377 169.437 178.537C169.437 177.599 170.109 176.885 171.467 176.885C172.825 176.885 173.497 177.599 173.497 178.537C173.497 179.377 173.105 180.147 171.467 180.147ZM179.862 181.295C182.186 181.295 183.474 179.657 183.474 176.745V176.423C183.474 172.713 182.004 171.635 179.96 171.635C178.042 171.635 176.726 173.021 176.726 174.841C176.726 176.549 177.566 177.935 179.484 177.935C180.996 177.935 182.032 177.025 182.186 175.443V176.465C182.186 179.391 181.08 180.119 179.96 180.119C178.952 180.119 178.252 179.503 177.888 178.565L176.852 179.433C177.398 180.539 178.434 181.295 179.862 181.295ZM179.96 176.801C178.616 176.801 178 176.003 178 174.771C178 173.651 178.77 172.797 179.988 172.797C181.234 172.797 182.032 173.441 182.032 174.967C182.032 176.185 181.178 176.801 179.96 176.801Z" fill="white"/>
<path d="M214.861 63.1603C214.707 63.205 214.552 63.2508 214.396 63.295C213.048 63.6797 211.698 64.0554 210.356 64.4514C209.199 64.7884 208.066 65.1998 206.963 65.683C205.966 66.1232 205.007 66.6318 204.118 67.2632C203.553 67.6654 203.094 68.1684 202.805 68.8015C202.651 69.1201 202.579 69.4713 202.594 69.8243C202.61 70.2509 202.785 70.6561 203.086 70.9604C203.51 71.3983 204.014 71.7117 204.57 71.951C205.174 72.2006 205.8 72.3917 206.441 72.5219C207.041 72.6531 207.644 72.7759 208.245 72.9026C208.265 72.906 208.283 72.9159 208.297 72.9309C208.032 72.9829 207.769 73.0407 207.5 73.0865C206.883 73.1954 206.256 73.2458 205.628 73.237C204.74 73.2194 203.875 73.0831 203.059 72.7103C202.451 72.4425 201.92 72.0288 201.513 71.5063C201.217 71.1172 201.025 70.6588 200.958 70.1751C200.825 69.2891 201.04 68.4716 201.465 67.6994C201.914 66.8836 202.558 66.2561 203.349 65.7622C204.681 64.9393 206.13 64.3186 207.647 63.9207C208.449 63.7037 209.263 63.5382 210.086 63.4251C210.633 63.351 211.182 63.2893 211.732 63.2452C212.281 63.2011 212.824 63.1762 213.371 63.1609C213.869 63.1484 214.365 63.1603 214.861 63.1603Z" fill="white"/>
<path d="M205.9 69.6677C206.218 69.6111 206.536 69.541 206.856 69.4901C207.421 69.3977 207.994 69.3561 208.566 69.3656C209.455 69.3837 210.32 69.5195 211.135 69.8929C211.743 70.1612 212.274 70.5755 212.681 71.0985C212.977 71.488 213.168 71.9465 213.235 72.4303C213.367 73.3134 213.152 74.1275 212.728 74.8992C212.288 75.7003 211.662 76.3232 210.887 76.812C209.618 77.604 208.241 78.2101 206.798 78.6117C205.915 78.865 205.014 79.0541 204.102 79.1775C203.495 79.2589 202.885 79.3212 202.274 79.3721C201.792 79.4122 201.306 79.4287 200.825 79.4422C200.33 79.4541 199.833 79.4451 199.336 79.4451C199.428 79.4179 199.52 79.3885 199.612 79.3636C200.797 79.0287 201.984 78.6988 203.166 78.3577C204.27 78.0397 205.36 77.685 206.428 77.2607C207.607 76.7917 208.741 76.2344 209.801 75.5351C210.287 75.2144 210.722 74.8432 211.063 74.3691C211.322 74.0082 211.514 73.6172 211.581 73.1742C211.651 72.7696 211.581 72.3532 211.382 71.9935C211.262 71.7797 211.083 71.6071 210.901 71.4419C210.459 71.0425 209.942 70.7698 209.39 70.5559C208.759 70.3115 208.105 70.152 207.446 70.0128C206.946 69.907 206.447 69.804 205.946 69.6999C205.932 69.6966 205.917 69.6915 205.901 69.6875L205.9 69.6677Z" fill="white"/>
<path d="M218.153 79.3172C220.367 79.3172 222.113 78.1652 222.113 76.0592C222.113 73.8452 220.439 73.1252 218.585 72.6932L217.163 72.3512C215.597 71.9732 214.715 71.4332 214.715 70.1192C214.715 68.8052 215.885 68.0492 217.343 68.0492C219.089 68.0492 220.385 68.8412 220.943 70.5332L221.933 69.7412C221.231 67.9232 219.575 66.9332 217.361 66.9332C215.327 66.9332 213.473 68.0672 213.473 70.2092C213.473 72.3152 215.093 73.0532 216.785 73.4492L218.099 73.7372C219.935 74.1692 220.925 74.6732 220.925 76.0952C220.925 77.6252 219.629 78.2192 218.153 78.2192C216.569 78.2192 214.607 77.4632 214.031 75.3932L213.113 76.1852C213.887 78.4172 215.975 79.3172 218.153 79.3172ZM226.885 79.1552L228.721 73.3952L229.225 71.5052L229.711 73.3952L231.547 79.1552H233.077L235.435 70.5152H234.103L232.699 76.3472L232.303 78.2732L231.781 76.3472L229.945 70.5152H228.487L226.651 76.3472L226.129 78.2732L225.733 76.3472L224.311 70.5152H222.997L225.355 79.1552H226.885ZM238.182 68.9672V67.0952H236.994V68.9672H238.182ZM238.182 79.1552V70.5152H236.994V79.1552H238.182ZM243.529 79.3532C244.645 79.3532 245.491 78.8312 245.869 78.2012L245.455 77.0492C245.167 77.6612 244.537 78.2192 243.763 78.2192C243.007 78.2192 242.359 77.8772 242.359 76.6352V71.4332H245.257V70.5152H242.359V68.3912L241.189 69.2732V70.5152H239.785V71.4332H241.189V76.9592C241.189 78.5252 242.215 79.3532 243.529 79.3532ZM250.33 79.3352C252.49 79.3352 253.84 78.0752 254.182 76.3292L253.048 75.8432C252.868 77.3012 252.004 78.3452 250.348 78.3452C248.638 78.3452 247.504 77.1212 247.504 74.8352C247.504 72.5312 248.638 71.3072 250.348 71.3072C252.004 71.3072 252.868 72.3692 253.048 73.8272L254.182 73.3412C253.84 71.5952 252.49 70.3352 250.348 70.3352C247.9 70.3352 246.298 72.0272 246.298 74.8352C246.298 77.6432 247.9 79.3352 250.33 79.3352ZM257.342 79.1552V74.1512C257.342 72.6572 258.098 71.3252 259.952 71.3252C261.428 71.3252 262.04 72.1892 262.04 73.5932V79.1552H263.228V73.3232C263.228 71.3432 262.112 70.3352 260.438 70.3352C258.674 70.3352 257.648 71.5232 257.342 72.9272V67.0952H256.154V79.1552H257.342ZM267.426 79.3352C269.154 79.3352 270.27 78.0032 270.558 76.7612V77.6792C270.558 78.7772 271.134 79.1552 271.998 79.1552H272.808V78.0932H272.304C271.89 78.0932 271.692 77.9312 271.692 77.4812V73.4312C271.692 71.5052 270.648 70.3352 268.632 70.3352C266.796 70.3352 265.536 71.3612 264.996 72.2612L265.824 73.0892C266.274 72.1352 267.21 71.3972 268.506 71.3972C269.91 71.3972 270.522 72.1532 270.522 73.4492V73.5212L267.246 75.0152C266.04 75.5552 265.194 76.2752 265.194 77.4092C265.194 78.5612 266.004 79.3352 267.426 79.3352ZM266.382 77.2472C266.382 76.5992 266.814 76.1672 267.75 75.7352L270.558 74.4032V75.9332C270.558 77.1032 269.37 78.3452 267.768 78.3452C266.922 78.3452 266.382 77.9672 266.382 77.2472Z" fill="white"/>
<path d="M50.0221 111.869V109.321C53.3541 109.125 55.7621 107.193 55.7621 104.141C55.7621 100.445 52.8501 99.409 50.1901 98.765L50.0221 98.737V92.605C51.5901 93.025 52.7941 94.089 53.4661 95.965L55.5101 94.341C54.5581 92.045 52.5701 90.617 50.0221 90.197V87.509H48.1181V90.057C44.8981 90.113 42.0421 91.961 42.0421 95.321C42.0421 98.849 44.8701 99.969 47.3621 100.529L48.1181 100.697V106.941C46.0741 106.605 44.0021 105.429 43.2741 102.909L41.4261 104.533C42.5181 107.585 45.1221 108.985 48.1181 109.293V111.869H50.0221ZM44.6181 95.153C44.6181 93.445 46.1021 92.409 48.1181 92.381V98.261C45.9901 97.729 44.6181 97.029 44.6181 95.153ZM53.2701 104.197C53.2701 106.045 51.8421 106.885 50.0221 107.025V101.145C52.0101 101.677 53.2701 102.321 53.2701 104.197ZM66.412 109.349C70.5 109.349 72.936 106.857 72.936 103.049C72.936 99.437 71.004 96.833 67.28 96.833C64.816 96.833 63.332 98.149 62.744 99.801L63.248 92.605H71.508V90.309H60.84L60.252 101.061L62.66 101.313L62.688 101.005C62.8 99.745 64.2 98.849 66.244 98.849C68.288 98.849 70.36 99.997 70.36 103.049C70.36 105.485 69.072 107.025 66.496 107.025C63.864 107.025 62.184 105.457 61.512 103.021L59.552 105.093C60.504 107.473 63.052 109.349 66.412 109.349ZM76.5232 111.925C78.4272 111.701 78.9592 110.721 78.9592 109.069V105.429H76.0192V109.069H77.3912V109.461C77.3912 110.245 76.9432 110.441 75.9912 110.581L76.5232 111.925ZM86.5807 109.069C86.5807 101.089 89.0727 97.029 93.2167 93.081V90.309H80.9247V92.605H91.0047C87.9247 95.573 83.9207 99.745 83.9207 109.069H86.5807ZM102.096 109.349C106.184 109.349 108.62 106.857 108.62 103.049C108.62 99.437 106.688 96.833 102.964 96.833C100.5 96.833 99.0156 98.149 98.4276 99.801L98.9316 92.605H107.192V90.309H96.5236L95.9356 101.061L98.3436 101.313L98.3716 101.005C98.4836 99.745 99.8836 98.849 101.928 98.849C103.972 98.849 106.044 99.997 106.044 103.049C106.044 105.485 104.756 107.025 102.18 107.025C99.5476 107.025 97.8676 105.457 97.1956 103.021L95.2356 105.093C96.1876 107.473 98.7356 109.349 102.096 109.349ZM118.713 109.349C123.837 109.349 126.245 105.121 126.245 99.661C126.245 94.257 123.837 90.029 118.713 90.029C113.561 90.029 111.153 94.257 111.153 99.661C111.153 105.121 113.561 109.349 118.713 109.349ZM118.741 107.025C115.017 107.025 113.729 103.973 113.729 99.661C113.729 95.405 115.017 92.325 118.741 92.325C122.437 92.325 123.697 95.405 123.697 99.661C123.697 103.973 122.437 107.025 118.741 107.025ZM129.269 111.925C131.173 111.701 131.705 110.721 131.705 109.069V105.429H128.765V109.069H130.137V109.461C130.137 110.245 129.689 110.441 128.737 110.581L129.269 111.925ZM148.002 109.069V106.913H140.246L137.95 107.081L139.966 105.373L142.878 102.629C144.586 101.005 147.526 98.205 147.526 95.125C147.526 92.241 145.874 90.029 142.206 90.029C137.894 90.029 134.954 92.997 135.346 96.693L137.614 98.121C137.138 94.397 138.902 92.381 142.038 92.381C144.166 92.381 145.006 93.781 145.006 95.293C145.006 97.365 143.41 99.101 141.366 101.117L135.234 107.165V109.069H148.002ZM157.842 109.349C162.966 109.349 165.374 105.121 165.374 99.661C165.374 94.257 162.966 90.029 157.842 90.029C152.69 90.029 150.282 94.257 150.282 99.661C150.282 105.121 152.69 109.349 157.842 109.349ZM157.87 107.025C154.146 107.025 152.858 103.973 152.858 99.661C152.858 95.405 154.146 92.325 157.87 92.325C161.566 92.325 162.826 95.405 162.826 99.661C162.826 103.973 161.566 107.025 157.87 107.025Z" fill="white"/>
<path opacity="0.54" d="M45.1221 76.2672C47.2221 76.2672 48.6361 75.1472 49.2381 73.2152L48.1461 72.5012C47.8381 74.0692 46.9141 75.1192 45.1361 75.1192C42.9941 75.1192 42.0141 73.5932 42.0141 71.4512C42.0141 69.3092 42.9941 67.7832 45.1361 67.7832C46.9141 67.7832 47.8381 68.8332 48.1461 70.4012L49.2381 69.6872C48.6361 67.7552 47.2221 66.6352 45.1221 66.6352C42.2801 66.6352 40.7261 68.7492 40.7261 71.4512C40.7261 74.1532 42.2801 76.2672 45.1221 76.2672ZM52.8532 76.2952C54.2112 76.2952 54.9392 75.3712 55.1912 74.3072V76.1552H56.3952V69.3792H55.1912V73.2292C55.1912 74.3492 54.7152 75.2732 53.3992 75.2732C52.2512 75.2732 51.9012 74.6432 51.9012 73.7752V69.3792H50.6972V74.0692C50.6972 75.4972 51.5232 76.2952 52.8532 76.2952ZM59.463 76.1552V72.3192C59.463 71.1572 60.247 70.1352 61.115 70.1352C61.605 70.1352 61.815 70.4712 61.815 70.8632C61.815 71.2412 61.633 71.6612 61.409 71.8572H62.739C62.851 71.6892 63.005 71.2692 63.005 70.6952C63.005 69.7432 62.305 69.2252 61.577 69.2252C60.429 69.2252 59.729 70.1352 59.463 71.1852V69.3792H58.245V76.1552H59.463ZM65.2873 76.1552V72.3192C65.2873 71.1572 66.0713 70.1352 66.9393 70.1352C67.4293 70.1352 67.6393 70.4712 67.6393 70.8632C67.6393 71.2412 67.4573 71.6612 67.2333 71.8572H68.5633C68.6753 71.6892 68.8293 71.2692 68.8293 70.6952C68.8293 69.7432 68.1293 69.2252 67.4013 69.2252C66.2533 69.2252 65.5533 70.1352 65.2873 71.1852V69.3792H64.0693V76.1552H65.2873ZM72.6818 76.2952C74.1518 76.2952 75.0898 75.6092 75.5938 74.7972L74.8518 73.9572C74.5858 74.5452 74.0398 75.2872 72.6818 75.2872C71.4778 75.2872 70.6798 74.4752 70.6098 73.0472H75.6358C75.6638 72.9212 75.6918 72.7112 75.6918 72.5012C75.6918 70.5132 74.5298 69.2392 72.6118 69.2392C70.7498 69.2392 69.4338 70.6252 69.4338 72.7672C69.4338 74.9232 70.7638 76.2952 72.6818 76.2952ZM72.6118 70.2612C73.7458 70.2612 74.4738 70.9192 74.5998 72.1652H70.6378C70.7918 70.9052 71.5198 70.2612 72.6118 70.2612ZM78.4533 76.1552V72.3192C78.4533 71.1852 78.9293 70.2752 80.2313 70.2752C81.3793 70.2752 81.7293 70.8912 81.7293 71.7732V76.1552H82.9333V71.4792C82.9333 70.0372 82.1073 69.2392 80.7773 69.2392C79.4473 69.2392 78.7193 70.1352 78.4533 71.1852V69.3792H77.2353V76.1552H78.4533ZM86.8177 76.3092C87.7557 76.3092 88.3997 75.8752 88.6937 75.4132L88.2877 74.2092C88.1057 74.6292 87.6857 75.1332 87.0837 75.1332C86.5517 75.1332 86.1457 74.9232 86.1457 74.0552V70.3312H88.3717V69.3792H86.1457V67.6152L84.9277 68.5112V69.3792H83.8357V70.3312H84.9277V74.4192C84.9277 75.5812 85.7117 76.3092 86.8177 76.3092ZM96.9079 76.1552C98.9379 76.1552 100.142 75.2312 100.142 73.6352C100.142 72.4312 99.4559 71.4652 97.4959 71.2552C99.0639 71.0872 99.7219 70.1772 99.7219 69.1692C99.7219 67.7412 98.7699 66.7752 96.9779 66.7752H93.0159V76.1552H96.9079ZM96.5579 67.8532C97.6779 67.8532 98.4619 68.2032 98.4619 69.3232C98.4619 70.4572 97.6919 70.7932 96.6139 70.7932H94.2339V67.8532H96.5579ZM96.7539 71.8852C97.9719 71.8852 98.8819 72.3472 98.8819 73.4812C98.8819 74.6012 98.1959 75.0772 96.7119 75.0772H94.2339V71.8852H96.7539ZM103.204 76.2952C104.604 76.2952 105.332 75.2872 105.556 74.3912V74.8672C105.556 75.8192 106.06 76.1552 106.76 76.1552H107.544V75.0492H107.11C106.858 75.0492 106.732 74.9512 106.732 74.6292V71.8432C106.732 70.2332 105.836 69.2392 104.17 69.2392C102.658 69.2392 101.65 70.0932 101.244 70.7932L102.07 71.6472C102.42 70.9052 103.064 70.3452 104.03 70.3452C105.094 70.3452 105.472 70.9332 105.514 71.7312L103.064 72.8232C102.098 73.2572 101.412 73.8312 101.412 74.7412C101.412 75.6372 102.056 76.2952 103.204 76.2952ZM102.644 74.5452C102.644 74.1252 102.938 73.8452 103.582 73.5372L105.556 72.6132V73.5512C105.556 74.5312 104.744 75.2872 103.596 75.2872C102.966 75.2872 102.644 75.0072 102.644 74.5452ZM110.172 76.1552V66.7752H108.954V76.1552H110.172ZM113.403 76.2952C114.803 76.2952 115.531 75.2872 115.755 74.3912V74.8672C115.755 75.8192 116.259 76.1552 116.959 76.1552H117.743V75.0492H117.309C117.057 75.0492 116.931 74.9512 116.931 74.6292V71.8432C116.931 70.2332 116.035 69.2392 114.369 69.2392C112.857 69.2392 111.849 70.0932 111.443 70.7932L112.269 71.6472C112.619 70.9052 113.263 70.3452 114.229 70.3452C115.293 70.3452 115.671 70.9332 115.713 71.7312L113.263 72.8232C112.297 73.2572 111.611 73.8312 111.611 74.7412C111.611 75.6372 112.255 76.2952 113.403 76.2952ZM112.843 74.5452C112.843 74.1252 113.137 73.8452 113.781 73.5372L115.755 72.6132V73.5512C115.755 74.5312 114.943 75.2872 113.795 75.2872C113.165 75.2872 112.843 75.0072 112.843 74.5452ZM120.371 76.1552V72.3192C120.371 71.1852 120.847 70.2752 122.149 70.2752C123.297 70.2752 123.647 70.8912 123.647 71.7732V76.1552H124.851V71.4792C124.851 70.0372 124.025 69.2392 122.695 69.2392C121.365 69.2392 120.637 70.1352 120.371 71.1852V69.3792H119.153V76.1552H120.371ZM129.446 76.2952C131.21 76.2952 132.246 75.2732 132.568 73.9152L131.378 73.4252C131.238 74.5032 130.678 75.2872 129.46 75.2872C128.228 75.2872 127.486 74.3632 127.486 72.7672C127.486 71.1712 128.228 70.2612 129.46 70.2612C130.678 70.2612 131.238 71.0312 131.378 72.1092L132.568 71.6192C132.246 70.2612 131.21 69.2392 129.446 69.2392C127.5 69.2392 126.254 70.6252 126.254 72.7672C126.254 74.9232 127.5 76.2952 129.446 76.2952ZM136.776 76.2952C138.246 76.2952 139.184 75.6092 139.688 74.7972L138.946 73.9572C138.68 74.5452 138.134 75.2872 136.776 75.2872C135.572 75.2872 134.774 74.4752 134.704 73.0472H139.73C139.758 72.9212 139.786 72.7112 139.786 72.5012C139.786 70.5132 138.624 69.2392 136.706 69.2392C134.844 69.2392 133.528 70.6252 133.528 72.7672C133.528 74.9232 134.858 76.2952 136.776 76.2952ZM136.706 70.2612C137.84 70.2612 138.568 70.9192 138.694 72.1652H134.732C134.886 70.9052 135.614 70.2612 136.706 70.2612Z" fill="white"/>
<rect y="82.9446" width="315" height="184" rx="30" fill="url(#paint2_linear_1067_7301)"/>
<mask id="mask2_1067_7301" style="mask-type:alpha" maskUnits="userSpaceOnUse" x="0" y="82" width="315" height="185">
<rect y="82.9446" width="315" height="184" rx="30" fill="#ED713C"/>
</mask>
<g mask="url(#mask2_1067_7301)">
<ellipse opacity="0.1" cx="24.5" cy="295.944" rx="160.5" ry="113" fill="black"/>
<ellipse opacity="0.08" cx="290.5" cy="53.9446" rx="160.5" ry="113" fill="black"/>
</g>
<path d="M248.597 242.085C251.159 242.085 252.363 239.971 252.363 237.241C252.363 234.539 251.159 232.425 248.597 232.425C246.021 232.425 244.817 234.539 244.817 237.241C244.817 239.971 246.021 242.085 248.597 242.085ZM248.611 240.923C246.749 240.923 246.105 239.397 246.105 237.241C246.105 235.113 246.749 233.573 248.611 233.573C250.459 233.573 251.089 235.113 251.089 237.241C251.089 239.397 250.459 240.923 248.611 240.923ZM257.219 242.085C259.543 242.085 260.831 240.447 260.831 237.535V237.213C260.831 233.503 259.361 232.425 257.317 232.425C255.399 232.425 254.083 233.811 254.083 235.631C254.083 237.339 254.923 238.725 256.841 238.725C258.353 238.725 259.389 237.815 259.543 236.233V237.255C259.543 240.181 258.437 240.909 257.317 240.909C256.309 240.909 255.609 240.293 255.245 239.355L254.209 240.223C254.755 241.329 255.791 242.085 257.219 242.085ZM257.317 237.591C255.973 237.591 255.357 236.793 255.357 235.561C255.357 234.441 256.127 233.587 257.345 233.587C258.591 233.587 259.389 234.231 259.389 235.757C259.389 236.975 258.535 237.591 257.317 237.591ZM263.635 242.505L267.275 232.005H266.183L262.543 242.505H263.635ZM275.583 241.945V240.867H271.705L270.557 240.951L271.565 240.097L273.021 238.725C273.875 237.913 275.345 236.513 275.345 234.973C275.345 233.531 274.519 232.425 272.685 232.425C270.529 232.425 269.059 233.909 269.255 235.757L270.389 236.471C270.151 234.609 271.033 233.601 272.601 233.601C273.665 233.601 274.085 234.301 274.085 235.057C274.085 236.093 273.287 236.961 272.265 237.969L269.199 240.993V241.945H275.583ZM280.966 242.085C283.01 242.085 284.228 240.839 284.228 238.935C284.228 237.129 283.262 235.827 281.4 235.827C280.168 235.827 279.426 236.485 279.132 237.311L279.384 233.713H283.514V232.565H278.18L277.886 237.941L279.09 238.067L279.104 237.913C279.16 237.283 279.86 236.835 280.882 236.835C281.904 236.835 282.94 237.409 282.94 238.935C282.94 240.153 282.296 240.923 281.008 240.923C279.692 240.923 278.852 240.139 278.516 238.921L277.536 239.957C278.012 241.147 279.286 242.085 280.966 242.085Z" fill="white"/>
<path opacity="0.9" d="M34.648 242.085C36.692 242.085 37.91 240.839 37.91 238.935C37.91 237.129 36.944 235.827 35.082 235.827C33.85 235.827 33.108 236.485 32.814 237.311L33.066 233.713H37.196V232.565H31.862L31.568 237.941L32.772 238.067L32.786 237.913C32.842 237.283 33.542 236.835 34.564 236.835C35.586 236.835 36.622 237.409 36.622 238.935C36.622 240.153 35.978 240.923 34.69 240.923C33.374 240.923 32.534 240.139 32.198 238.921L31.218 239.957C31.694 241.147 32.968 242.085 34.648 242.085ZM46.1381 241.945V240.867H42.2601L41.1121 240.951L42.1201 240.097L43.5761 238.725C44.4301 237.913 45.9001 236.513 45.9001 234.973C45.9001 233.531 45.0741 232.425 43.2401 232.425C41.0841 232.425 39.6141 233.909 39.8101 235.757L40.9441 236.471C40.7061 234.609 41.5881 233.601 43.1561 233.601C44.2201 233.601 44.6401 234.301 44.6401 235.057C44.6401 236.093 43.8421 236.961 42.8201 237.969L39.7541 240.993V241.945H46.1381ZM51.3061 242.085C53.6301 242.085 54.7501 241.049 54.7501 239.537C54.7501 238.585 54.1621 237.563 52.6221 237.185C53.8261 236.989 54.4701 236.079 54.4701 234.987C54.4701 233.587 53.3501 232.425 51.3061 232.425C49.2481 232.425 48.1421 233.587 48.1421 235.001C48.1421 236.079 48.7021 236.989 49.9201 237.185C48.3801 237.563 47.8621 238.585 47.8621 239.537C47.8621 241.049 48.9681 242.085 51.3061 242.085ZM51.3061 236.695C49.9481 236.695 49.4301 236.037 49.4301 235.141C49.4301 234.329 49.9621 233.573 51.3061 233.573C52.6501 233.573 53.1961 234.329 53.1961 235.141C53.1961 236.037 52.5241 236.695 51.3061 236.695ZM51.3061 240.937C49.6681 240.937 49.2761 240.167 49.2761 239.327C49.2761 238.389 49.9481 237.675 51.3061 237.675C52.6641 237.675 53.3361 238.389 53.3361 239.327C53.3361 240.167 52.9441 240.937 51.3061 240.937ZM63.1479 241.945V240.867H59.2699L58.1219 240.951L59.1299 240.097L60.5859 238.725C61.4399 237.913 62.9099 236.513 62.9099 234.973C62.9099 233.531 62.0839 232.425 60.2499 232.425C58.0939 232.425 56.6239 233.909 56.8199 235.757L57.9539 236.471C57.7159 234.609 58.5979 233.601 60.1659 233.601C61.2299 233.601 61.6499 234.301 61.6499 235.057C61.6499 236.093 60.8519 236.961 59.8299 237.969L56.7639 240.993V241.945H63.1479ZM72.2931 242.085C74.3371 242.085 75.6251 241.049 75.6251 239.523C75.6251 238.305 75.0091 237.241 73.3011 237.101C74.4911 236.933 75.2051 235.939 75.2051 234.973C75.2051 233.769 74.3931 232.425 72.2231 232.425C70.5431 232.425 69.3111 233.433 68.9191 234.707L69.9551 235.575C70.1231 234.287 70.9911 233.601 72.1951 233.601C73.3991 233.601 73.9311 234.343 73.9311 235.239C73.9311 236.219 73.3431 236.723 72.1671 236.723H70.6271V237.773H72.1531C73.4551 237.773 74.3371 238.277 74.3371 239.397C74.3371 240.349 73.6511 240.923 72.4471 240.923C70.6831 240.923 70.0811 239.971 69.8011 238.543L68.7651 239.467C69.0731 240.881 70.2631 242.085 72.2931 242.085ZM83.2763 241.945V239.705H84.9563V238.627H83.2763V232.565H82.0583L77.3403 238.753V239.705H82.0583V241.945H83.2763ZM78.7263 238.627L82.0583 234.329V238.627H78.7263ZM90.1011 242.085C92.1451 242.085 93.3631 240.839 93.3631 238.935C93.3631 237.129 92.3971 235.827 90.5351 235.827C89.3031 235.827 88.5611 236.485 88.2671 237.311L88.5191 233.713H92.6491V232.565H87.3151L87.0211 237.941L88.2251 238.067L88.2391 237.913C88.2951 237.283 88.9951 236.835 90.0171 236.835C91.0391 236.835 92.0751 237.409 92.0751 238.935C92.0751 240.153 91.4311 240.923 90.1431 240.923C88.8271 240.923 87.9871 240.139 87.6511 238.921L86.6711 239.957C87.1471 241.147 88.4211 242.085 90.1011 242.085ZM98.81 242.085C100.728 242.085 102.044 240.699 102.044 238.879C102.044 237.171 101.204 235.785 99.286 235.785C97.76 235.785 96.738 236.695 96.584 238.277V237.255C96.584 234.329 97.69 233.601 98.824 233.601C99.818 233.601 100.518 234.217 100.868 235.155L101.918 234.287C101.372 233.181 100.336 232.425 98.922 232.425C96.612 232.425 95.296 234.077 95.296 237.129V237.297C95.296 241.007 96.766 242.085 98.81 242.085ZM98.782 240.923C97.522 240.923 96.724 240.279 96.724 238.753C96.724 237.535 97.592 236.919 98.81 236.919C100.154 236.919 100.756 237.717 100.756 238.949C100.756 240.069 100 240.923 98.782 240.923ZM110.135 241.945C110.135 237.955 111.381 235.925 113.453 233.951V232.565H107.307V233.713H112.347C110.807 235.197 108.805 237.283 108.805 241.945H110.135ZM117.822 242.085C120.146 242.085 121.266 241.049 121.266 239.537C121.266 238.585 120.678 237.563 119.138 237.185C120.342 236.989 120.986 236.079 120.986 234.987C120.986 233.587 119.866 232.425 117.822 232.425C115.764 232.425 114.658 233.587 114.658 235.001C114.658 236.079 115.218 236.989 116.436 237.185C114.896 237.563 114.378 238.585 114.378 239.537C114.378 241.049 115.484 242.085 117.822 242.085ZM117.822 236.695C116.464 236.695 115.946 236.037 115.946 235.141C115.946 234.329 116.478 233.573 117.822 233.573C119.166 233.573 119.712 234.329 119.712 235.141C119.712 236.037 119.04 236.695 117.822 236.695ZM117.822 240.937C116.184 240.937 115.792 240.167 115.792 239.327C115.792 238.389 116.464 237.675 117.822 237.675C119.18 237.675 119.852 238.389 119.852 239.327C119.852 240.167 119.46 240.937 117.822 240.937ZM126.217 242.085C128.541 242.085 129.829 240.447 129.829 237.535V237.213C129.829 233.503 128.359 232.425 126.315 232.425C124.397 232.425 123.081 233.811 123.081 235.631C123.081 237.339 123.921 238.725 125.839 238.725C127.351 238.725 128.387 237.815 128.541 236.233V237.255C128.541 240.181 127.435 240.909 126.315 240.909C125.307 240.909 124.607 240.293 124.243 239.355L123.207 240.223C123.753 241.329 124.789 242.085 126.217 242.085ZM126.315 237.591C124.971 237.591 124.355 236.793 124.355 235.561C124.355 234.441 125.125 233.587 126.343 233.587C127.589 233.587 128.387 234.231 128.387 235.757C128.387 236.975 127.533 237.591 126.315 237.591ZM135.671 242.085C138.233 242.085 139.437 239.971 139.437 237.241C139.437 234.539 138.233 232.425 135.671 232.425C133.095 232.425 131.891 234.539 131.891 237.241C131.891 239.971 133.095 242.085 135.671 242.085ZM135.685 240.923C133.823 240.923 133.179 239.397 133.179 237.241C133.179 235.113 133.823 233.573 135.685 233.573C137.533 233.573 138.163 235.113 138.163 237.241C138.163 239.397 137.533 240.923 135.685 240.923ZM147.611 241.945V232.565H146.589C146.141 233.181 145.469 233.405 144.713 233.405V234.245H146.393V241.945H147.611ZM156.273 241.945V240.867H152.395L151.247 240.951L152.255 240.097L153.711 238.725C154.565 237.913 156.035 236.513 156.035 234.973C156.035 233.531 155.209 232.425 153.375 232.425C151.219 232.425 149.749 233.909 149.945 235.757L151.079 236.471C150.841 234.609 151.723 233.601 153.291 233.601C154.355 233.601 154.775 234.301 154.775 235.057C154.775 236.093 153.977 236.961 152.955 237.969L149.889 240.993V241.945H156.273ZM161.441 242.085C163.765 242.085 164.885 241.049 164.885 239.537C164.885 238.585 164.297 237.563 162.757 237.185C163.961 236.989 164.605 236.079 164.605 234.987C164.605 233.587 163.485 232.425 161.441 232.425C159.383 232.425 158.277 233.587 158.277 235.001C158.277 236.079 158.837 236.989 160.055 237.185C158.515 237.563 157.997 238.585 157.997 239.537C157.997 241.049 159.103 242.085 161.441 242.085ZM161.441 236.695C160.083 236.695 159.565 236.037 159.565 235.141C159.565 234.329 160.097 233.573 161.441 233.573C162.785 233.573 163.331 234.329 163.331 235.141C163.331 236.037 162.659 236.695 161.441 236.695ZM161.441 240.937C159.803 240.937 159.411 240.167 159.411 239.327C159.411 238.389 160.083 237.675 161.441 237.675C162.799 237.675 163.471 238.389 163.471 239.327C163.471 240.167 163.079 240.937 161.441 240.937ZM169.836 242.085C172.16 242.085 173.448 240.447 173.448 237.535V237.213C173.448 233.503 171.978 232.425 169.934 232.425C168.016 232.425 166.7 233.811 166.7 235.631C166.7 237.339 167.54 238.725 169.458 238.725C170.97 238.725 172.006 237.815 172.16 236.233V237.255C172.16 240.181 171.054 240.909 169.934 240.909C168.926 240.909 168.226 240.293 167.862 239.355L166.826 240.223C167.372 241.329 168.408 242.085 169.836 242.085ZM169.934 237.591C168.59 237.591 167.974 236.793 167.974 235.561C167.974 234.441 168.744 233.587 169.962 233.587C171.208 233.587 172.006 234.231 172.006 235.757C172.006 236.975 171.152 237.591 169.934 237.591Z" fill="white"/>
<path d="M223.151 112.95C222.981 113 222.809 113.05 222.637 113.099C221.149 113.524 219.656 113.939 218.174 114.377C216.896 114.749 215.644 115.203 214.425 115.737C213.325 116.223 212.265 116.785 211.283 117.483C210.658 117.927 210.151 118.483 209.832 119.182C209.662 119.534 209.582 119.922 209.599 120.312C209.616 120.784 209.81 121.231 210.143 121.567C210.611 122.051 211.168 122.397 211.782 122.662C212.449 122.938 213.141 123.149 213.849 123.292C214.512 123.438 215.178 123.573 215.842 123.713C215.864 123.717 215.884 123.728 215.899 123.744C215.607 123.802 215.316 123.866 215.019 123.916C214.337 124.037 213.645 124.092 212.951 124.083C211.97 124.063 211.014 123.913 210.113 123.501C209.442 123.205 208.855 122.748 208.405 122.171C208.077 121.741 207.866 121.234 207.792 120.7C207.644 119.721 207.883 118.818 208.352 117.965C208.848 117.064 209.559 116.37 210.433 115.825C211.905 114.916 213.506 114.23 215.182 113.79C216.067 113.551 216.967 113.368 217.876 113.243C218.48 113.161 219.087 113.093 219.694 113.044C220.301 112.995 220.901 112.968 221.506 112.951C222.056 112.937 222.603 112.95 223.151 112.95Z" fill="white"/>
<path d="M213.251 120.139C213.603 120.077 213.954 119.999 214.307 119.943C214.932 119.841 215.564 119.795 216.197 119.805C217.179 119.825 218.135 119.975 219.035 120.388C219.707 120.684 220.293 121.142 220.742 121.72C221.07 122.15 221.28 122.657 221.355 123.191C221.501 124.167 221.263 125.066 220.795 125.919C220.309 126.804 219.617 127.492 218.761 128.032C217.359 128.907 215.837 129.577 214.244 130.02C213.268 130.3 212.272 130.509 211.266 130.645C210.595 130.735 209.92 130.804 209.245 130.86C208.714 130.905 208.177 130.923 207.644 130.938C207.097 130.951 206.549 130.941 206 130.941C206.101 130.911 206.203 130.878 206.305 130.851C207.614 130.481 208.925 130.116 210.232 129.74C211.45 129.388 212.655 128.996 213.834 128.528C215.138 128.01 216.39 127.394 217.561 126.621C218.098 126.267 218.578 125.857 218.955 125.333C219.241 124.934 219.453 124.503 219.527 124.013C219.605 123.566 219.527 123.106 219.307 122.709C219.175 122.472 218.977 122.282 218.776 122.099C218.288 121.658 217.717 121.357 217.107 121.121C216.41 120.851 215.687 120.674 214.959 120.521C214.407 120.404 213.855 120.29 213.303 120.175C213.286 120.171 213.27 120.166 213.253 120.161L213.251 120.139Z" fill="white"/>
<path d="M229.376 129.107C231.59 129.107 233.336 127.955 233.336 125.849C233.336 123.635 231.662 122.915 229.808 122.483L228.386 122.141C226.82 121.763 225.938 121.223 225.938 119.909C225.938 118.595 227.108 117.839 228.566 117.839C230.312 117.839 231.608 118.631 232.166 120.323L233.156 119.531C232.454 117.713 230.798 116.723 228.584 116.723C226.55 116.723 224.696 117.857 224.696 119.999C224.696 122.105 226.316 122.843 228.008 123.239L229.322 123.527C231.158 123.959 232.148 124.463 232.148 125.885C232.148 127.415 230.852 128.009 229.376 128.009C227.792 128.009 225.83 127.253 225.254 125.183L224.336 125.975C225.11 128.207 227.198 129.107 229.376 129.107ZM238.107 128.945L239.943 123.185L240.447 121.295L240.933 123.185L242.769 128.945H244.299L246.657 120.305H245.325L243.921 126.137L243.525 128.063L243.003 126.137L241.167 120.305H239.709L237.873 126.137L237.351 128.063L236.955 126.137L235.533 120.305H234.219L236.577 128.945H238.107ZM249.404 118.757V116.885H248.216V118.757H249.404ZM249.404 128.945V120.305H248.216V128.945H249.404ZM254.751 129.143C255.867 129.143 256.713 128.621 257.091 127.991L256.677 126.839C256.389 127.451 255.759 128.009 254.985 128.009C254.229 128.009 253.581 127.667 253.581 126.425V121.223H256.479V120.305H253.581V118.181L252.411 119.063V120.305H251.007V121.223H252.411V126.749C252.411 128.315 253.437 129.143 254.751 129.143ZM261.553 129.125C263.713 129.125 265.063 127.865 265.405 126.119L264.271 125.633C264.091 127.091 263.227 128.135 261.571 128.135C259.861 128.135 258.727 126.911 258.727 124.625C258.727 122.321 259.861 121.097 261.571 121.097C263.227 121.097 264.091 122.159 264.271 123.617L265.405 123.131C265.063 121.385 263.713 120.125 261.571 120.125C259.123 120.125 257.521 121.817 257.521 124.625C257.521 127.433 259.123 129.125 261.553 129.125ZM268.565 128.945V123.941C268.565 122.447 269.321 121.115 271.175 121.115C272.651 121.115 273.263 121.979 273.263 123.383V128.945H274.451V123.113C274.451 121.133 273.335 120.125 271.661 120.125C269.897 120.125 268.871 121.313 268.565 122.717V116.885H267.377V128.945H268.565ZM278.649 129.125C280.377 129.125 281.493 127.793 281.781 126.551V127.469C281.781 128.567 282.357 128.945 283.221 128.945H284.031V127.883H283.527C283.113 127.883 282.915 127.721 282.915 127.271V123.221C282.915 121.295 281.871 120.125 279.855 120.125C278.019 120.125 276.759 121.151 276.219 122.051L277.047 122.879C277.497 121.925 278.433 121.187 279.729 121.187C281.133 121.187 281.745 121.943 281.745 123.239V123.311L278.469 124.805C277.263 125.345 276.417 126.065 276.417 127.199C276.417 128.351 277.227 129.125 278.649 129.125ZM277.605 127.037C277.605 126.389 278.037 125.957 278.973 125.525L281.781 124.193V125.723C281.781 126.893 280.593 128.135 278.991 128.135C278.145 128.135 277.605 127.757 277.605 127.037Z" fill="white"/>
<path d="M34.564 160.945V148.737L34.424 146.245L36.104 148.737L44.7 160.945H46.884V142.185H44.448V154.169L44.588 157.025L42.656 154.113L34.284 142.185H32.128V160.945H34.564ZM64.4249 161.225C68.5129 161.225 70.9489 158.733 70.9489 154.925C70.9489 151.313 69.0169 148.709 65.2929 148.709C62.8289 148.709 61.3449 150.025 60.7569 151.677L61.2609 144.481H69.5209V142.185H58.8529L58.2649 152.937L60.6729 153.189L60.7009 152.881C60.8129 151.621 62.2129 150.725 64.2569 150.725C66.3009 150.725 68.3729 151.873 68.3729 154.925C68.3729 157.361 67.0849 158.901 64.5089 158.901C61.8769 158.901 60.1969 157.333 59.5249 154.897L57.5649 156.969C58.5169 159.349 61.0649 161.225 64.4249 161.225ZM74.5362 163.801C76.4402 163.577 76.9722 162.597 76.9722 160.945V157.305H74.0322V160.945H75.4042V161.337C75.4042 162.121 74.9562 162.317 74.0042 162.457L74.5362 163.801ZM84.5937 160.945C84.5937 152.965 87.0857 148.905 91.2297 144.957V142.185H78.9377V144.481H89.0177C85.9377 147.449 81.9337 151.621 81.9337 160.945H84.5937ZM100.109 161.225C104.197 161.225 106.632 158.733 106.632 154.925C106.632 151.313 104.701 148.709 100.977 148.709C98.5125 148.709 97.0285 150.025 96.4405 151.677L96.9445 144.481H105.204V142.185H94.5365L93.9485 152.937L96.3565 153.189L96.3845 152.881C96.4965 151.621 97.8965 150.725 99.9405 150.725C101.985 150.725 104.057 151.873 104.057 154.925C104.057 157.361 102.769 158.901 100.193 158.901C97.5605 158.901 95.8805 157.333 95.2085 154.897L93.2485 156.969C94.2005 159.349 96.7485 161.225 100.109 161.225ZM116.726 161.225C121.85 161.225 124.258 156.997 124.258 151.537C124.258 146.133 121.85 141.905 116.726 141.905C111.574 141.905 109.166 146.133 109.166 151.537C109.166 156.997 111.574 161.225 116.726 161.225ZM116.754 158.901C113.03 158.901 111.742 155.849 111.742 151.537C111.742 147.281 113.03 144.201 116.754 144.201C120.45 144.201 121.71 147.281 121.71 151.537C121.71 155.849 120.45 158.901 116.754 158.901ZM127.282 163.801C129.186 163.577 129.718 162.597 129.718 160.945V157.305H126.778V160.945H128.15V161.337C128.15 162.121 127.702 162.317 126.75 162.457L127.282 163.801ZM146.015 160.945V158.789H138.258L135.963 158.957L137.979 157.249L140.891 154.505C142.599 152.881 145.539 150.081 145.539 147.001C145.539 144.117 143.887 141.905 140.219 141.905C135.907 141.905 132.967 144.873 133.359 148.569L135.627 149.997C135.151 146.273 136.915 144.257 140.051 144.257C142.179 144.257 143.019 145.657 143.019 147.169C143.019 149.241 141.423 150.977 139.379 152.993L133.247 159.041V160.945H146.015ZM155.855 161.225C160.979 161.225 163.387 156.997 163.387 151.537C163.387 146.133 160.979 141.905 155.855 141.905C150.703 141.905 148.295 146.133 148.295 151.537C148.295 156.997 150.703 161.225 155.855 161.225ZM155.883 158.901C152.159 158.901 150.871 155.849 150.871 151.537C150.871 147.281 152.159 144.201 155.883 144.201C159.579 144.201 160.839 147.281 160.839 151.537C160.839 155.849 159.579 158.901 155.883 158.901Z" fill="white"/>
<path opacity="0.54" d="M35.096 126.057C37.196 126.057 38.61 124.937 39.212 123.005L38.12 122.291C37.812 123.859 36.888 124.909 35.11 124.909C32.968 124.909 31.988 123.383 31.988 121.241C31.988 119.099 32.968 117.573 35.11 117.573C36.888 117.573 37.812 118.623 38.12 120.191L39.212 119.477C38.61 117.545 37.196 116.425 35.096 116.425C32.254 116.425 30.7 118.539 30.7 121.241C30.7 123.943 32.254 126.057 35.096 126.057ZM42.8271 126.085C44.1851 126.085 44.9131 125.161 45.1651 124.097V125.945H46.3691V119.169H45.1651V123.019C45.1651 124.139 44.6891 125.063 43.3731 125.063C42.2251 125.063 41.8751 124.433 41.8751 123.565V119.169H40.6711V123.859C40.6711 125.287 41.4971 126.085 42.8271 126.085ZM49.4369 125.945V122.109C49.4369 120.947 50.2209 119.925 51.0889 119.925C51.5789 119.925 51.7889 120.261 51.7889 120.653C51.7889 121.031 51.6069 121.451 51.3829 121.647H52.7129C52.8249 121.479 52.9789 121.059 52.9789 120.485C52.9789 119.533 52.2789 119.015 51.5509 119.015C50.4029 119.015 49.7029 119.925 49.4369 120.975V119.169H48.2189V125.945H49.4369ZM55.2611 125.945V122.109C55.2611 120.947 56.0451 119.925 56.9131 119.925C57.4031 119.925 57.6131 120.261 57.6131 120.653C57.6131 121.031 57.4311 121.451 57.2071 121.647H58.5371C58.6491 121.479 58.8031 121.059 58.8031 120.485C58.8031 119.533 58.1031 119.015 57.3751 119.015C56.2271 119.015 55.5271 119.925 55.2611 120.975V119.169H54.0431V125.945H55.2611ZM62.6557 126.085C64.1257 126.085 65.0637 125.399 65.5677 124.587L64.8257 123.747C64.5597 124.335 64.0137 125.077 62.6557 125.077C61.4517 125.077 60.6537 124.265 60.5837 122.837H65.6097C65.6377 122.711 65.6657 122.501 65.6657 122.291C65.6657 120.303 64.5037 119.029 62.5857 119.029C60.7237 119.029 59.4077 120.415 59.4077 122.557C59.4077 124.713 60.7377 126.085 62.6557 126.085ZM62.5857 120.051C63.7197 120.051 64.4477 120.709 64.5737 121.955H60.6117C60.7657 120.695 61.4937 120.051 62.5857 120.051ZM68.4272 125.945V122.109C68.4272 120.975 68.9032 120.065 70.2052 120.065C71.3532 120.065 71.7032 120.681 71.7032 121.563V125.945H72.9072V121.269C72.9072 119.827 72.0812 119.029 70.7512 119.029C69.4212 119.029 68.6932 119.925 68.4272 120.975V119.169H67.2092V125.945H68.4272ZM76.7916 126.099C77.7296 126.099 78.3736 125.665 78.6676 125.203L78.2616 123.999C78.0796 124.419 77.6596 124.923 77.0576 124.923C76.5256 124.923 76.1196 124.713 76.1196 123.845V120.121H78.3456V119.169H76.1196V117.405L74.9016 118.301V119.169H73.8096V120.121H74.9016V124.209C74.9016 125.371 75.6856 126.099 76.7916 126.099ZM86.8818 125.945C88.9118 125.945 90.1158 125.021 90.1158 123.425C90.1158 122.221 89.4298 121.255 87.4698 121.045C89.0378 120.877 89.6958 119.967 89.6958 118.959C89.6958 117.531 88.7438 116.565 86.9518 116.565H82.9898V125.945H86.8818ZM86.5318 117.643C87.6518 117.643 88.4358 117.993 88.4358 119.113C88.4358 120.247 87.6658 120.583 86.5878 120.583H84.2078V117.643H86.5318ZM86.7278 121.675C87.9458 121.675 88.8558 122.137 88.8558 123.271C88.8558 124.391 88.1698 124.867 86.6858 124.867H84.2078V121.675H86.7278ZM93.1775 126.085C94.5775 126.085 95.3055 125.077 95.5295 124.181V124.657C95.5295 125.609 96.0335 125.945 96.7335 125.945H97.5175V124.839H97.0835C96.8315 124.839 96.7055 124.741 96.7055 124.419V121.633C96.7055 120.023 95.8095 119.029 94.1435 119.029C92.6315 119.029 91.6235 119.883 91.2175 120.583L92.0435 121.437C92.3935 120.695 93.0375 120.135 94.0035 120.135C95.0675 120.135 95.4455 120.723 95.4875 121.521L93.0375 122.613C92.0715 123.047 91.3855 123.621 91.3855 124.531C91.3855 125.427 92.0295 126.085 93.1775 126.085ZM92.6175 124.335C92.6175 123.915 92.9115 123.635 93.5555 123.327L95.5295 122.403V123.341C95.5295 124.321 94.7175 125.077 93.5695 125.077C92.9395 125.077 92.6175 124.797 92.6175 124.335ZM100.146 125.945V116.565H98.9279V125.945H100.146ZM103.377 126.085C104.777 126.085 105.505 125.077 105.729 124.181V124.657C105.729 125.609 106.233 125.945 106.933 125.945H107.717V124.839H107.283C107.031 124.839 106.905 124.741 106.905 124.419V121.633C106.905 120.023 106.009 119.029 104.343 119.029C102.831 119.029 101.823 119.883 101.417 120.583L102.243 121.437C102.593 120.695 103.237 120.135 104.203 120.135C105.267 120.135 105.645 120.723 105.687 121.521L103.237 122.613C102.271 123.047 101.585 123.621 101.585 124.531C101.585 125.427 102.229 126.085 103.377 126.085ZM102.817 124.335C102.817 123.915 103.111 123.635 103.755 123.327L105.729 122.403V123.341C105.729 124.321 104.917 125.077 103.769 125.077C103.139 125.077 102.817 124.797 102.817 124.335ZM110.345 125.945V122.109C110.345 120.975 110.821 120.065 112.123 120.065C113.271 120.065 113.621 120.681 113.621 121.563V125.945H114.825V121.269C114.825 119.827 113.999 119.029 112.669 119.029C111.339 119.029 110.611 119.925 110.345 120.975V119.169H109.127V125.945H110.345ZM119.42 126.085C121.184 126.085 122.22 125.063 122.542 123.705L121.352 123.215C121.212 124.293 120.652 125.077 119.434 125.077C118.202 125.077 117.46 124.153 117.46 122.557C117.46 120.961 118.202 120.051 119.434 120.051C120.652 120.051 121.212 120.821 121.352 121.899L122.542 121.409C122.22 120.051 121.184 119.029 119.42 119.029C117.474 119.029 116.228 120.415 116.228 122.557C116.228 124.713 117.474 126.085 119.42 126.085ZM126.749 126.085C128.219 126.085 129.157 125.399 129.661 124.587L128.919 123.747C128.653 124.335 128.107 125.077 126.749 125.077C125.545 125.077 124.747 124.265 124.677 122.837H129.703C129.731 122.711 129.759 122.501 129.759 122.291C129.759 120.303 128.597 119.029 126.679 119.029C124.817 119.029 123.501 120.415 123.501 122.557C123.501 124.713 124.831 126.085 126.749 126.085ZM126.679 120.051C127.813 120.051 128.541 120.709 128.667 121.955H124.705C124.859 120.695 125.587 120.051 126.679 120.051Z" fill="white"/>
<defs>
<linearGradient id="paint0_linear_1067_7301" x1="152.794" y1="-23.6451" x2="157.997" y2="160.477" gradientUnits="userSpaceOnUse">
<stop stop-color="#9C2CF3"/>
<stop offset="1" stop-color="#3A49F9"/>
</linearGradient>
<linearGradient id="paint1_linear_1067_7301" x1="156.419" y1="8.38755" x2="162.495" y2="223.403" gradientUnits="userSpaceOnUse">
<stop stop-color="#9C2CF3"/>
<stop offset="1" stop-color="#3A49F9"/>
</linearGradient>
<linearGradient id="paint2_linear_1067_7301" x1="158.586" y1="52.4393" x2="165.299" y2="289.98" gradientUnits="userSpaceOnUse">
<stop stop-color="#9C2CF3"/>
<stop offset="1" stop-color="#3A49F9"/>
</linearGradient>
</defs>
</svg>
