<svg width="112" height="103" viewBox="0 0 112 103" fill="none" xmlns="http://www.w3.org/2000/svg">
<path d="M9.61702 95.42C10.6437 95.42 11.6377 95.2893 12.599 95.028C13.5697 94.7667 14.4377 94.3747 15.203 93.852C15.9684 93.32 16.575 92.6527 17.023 91.85C17.4804 91.038 17.709 90.0907 17.709 89.008C17.709 87.9907 17.5177 87.1507 17.135 86.488C16.7617 85.8253 16.281 85.2933 15.693 84.892C15.1143 84.4813 14.5077 84.164 13.873 83.94C13.2383 83.7067 12.6597 83.52 12.137 83.38L8.63702 82.428C8.20768 82.316 7.78768 82.176 7.37702 82.008C6.96635 81.84 6.62568 81.6207 6.35502 81.35C6.08435 81.07 5.94902 80.7107 5.94902 80.272C5.94902 79.796 6.11235 79.3853 6.43902 79.04C6.77502 78.6947 7.20435 78.4333 7.72702 78.256C8.25902 78.0693 8.82368 77.9853 9.42102 78.004C10.3357 78.032 11.1757 78.3027 11.941 78.816C12.7063 79.3293 13.201 80.076 13.425 81.056L17.541 80.356C17.0557 78.4613 16.113 77.01 14.713 76.002C13.313 74.994 11.5677 74.476 9.47702 74.448C8.09568 74.4387 6.83568 74.6533 5.69702 75.092C4.55835 75.5307 3.64835 76.198 2.96702 77.094C2.28568 77.99 1.94502 79.1147 1.94502 80.468C1.94502 81.4293 2.10368 82.2273 2.42102 82.862C2.74768 83.4873 3.15368 83.9913 3.63902 84.374C4.12435 84.7567 4.62368 85.0507 5.13702 85.256C5.65968 85.4613 6.11702 85.62 6.50902 85.732L11.745 87.272C12.529 87.5053 13.0517 87.7993 13.313 88.154C13.5743 88.4993 13.705 88.8773 13.705 89.288C13.705 89.848 13.5137 90.3193 13.131 90.702C12.7577 91.0847 12.277 91.374 11.689 91.57C11.101 91.766 10.4943 91.864 9.86902 91.864C8.74902 91.864 7.75035 91.5513 6.87302 90.926C5.99568 90.3007 5.41702 89.4093 5.13702 88.252L1.16102 88.84C1.36635 90.2027 1.85168 91.3787 2.61702 92.368C3.39168 93.348 4.37635 94.104 5.57102 94.636C6.77502 95.1587 8.12368 95.42 9.61702 95.42ZM24.0062 95H26.9182L30.2222 85.144L33.5262 95H36.4382L41.0582 79.88H37.3342L34.5902 88.896L31.8042 79.88H28.6402L25.8542 88.896L23.1102 79.88L19.3862 79.852L24.0062 95ZM43.8709 77.78H47.6789V74.42H43.8709V77.78ZM43.8709 95H47.6789V79.88H43.8709V95ZM60.948 95V91.836C60.052 91.9573 59.2353 91.9947 58.498 91.948C57.7607 91.9013 57.224 91.612 56.888 91.08C56.7107 90.8 56.6127 90.4267 56.594 89.96C56.5847 89.484 56.58 88.952 56.58 88.364V82.82H60.948V79.88H56.58V75.68H52.772V79.88H50.196V82.82H52.772V88.588C52.772 89.4933 52.7813 90.3053 52.8 91.024C52.8187 91.7333 53.0147 92.4333 53.388 93.124C53.7987 93.8613 54.396 94.398 55.18 94.734C55.9733 95.0607 56.8693 95.2333 57.868 95.252C58.876 95.28 59.9027 95.196 60.948 95ZM70.1338 95.42C71.8884 95.42 73.3631 94.986 74.5578 94.118C75.7524 93.25 76.5644 92.0133 76.9938 90.408L73.1018 89.596C72.8778 90.324 72.5418 90.884 72.0938 91.276C71.6458 91.668 70.9924 91.864 70.1338 91.864C68.9858 91.864 68.1178 91.458 67.5298 90.646C66.9511 89.8247 66.6618 88.756 66.6618 87.44C66.6618 86.18 66.9371 85.13 67.4878 84.29C68.0478 83.4407 68.9298 83.016 70.1338 83.016C70.8338 83.016 71.4591 83.2353 72.0098 83.674C72.5698 84.1127 72.9618 84.724 73.1858 85.508L76.9938 84.5C76.6578 82.9413 75.8831 81.714 74.6698 80.818C73.4658 79.9127 71.9724 79.46 70.1898 79.46C68.6498 79.46 67.3151 79.8053 66.1858 80.496C65.0564 81.1867 64.1791 82.134 63.5538 83.338C62.9378 84.542 62.6298 85.9093 62.6298 87.44C62.6298 88.952 62.9284 90.31 63.5258 91.514C64.1231 92.718 64.9818 93.67 66.1018 94.37C67.2218 95.07 68.5658 95.42 70.1338 95.42ZM79.766 95H83.63V87.328C83.63 86.3853 83.7327 85.6293 83.938 85.06C84.1527 84.4907 84.4233 84.0613 84.75 83.772C85.0767 83.4733 85.4267 83.2727 85.8 83.17C86.1733 83.0673 86.5233 83.016 86.85 83.016C87.662 83.016 88.2873 83.198 88.726 83.562C89.174 83.926 89.496 84.3787 89.692 84.92C89.888 85.4613 90.0047 86.0027 90.042 86.544C90.0793 87.076 90.098 87.5147 90.098 87.86V95H93.962V86.516C93.962 86.264 93.9433 85.8627 93.906 85.312C93.8687 84.7613 93.7613 84.1547 93.584 83.492C93.4067 82.82 93.108 82.176 92.688 81.56C92.2773 80.944 91.6987 80.4353 90.952 80.034C90.2053 79.6327 89.2393 79.432 88.054 79.432C86.962 79.432 86.01 79.614 85.198 79.978C84.386 80.342 83.7047 80.8273 83.154 81.434V74.84H79.766V95ZM101.795 95.42C102.961 95.42 103.941 95.2427 104.735 94.888C105.537 94.524 106.275 93.9453 106.947 93.152V95H110.279V85.76C110.279 85.0693 110.251 84.444 110.195 83.884C110.139 83.324 109.961 82.764 109.663 82.204C109.131 81.196 108.347 80.4867 107.311 80.076C106.275 79.6653 105.089 79.46 103.755 79.46C101.935 79.46 100.497 79.852 99.4428 80.636C98.3881 81.42 97.6694 82.4373 97.2868 83.688L100.731 84.78C100.973 84.0893 101.398 83.6087 102.005 83.338C102.611 83.0673 103.195 82.932 103.755 82.932C104.651 82.932 105.318 83.1 105.757 83.436C106.195 83.7627 106.452 84.2807 106.527 84.99C105.108 85.1953 103.857 85.396 102.775 85.592C101.692 85.7787 100.787 86.0027 100.059 86.264C98.8454 86.712 97.9914 87.3233 97.4968 88.098C97.0021 88.8633 96.7548 89.7733 96.7548 90.828C96.7548 91.668 96.9461 92.438 97.3288 93.138C97.7208 93.8287 98.2901 94.384 99.0368 94.804C99.7928 95.2147 100.712 95.42 101.795 95.42ZM102.607 92.424C101.953 92.424 101.435 92.2793 101.053 91.99C100.67 91.6913 100.479 91.2853 100.479 90.772C100.479 90.3893 100.6 90.0627 100.843 89.792C101.085 89.512 101.487 89.26 102.047 89.036C102.476 88.8773 103.003 88.7327 103.629 88.602C104.263 88.462 105.22 88.2847 106.499 88.07C106.489 88.434 106.461 88.8353 106.415 89.274C106.368 89.7033 106.265 90.0813 106.107 90.408C106.004 90.6227 105.808 90.8887 105.519 91.206C105.239 91.5233 104.856 91.808 104.371 92.06C103.895 92.3027 103.307 92.424 102.607 92.424Z" fill="white"/>
<path d="M79.4785 0.0150736C79.0268 0.146745 78.5717 0.28175 78.1151 0.411756C74.1682 1.54513 70.2114 2.65185 66.2813 3.81856C62.8927 4.81134 59.5722 6.02339 56.3409 7.44704C53.4224 8.74375 50.6123 10.2421 48.0072 12.1022C46.3521 13.2873 45.0071 14.769 44.1604 16.6341C43.7108 17.5728 43.4985 18.6076 43.542 19.6475C43.5888 20.9041 44.1036 22.0978 44.9854 22.9943C46.2255 24.2844 47.7022 25.2077 49.3306 25.9128C51.0997 26.648 52.9355 27.2111 54.8125 27.5945C56.5709 27.9812 58.3359 28.3429 60.0977 28.7162C60.1562 28.7261 60.2096 28.7555 60.2494 28.7995C59.4743 28.9529 58.7026 29.1229 57.9159 29.2579C56.1062 29.5787 54.2701 29.7272 52.4324 29.7013C49.8289 29.6496 47.2955 29.2479 44.9054 28.1495C43.1254 27.3606 41.5693 26.1419 40.3769 24.6027C39.5079 23.4562 38.9478 22.1059 38.7502 20.6809C38.3602 18.0708 38.9918 15.6624 40.2369 13.3873C41.5519 10.9838 43.437 9.13544 45.7538 7.68038C49.6581 5.25595 53.9022 3.42743 58.3459 2.25516C60.694 1.6159 63.0807 1.12821 65.4912 0.795105C67.093 0.576763 68.7014 0.395089 70.3114 0.265084C71.9215 0.135078 73.5115 0.0617425 75.1149 0.0167407C76.5733 -0.0199275 78.0251 0.0150736 79.4785 0.0150736Z" fill="white"/>
<path d="M53.2274 19.1857C54.1608 19.019 55.0908 18.8124 56.0275 18.6623C57.6838 18.3903 59.3612 18.2676 61.0394 18.2957C63.6428 18.349 66.1763 18.749 68.5647 19.8491C70.3447 20.6394 71.9004 21.86 73.0915 23.4009C73.9591 24.5484 74.5181 25.8993 74.7149 27.3244C75.1016 29.9261 74.4716 32.3246 73.2315 34.598C71.9415 36.9581 70.1064 38.7931 67.8363 40.2332C64.1192 42.5663 60.0854 44.3519 55.8592 45.5351C53.2708 46.2814 50.6315 46.8384 47.9622 47.2018C46.1838 47.4418 44.3954 47.6252 42.6053 47.7752C41.1953 47.8935 39.7719 47.9418 38.3602 47.9818C36.9101 48.0168 35.4567 47.9902 34 47.9902C34.2683 47.9102 34.5384 47.8235 34.8084 47.7502C38.2802 46.7635 41.7553 45.7918 45.2204 44.7867C48.4522 43.85 51.6474 42.805 54.7742 41.5549C58.2293 40.1732 61.5494 38.5315 64.6562 36.4714C66.0796 35.5264 67.353 34.433 68.3514 33.0362C69.1114 31.9729 69.6731 30.8212 69.8698 29.5161C70.0754 28.324 69.8697 27.0974 69.2864 26.0376C68.9347 25.4076 68.4114 24.8993 67.878 24.4126C66.583 23.2359 65.0679 22.4325 63.4512 21.8025C61.6044 21.0824 59.6877 20.6124 57.7559 20.2024C56.2925 19.8907 54.8292 19.5874 53.3641 19.2807C53.3208 19.2707 53.2774 19.2557 53.2324 19.244L53.2274 19.1857Z" fill="white"/>
</svg>
