<svg width="40" height="40" viewBox="0 0 40 40" fill="none" xmlns="http://www.w3.org/2000/svg">
<path d="M20 40C31.084 40 40 31.084 40 20C40 8.916 31.084 0 20 0C8.916 0 0 8.916 0 20C0 31.084 8.916 40 20 40Z" fill="#2775CA"/>
<path d="M25.5 23.166C25.5 20.25 23.75 19.25 20.25 18.832C17.75 18.498 17.25 17.832 17.25 16.666C17.25 15.5 18.084 14.75 19.75 14.75C21.25 14.75 22.084 15.25 22.5 16.5C22.584 16.75 22.834 16.916 23.084 16.916H24.418C24.752 16.916 25.002 16.666 25.002 16.332V16.248C24.668 14.414 23.168 12.998 21.252 12.832V10.832C21.252 10.498 21.002 10.248 20.586 10.166H19.336C19.002 10.166 18.752 10.416 18.67 10.832V12.748C16.17 13.082 14.586 14.748 14.586 16.832C14.586 19.582 16.252 20.666 19.752 21.082C22.086 21.498 22.836 21.998 22.836 23.332C22.836 24.666 21.67 25.582 20.086 25.582C17.92 25.582 17.17 24.666 16.92 23.416C16.836 23.082 16.586 22.916 16.336 22.916H14.92C14.586 22.916 14.336 23.166 14.336 23.5V23.584C14.67 25.668 16.002 27.168 18.752 27.584V29.584C18.752 29.918 19.002 30.168 19.418 30.25H20.668C21.002 30.25 21.252 30 21.334 29.584V27.584C23.832 27.166 25.5 25.416 25.5 23.166Z" fill="white"/>
<path d="M15.75 31.916C9.24997 29.582 5.91597 22.332 8.33397 15.916C9.58397 12.416 12.334 9.74998 15.75 8.49998C16.084 8.33398 16.25 8.08399 16.25 7.66599V6.49998C16.25 6.16598 16.084 5.91598 15.75 5.83398C15.666 5.83398 15.5 5.83398 15.416 5.91798C7.49997 8.41798 3.16597 16.834 5.66597 24.752C7.16597 29.418 10.75 33.002 15.416 34.502C15.75 34.668 16.082 34.502 16.166 34.168C16.25 34.084 16.25 34.002 16.25 33.834V32.668C16.25 32.416 16 32.084 15.75 31.916ZM24.582 5.91598C24.248 5.74998 23.916 5.91598 23.832 6.24998C23.748 6.33398 23.748 6.41598 23.748 6.58398V7.74998C23.748 8.08398 23.998 8.41598 24.248 8.58398C30.748 10.918 34.082 18.168 31.664 24.584C30.414 28.084 27.664 30.75 24.248 32C23.914 32.166 23.748 32.416 23.748 32.834V34C23.748 34.334 23.914 34.584 24.248 34.666C24.332 34.666 24.498 34.666 24.582 34.582C32.498 32.082 36.832 23.666 34.332 15.748C32.832 11 29.166 7.41598 24.582 5.91598Z" fill="white"/>
</svg>
