<svg width="28" height="28" viewBox="0 0 28 28" fill="none" xmlns="http://www.w3.org/2000/svg">
<path d="M28 13.9999C28 21.732 21.7321 28 14.0001 28C6.26801 28 0 21.732 0 13.9999C0 6.26789 6.26801 -0.00012207 14.0001 -0.00012207C21.732 -0.00012207 28 6.26789 28 13.9999Z" fill="#00A478"/>
<path d="M12.3175 12.85V10.1273H8.62463V7.74072H18.9439V10.1609H15.2511V12.85H12.3175Z" fill="white"/>
<path fill-rule="evenodd" clip-rule="evenodd" d="M7.03711 13.1526C7.03711 12.245 10.0052 11.5055 13.6981 11.5055C17.3909 11.5055 20.359 12.245 20.359 13.1526C20.359 14.0601 17.3909 14.7997 13.6981 14.7997C10.0052 14.7997 7.03711 14.0601 7.03711 13.1526ZM19.8069 13.1526C19.5653 12.8165 17.5635 11.7744 13.6981 11.7744C9.83271 11.7744 7.83098 12.7828 7.58939 13.1526C7.83098 13.4887 9.83271 13.9929 13.6981 13.9929C17.5981 13.9929 19.5653 13.4887 19.8069 13.1526Z" fill="white"/>
<path d="M15.2511 13.6906V11.8082C14.7679 11.7746 14.2502 11.741 13.7326 11.741C13.2494 11.741 12.8007 11.741 12.3521 11.7746V13.657C12.7662 13.657 13.2494 13.6906 13.7326 13.6906C14.2502 13.7242 14.7679 13.7242 15.2511 13.6906Z" fill="white"/>
<path d="M13.698 14.8C13.2148 14.8 12.7662 14.8 12.3175 14.7664V19.7749H15.2166V14.7328C14.7334 14.7664 14.2157 14.8 13.698 14.8Z" fill="white"/>
</svg>
