<svg width="40" height="41" viewBox="0 0 40 41" fill="none" xmlns="http://www.w3.org/2000/svg">
<rect y="0.182007" width="40" height="40" rx="8" fill="#000000"/>
<path d="M22.85 12.1321V15.9321H21.35V12.1321C21.35 11.8621 21.11 11.7321 20.95 11.7321C20.9 11.7321 20.85 11.7421 20.8 11.7621L12.87 14.7521C12.34 14.9521 12 15.4521 12 16.0221V16.6921C11.09 17.3721 10.5 18.4621 10.5 19.6921V16.0221C10.5 14.8321 11.23 13.7721 12.34 13.3521L20.28 10.3521C20.5 10.2721 20.73 10.2321 20.95 10.2321C21.95 10.2321 22.85 11.0421 22.85 12.1321Z" fill="white"/>
<path d="M29.5 22.682V23.682C29.5 23.952 29.29 24.172 29.01 24.182H27.55C27.02 24.182 26.54 23.792 26.5 23.272C26.47 22.962 26.59 22.672 26.79 22.472C26.97 22.282 27.22 22.182 27.49 22.182H29C29.29 22.192 29.5 22.412 29.5 22.682Z" fill="white"/>
<path d="M27.48 21.132H28.5C29.05 21.132 29.5 20.682 29.5 20.132V19.692C29.5 17.622 27.81 15.932 25.74 15.932H14.26C13.41 15.932 12.63 16.212 12 16.692C11.09 17.372 10.5 18.462 10.5 19.692V26.422C10.5 28.492 12.19 30.182 14.26 30.182H25.74C27.81 30.182 29.5 28.492 29.5 26.422V26.232C29.5 25.682 29.05 25.232 28.5 25.232H27.63C26.67 25.232 25.75 24.642 25.5 23.712C25.29 22.952 25.54 22.222 26.04 21.732C26.41 21.352 26.92 21.132 27.48 21.132ZM22 20.932H15C14.59 20.932 14.25 20.592 14.25 20.182C14.25 19.772 14.59 19.432 15 19.432H22C22.41 19.432 22.75 19.772 22.75 20.182C22.75 20.592 22.41 20.932 22 20.932Z" fill="white"/>
</svg>
