<svg width="238" height="167" viewBox="0 0 238 167" fill="none" xmlns="http://www.w3.org/2000/svg">
<g opacity="0.6">
<path d="M190.894 0H51.7447C45.3405 0 40.1489 5.19159 40.1489 11.5957V150.745C40.1489 157.149 45.3405 162.34 51.7447 162.34H190.894C197.298 162.34 202.489 157.149 202.489 150.745V11.5957C202.489 5.19159 197.298 0 190.894 0Z" fill="#F8FAFC"/>
<g filter="url(#filter0_d_2_2167)">
<path d="M65.6597 62.617H222.202C223.74 62.617 225.215 63.2278 226.302 64.3152C227.389 65.4025 228 66.8772 228 68.4149V97.4042C228 98.9419 227.389 100.417 226.302 101.504C225.215 102.591 223.74 103.202 222.202 103.202H65.6597C64.122 103.202 62.6473 102.591 61.56 101.504C60.4727 100.417 59.8618 98.9419 59.8618 97.4042V68.4149C59.8618 66.8772 60.4727 65.4025 61.56 64.3152C62.6473 63.2278 64.122 62.617 65.6597 62.617V62.617Z" fill="white"/>
</g>
<path d="M151.468 71.8936H121.319C119.398 71.8936 117.84 73.4511 117.84 75.3723C117.84 77.2936 119.398 78.8511 121.319 78.8511H151.468C153.389 78.8511 154.947 77.2936 154.947 75.3723C154.947 73.4511 153.389 71.8936 151.468 71.8936Z" fill="#FFEFE6"/>
<path d="M172.34 86.9681H121.319C119.398 86.9681 117.84 88.5256 117.84 90.4468C117.84 92.368 119.398 93.9255 121.319 93.9255H172.34C174.262 93.9255 175.819 92.368 175.819 90.4468C175.819 88.5256 174.262 86.9681 172.34 86.9681Z" fill="#FEDFCD"/>
<path d="M95.2288 93.9255C101.313 93.9255 106.245 88.9935 106.245 82.9096C106.245 76.8256 101.313 71.8936 95.2288 71.8936C89.1449 71.8936 84.2129 76.8256 84.2129 82.9096C84.2129 88.9935 89.1449 93.9255 95.2288 93.9255Z" fill="#F77931"/>
<path d="M100.417 81.4325C100.658 79.8485 99.4298 78.997 97.7507 78.429L98.2954 76.2834L96.9655 75.9579L96.4352 78.0471C96.0856 77.9614 95.7265 77.8808 95.3697 77.8008L95.9038 75.6978L94.5747 75.3724L94.0297 77.5173C93.7403 77.4526 93.4562 77.3887 93.1805 77.3213L93.182 77.3146L91.348 76.8648L90.9942 78.2598C90.9942 78.2598 91.9809 78.4819 91.9601 78.4956C92.4987 78.6276 92.5961 78.9777 92.5799 79.2552L91.9594 81.6996C91.9965 81.7089 92.0446 81.7222 92.0977 81.7432C92.0533 81.7324 92.0061 81.7206 91.9571 81.709L91.0874 85.1333C91.0216 85.2939 90.8545 85.5351 90.478 85.4435C90.4913 85.4625 89.5114 85.2066 89.5114 85.2066L88.8511 86.7017L90.5818 87.1254C90.9037 87.2047 91.2193 87.2877 91.53 87.3657L90.9796 89.5359L92.308 89.8614L92.853 87.7142C93.2159 87.8109 93.5681 87.9002 93.9129 87.9843L93.3697 90.1214L94.6997 90.4468L95.25 88.2807C97.5178 88.7022 99.2231 88.5322 99.9408 86.5177C100.519 84.8958 99.912 83.9603 98.7189 83.3503C99.5879 83.1534 100.242 82.5921 100.417 81.4326L100.417 81.4323L100.417 81.4325ZM97.3779 85.617C96.9669 87.2389 94.1863 86.3622 93.2848 86.1423L94.0151 83.2671C94.9166 83.4881 97.8075 83.9255 97.378 85.617H97.3779ZM97.7892 81.4089C97.4143 82.8842 95.1 82.1347 94.3492 81.9509L95.0113 79.3433C95.7621 79.5271 98.1798 79.8701 97.7893 81.4089H97.7892Z" fill="white"/>
<g filter="url(#filter1_d_2_2167)">
<path d="M15.7979 112.479H172.34C173.878 112.479 175.353 113.09 176.44 114.177C177.527 115.264 178.138 116.739 178.138 118.277V147.266C178.138 148.804 177.527 150.278 176.44 151.366C175.353 152.453 173.878 153.064 172.34 153.064H15.7979C14.2602 153.064 12.7855 152.453 11.6982 151.366C10.6108 150.278 10 148.804 10 147.266V118.277C10 116.739 10.6108 115.264 11.6982 114.177C12.7855 113.09 14.2602 112.479 15.7979 112.479V112.479Z" fill="white"/>
</g>
<path d="M101.606 121.755H71.4572C69.536 121.755 67.9785 123.313 67.9785 125.234C67.9785 127.155 69.536 128.713 71.4572 128.713H101.606C103.527 128.713 105.085 127.155 105.085 125.234C105.085 123.313 103.527 121.755 101.606 121.755Z" fill="#FFEFE6"/>
<path d="M122.479 136.83H71.4572C69.536 136.83 67.9785 138.387 67.9785 140.309C67.9785 142.23 69.536 143.787 71.4572 143.787H122.479C124.4 143.787 125.957 142.23 125.957 140.309C125.957 138.387 124.4 136.83 122.479 136.83Z" fill="#FEDFCD"/>
<path d="M30.2923 143.787C36.3763 143.787 41.3083 138.855 41.3083 132.771C41.3083 126.687 36.3763 121.755 30.2923 121.755C24.2084 121.755 19.2764 126.687 19.2764 132.771C19.2764 138.855 24.2084 143.787 30.2923 143.787Z" fill="#524FC7"/>
<g clip-path="url(#clip0_2_2167)">
<path d="M30.2982 135.108L27.1211 133.597L30.2982 139.149L33.4753 133.597L30.2982 135.108Z" fill="white"/>
<path d="M33.1294 132.47L30.2982 127.553L27.4639 132.476L30.2982 131.132L33.1294 132.47Z" fill="white"/>
<path d="M27.7095 133.114L30.2982 134.34L32.8912 133.112L30.2982 131.886L27.7095 133.114Z" fill="white"/>
</g>
<g filter="url(#filter2_d_2_2167)">
<path d="M172.34 12.7554H15.7979C12.5958 12.7554 10 15.3512 10 18.5532V47.5426C10 50.7447 12.5958 53.3405 15.7979 53.3405H172.34C175.543 53.3405 178.138 50.7447 178.138 47.5426V18.5532C178.138 15.3512 175.543 12.7554 172.34 12.7554Z" fill="white"/>
</g>
<path d="M99.2873 22.0318H69.1384C67.2171 22.0318 65.6597 23.5893 65.6597 25.5105C65.6597 27.4318 67.2171 28.9892 69.1384 28.9892H99.2873C101.209 28.9892 102.766 27.4318 102.766 25.5105C102.766 23.5893 101.209 22.0318 99.2873 22.0318Z" fill="#FFEFE6"/>
<path d="M120.16 37.1063H69.1384C67.2171 37.1063 65.6597 38.6637 65.6597 40.585C65.6597 42.5062 67.2171 44.0637 69.1384 44.0637H120.16C122.081 44.0637 123.638 42.5062 123.638 40.585C123.638 38.6637 122.081 37.1063 120.16 37.1063Z" fill="#FEDFCD"/>
<path d="M45.3665 44.0637C51.4505 44.0637 56.3825 39.1317 56.3825 33.0478C56.3825 26.9638 51.4505 22.0318 45.3665 22.0318C39.2826 22.0318 34.3506 26.9638 34.3506 33.0478C34.3506 39.1317 39.2826 44.0637 45.3665 44.0637Z" fill="white"/>
<path d="M45.3665 22.0318C43.1878 22.0318 41.058 22.6779 39.2464 23.8883C37.4348 25.0988 36.0229 26.8192 35.1891 28.8321C34.3554 30.845 34.1372 33.06 34.5623 35.1969C34.9873 37.3337 36.0365 39.2966 37.5771 40.8372C39.1177 42.3778 41.0805 43.427 43.2174 43.852C45.3543 44.2771 47.5692 44.0589 49.5821 43.2252C51.595 42.3914 53.3155 40.9795 54.5259 39.1679C55.7364 37.3563 56.3825 35.2265 56.3825 33.0478C56.3867 31.6053 56.1067 30.1762 55.5586 28.8419C55.0105 27.5077 54.205 26.2945 53.188 25.2715C52.171 24.2486 50.9625 23.436 49.6315 22.8801C48.3004 22.3243 46.873 22.036 45.4305 22.0318H45.3665ZM45.5532 33.4212L44.4063 37.2888H50.5411C50.5817 37.2873 50.6222 37.2939 50.6603 37.3082C50.6984 37.3224 50.7333 37.344 50.763 37.3718C50.7928 37.3995 50.8167 37.4329 50.8336 37.4699C50.8504 37.5069 50.8598 37.5469 50.8612 37.5875V37.6889L50.3277 39.5293C50.3042 39.6163 50.2518 39.6928 50.1791 39.7461C50.1063 39.7994 50.0177 39.8264 49.9276 39.8227H40.5387L42.1124 34.4614L40.352 34.9949L40.7521 33.7679L42.5125 33.2345L44.7264 25.7127C44.7507 25.6261 44.8034 25.5502 44.8759 25.4971C44.9484 25.4439 45.0366 25.4165 45.1265 25.4193H47.5004C47.541 25.4178 47.5815 25.4244 47.6196 25.4387C47.6577 25.4529 47.6926 25.4746 47.7223 25.5023C47.752 25.53 47.776 25.5634 47.7928 25.6004C47.8097 25.6374 47.8191 25.6774 47.8204 25.718V25.8194L45.9533 32.1675L47.7137 31.6341L47.3403 32.9144L45.5532 33.4212Z" fill="#345D9D"/>
</g>
<defs>
<filter id="filter0_d_2_2167" x="49.8618" y="55.617" width="188.138" height="60.5851" filterUnits="userSpaceOnUse" color-interpolation-filters="sRGB">
<feFlood flood-opacity="0" result="BackgroundImageFix"/>
<feColorMatrix in="SourceAlpha" type="matrix" values="0 0 0 0 0 0 0 0 0 0 0 0 0 0 0 0 0 0 127 0" result="hardAlpha"/>
<feOffset dy="3"/>
<feGaussianBlur stdDeviation="5"/>
<feColorMatrix type="matrix" values="0 0 0 0 0 0 0 0 0 0 0 0 0 0 0 0 0 0 0.05 0"/>
<feBlend mode="normal" in2="BackgroundImageFix" result="effect1_dropShadow_2_2167"/>
<feBlend mode="normal" in="SourceGraphic" in2="effect1_dropShadow_2_2167" result="shape"/>
</filter>
<filter id="filter1_d_2_2167" x="0" y="105.479" width="188.138" height="60.5851" filterUnits="userSpaceOnUse" color-interpolation-filters="sRGB">
<feFlood flood-opacity="0" result="BackgroundImageFix"/>
<feColorMatrix in="SourceAlpha" type="matrix" values="0 0 0 0 0 0 0 0 0 0 0 0 0 0 0 0 0 0 127 0" result="hardAlpha"/>
<feOffset dy="3"/>
<feGaussianBlur stdDeviation="5"/>
<feColorMatrix type="matrix" values="0 0 0 0 0 0 0 0 0 0 0 0 0 0 0 0 0 0 0.05 0"/>
<feBlend mode="normal" in2="BackgroundImageFix" result="effect1_dropShadow_2_2167"/>
<feBlend mode="normal" in="SourceGraphic" in2="effect1_dropShadow_2_2167" result="shape"/>
</filter>
<filter id="filter2_d_2_2167" x="0" y="5.75537" width="188.138" height="60.5851" filterUnits="userSpaceOnUse" color-interpolation-filters="sRGB">
<feFlood flood-opacity="0" result="BackgroundImageFix"/>
<feColorMatrix in="SourceAlpha" type="matrix" values="0 0 0 0 0 0 0 0 0 0 0 0 0 0 0 0 0 0 127 0" result="hardAlpha"/>
<feOffset dy="3"/>
<feGaussianBlur stdDeviation="5"/>
<feColorMatrix type="matrix" values="0 0 0 0 0 0 0 0 0 0 0 0 0 0 0 0 0 0 0.05 0"/>
<feBlend mode="normal" in2="BackgroundImageFix" result="effect1_dropShadow_2_2167"/>
<feBlend mode="normal" in="SourceGraphic" in2="effect1_dropShadow_2_2167" result="shape"/>
</filter>
<clipPath id="clip0_2_2167">
<rect width="11.5957" height="11.5957" fill="white" transform="translate(24.4941 127.553)"/>
</clipPath>
</defs>
</svg>
