<svg width="41" height="40" viewBox="0 0 41 40" fill="none" xmlns="http://www.w3.org/2000/svg">
<path d="M10.793 21.924C10.793 17.3891 15.8193 10.5337 19.5369 8.15168C20.2881 7.67035 20.7405 8.42669 20.2015 9.13303C19.5277 10.016 18.8842 11.0161 18.635 11.8145C17.701 14.8067 18.4204 17.624 20.0589 18.1232C21.6974 18.6224 23.7829 16.6014 24.7168 13.6092C24.8161 13.2913 24.8983 12.9753 24.9641 12.6637C25.127 11.8915 25.9953 11.5012 26.5061 12.1074C28.5063 14.4807 30.793 19.0114 30.793 21.924C30.793 27.4888 26.3158 32 20.793 32C15.2701 32 10.793 27.4888 10.793 21.924Z" stroke="#FB5E04" stroke-width="2"/>
</svg>
