<svg width="24" height="25" viewBox="0 0 24 25" fill="none" xmlns="http://www.w3.org/2000/svg">
                  <path d="M12 0.682037C5.376 0.682037 0 6.05804 0 12.682C0 19.306 5.376 24.682 12 24.682C18.624 24.682 24 19.306 24 12.682C24 6.05804 18.624 0.682037 12 0.682037ZM12 22.282C6.708 22.282 2.4 17.974 2.4 12.682C2.4 7.39004 6.708 3.08204 12 3.08204C17.292 3.08204 21.6 7.39004 21.6 12.682C21.6 17.974 17.292 22.282 12 22.282ZM10.8 17.482H13.2V19.882H10.8V17.482ZM12.732 5.53004C10.26 5.17004 8.076 6.69404 7.416 8.87804C7.2 9.57404 7.728 10.282 8.46 10.282H8.7C9.192 10.282 9.588 9.93404 9.756 9.47804C10.14 8.41004 11.28 7.67804 12.516 7.94204C13.656 8.18204 14.496 9.29804 14.4 10.462C14.28 12.07 12.456 12.418 11.46 13.918C11.46 13.93 11.448 13.93 11.448 13.942C11.436 13.966 11.424 13.978 11.412 14.002C11.304 14.182 11.196 14.386 11.112 14.602C11.1 14.638 11.076 14.662 11.064 14.698C11.052 14.722 11.052 14.746 11.04 14.782C10.896 15.19 10.8 15.682 10.8 16.282H13.2C13.2 15.778 13.332 15.358 13.536 14.998C13.56 14.962 13.572 14.926 13.596 14.89C13.692 14.722 13.812 14.566 13.932 14.422C13.944 14.41 13.956 14.386 13.968 14.374C14.088 14.23 14.22 14.098 14.364 13.966C15.516 12.874 17.076 11.986 16.752 9.69404C16.464 7.60604 14.82 5.84204 12.732 5.53004Z" fill= 'rgba(251, 94, 4, 1)'  />
                </svg>