<svg width="40" height="41" viewBox="0 0 40 41" fill="none" xmlns="http://www.w3.org/2000/svg">
<rect y="0.682007" width="40" height="40" rx="8" fill="#10192D"/>
<path d="M20 8.68201C13.376 8.68201 8 14.058 8 20.682C8 27.306 13.376 32.682 20 32.682C26.624 32.682 32 27.306 32 20.682C32 14.058 26.624 8.68201 20 8.68201ZM20 30.282C14.708 30.282 10.4 25.974 10.4 20.682C10.4 15.39 14.708 11.082 20 11.082C25.292 11.082 29.6 15.39 29.6 20.682C29.6 25.974 25.292 30.282 20 30.282ZM18.8 25.482H21.2V27.882H18.8V25.482ZM20.732 13.53C18.26 13.17 16.076 14.694 15.416 16.878C15.2 17.574 15.728 18.282 16.46 18.282H16.7C17.192 18.282 17.588 17.934 17.756 17.478C18.14 16.41 19.28 15.678 20.516 15.942C21.656 16.182 22.496 17.298 22.4 18.462C22.28 20.07 20.456 20.418 19.46 21.918C19.46 21.93 19.448 21.93 19.448 21.942C19.436 21.966 19.424 21.978 19.412 22.002C19.304 22.182 19.196 22.386 19.112 22.602C19.1 22.638 19.076 22.662 19.064 22.698C19.052 22.722 19.052 22.746 19.04 22.782C18.896 23.19 18.8 23.682 18.8 24.282H21.2C21.2 23.778 21.332 23.358 21.536 22.998C21.56 22.962 21.572 22.926 21.596 22.89C21.692 22.722 21.812 22.566 21.932 22.422C21.944 22.41 21.956 22.386 21.968 22.374C22.088 22.23 22.22 22.098 22.364 21.966C23.516 20.874 25.076 19.986 24.752 17.694C24.464 15.606 22.82 13.842 20.732 13.53Z" fill="white"/>
</svg>
