<svg width="34" height="37" viewBox="0 0 34 37" fill="none" xmlns="http://www.w3.org/2000/svg">
<rect width="34" height="37" rx="8" fill="#10192D"/>
<path d="M24 8H10C8.9 8 8 9.05 8 10.3333V26.6667C8 27.95 8.9 29 10 29H24C25.1 29 26 27.95 26 26.6667V10.3333C26 9.05 25.1 8 24 8ZM18 24.3333H13C12.45 24.3333 12 23.8083 12 23.1667C12 22.525 12.45 22 13 22H18C18.55 22 19 22.525 19 23.1667C19 23.8083 18.55 24.3333 18 24.3333ZM21 19.6667H13C12.45 19.6667 12 19.1417 12 18.5C12 17.8583 12.45 17.3333 13 17.3333H21C21.55 17.3333 22 17.8583 22 18.5C22 19.1417 21.55 19.6667 21 19.6667ZM21 15H13C12.45 15 12 14.475 12 13.8333C12 13.1917 12.45 12.6667 13 12.6667H21C21.55 12.6667 22 13.1917 22 13.8333C22 14.475 21.55 15 21 15Z" fill="white"/>
</svg>
