<svg width="40" height="41" viewBox="0 0 40 41" fill="none" xmlns="http://www.w3.org/2000/svg">
<rect y="0.182007" width="40" height="40" rx="8" fill="#10192D"/>
<path d="M21.82 30.182H18.18C17.7101 30.182 17.3035 29.855 17.203 29.396L16.796 27.512C16.253 27.2741 15.7382 26.9766 15.261 26.625L13.424 27.21C12.976 27.3529 12.489 27.1643 12.254 26.757L10.43 23.606C10.1976 23.1985 10.2776 22.6845 10.623 22.367L12.048 21.067C11.9832 20.4781 11.9832 19.8839 12.048 19.295L10.623 17.998C10.2771 17.6804 10.197 17.1657 10.43 16.758L12.25 13.605C12.485 13.1977 12.972 13.0091 13.42 13.152L15.257 13.737C15.501 13.5562 15.7551 13.3892 16.018 13.237C16.2703 13.0947 16.53 12.9659 16.796 12.851L17.204 10.969C17.304 10.51 17.7102 10.1825 18.18 10.182H21.82C22.2898 10.1825 22.6959 10.51 22.796 10.969L23.208 12.852C23.4888 12.9755 23.7622 13.1151 24.027 13.27C24.2743 13.4128 24.5133 13.5694 24.743 13.739L26.581 13.154C27.0287 13.0117 27.5151 13.2002 27.75 13.607L29.57 16.76C29.8024 17.1675 29.7223 17.6815 29.377 17.999L27.952 19.299C28.0168 19.8879 28.0168 20.4821 27.952 21.071L29.377 22.371C29.7223 22.6885 29.8024 23.2025 29.57 23.61L27.75 26.763C27.5151 27.1698 27.0287 27.3583 26.581 27.216L24.743 26.631C24.5104 26.8023 24.2687 26.9609 24.019 27.106C23.7568 27.2579 23.4864 27.3951 23.209 27.517L22.796 29.396C22.6955 29.8546 22.2895 30.1816 21.82 30.182ZM19.996 16.182C17.7868 16.182 15.996 17.9729 15.996 20.182C15.996 22.3911 17.7868 24.182 19.996 24.182C22.2051 24.182 23.996 22.3911 23.996 20.182C23.996 17.9729 22.2051 16.182 19.996 16.182Z" fill="white"/>
</svg>
