<svg width="24" height="25" viewBox="0 0 24 25" fill="none" xmlns="http://www.w3.org/2000/svg">
<path d="M14 6.5H4M6 12.5H4H6ZM6 12.5C6 13.0304 6.21071 13.5391 6.58579 13.9142C6.96086 14.2893 7.46957 14.5 8 14.5C8.53043 14.5 9.03914 14.2893 9.41421 13.9142C9.78929 13.5391 10 13.0304 10 12.5H6ZM6 12.5C6 11.9696 6.21071 11.4609 6.58579 11.0858C6.96086 10.7107 7.46957 10.5 8 10.5C8.53043 10.5 9.03914 10.7107 9.41421 11.0858C9.78929 11.4609 10 11.9696 10 12.5H6ZM18 18.5C18 17.9696 17.7893 17.4609 17.4142 17.0858C17.0391 16.7107 16.5304 16.5 16 16.5C15.4696 16.5 14.9609 16.7107 14.5858 17.0858C14.2107 17.4609 14 17.9696 14 18.5H18ZM18 18.5C18 19.0304 17.7893 19.5391 17.4142 19.9142C17.0391 20.2893 16.5304 20.5 16 20.5C15.4696 20.5 14.9609 20.2893 14.5858 19.9142C14.2107 19.5391 14 19.0304 14 18.5H18ZM18 18.5H20H18ZM14 18.5H4H14ZM10 12.5H20H10ZM18 6.5C18 5.96957 17.7893 5.46086 17.4142 5.08579C17.0391 4.71071 16.5304 4.5 16 4.5C15.4696 4.5 14.9609 4.71071 14.5858 5.08579C14.2107 5.46086 14 5.96957 14 6.5H18ZM18 6.5C18 7.03043 17.7893 7.53914 17.4142 7.91421C17.0391 8.28929 16.5304 8.5 16 8.5C15.4696 8.5 14.9609 8.28929 14.5858 7.91421C14.2107 7.53914 14 7.03043 14 6.5H18ZM18 6.5L20 6.5L18 6.5Z" stroke="#FB5E04" stroke-width="1.5" stroke-linecap="round" stroke-linejoin="round"/>
</svg>
