<svg width="132" height="133" viewBox="0 0 132 133" fill="none" xmlns="http://www.w3.org/2000/svg">
<path d="M132 66.499C132 102.953 102.452 132.5 65.9985 132.5C29.5474 132.5 0 102.953 0 66.499C0 30.0479 29.5474 0.5 65.9985 0.5C102.452 0.5 132 30.0479 132 66.499Z" fill="#EC1C24"/>
<path d="M60.3413 52.5213L76.1663 68.3407C78.4505 70.628 82.1594 70.628 84.4493 68.3407C86.734 66.0539 86.7392 62.3481 84.4493 60.0608L68.6232 44.2352C57.2996 32.909 38.998 32.7265 27.4341 43.6598C27.3261 43.7495 27.222 43.8438 27.1221 43.9424C27.0716 43.9929 27.0303 44.0465 26.9803 44.0919C26.9288 44.1414 26.8762 44.1857 26.8272 44.2352C26.7272 44.3347 26.6359 44.4394 26.5487 44.5431C15.6098 56.1121 15.798 74.4142 27.1226 85.7399L42.9482 101.562C45.2376 103.848 48.9413 103.848 51.2302 101.562C53.5206 99.2746 53.5206 95.5641 51.2358 93.2815L35.4098 77.4564C28.5014 70.5507 28.455 59.343 35.2664 52.378C42.2304 45.5666 53.4319 45.6161 60.3413 52.5218V52.5213ZM80.7662 31.4462C78.4794 33.734 78.4794 37.4393 80.7724 39.7266L96.5923 55.5527C103.496 62.4579 103.541 73.664 96.7305 80.6306C89.7644 87.4369 78.5665 87.3915 71.6592 80.4852L55.8337 64.6612C53.5453 62.3734 49.8354 62.3734 47.5496 64.6612C45.2587 66.947 45.2587 70.6641 47.5496 72.9447L63.37 88.7713C74.6973 100.097 92.9968 100.281 104.563 89.3467C104.67 89.2519 104.771 89.1637 104.877 89.0637C104.926 89.0147 104.971 88.9647 105.018 88.9141C105.07 88.8652 105.12 88.8198 105.168 88.7651C105.269 88.6708 105.356 88.5671 105.446 88.4588C116.385 76.8944 116.202 58.5985 104.878 47.2661L89.0523 31.4457C86.765 29.1547 83.0515 29.1547 80.7662 31.4462Z" fill="white"/>
</svg>
