<svg width="23" height="23" viewBox="0 0 23 23" fill="none" xmlns="http://www.w3.org/2000/svg">
<path d="M5.47676 12.0485H6.57303V13.1448H7.66852V14.2404H2.19182V13.1448H3.28731V10.953H5.47907V12.0485H5.47676ZM19.7159 21.9052H20.8098V20.8097H19.7159V21.9052ZM6.57303 12.0485H7.66775V10.953H6.57226L6.57303 12.0485ZM21.9038 21.9052H23.0001V20.8097H21.9038V21.9052ZM8.76402 23H10.9535V21.9045H8.76402V23ZM18.6196 23V21.9045H17.5234V23H18.6196ZM14.2392 23H15.3347V20.8089H14.2392V23ZM5.47676 8.76271V9.85824H8.76248V8.76271H5.47676ZM4.38281 9.85747V8.76194H2.19105V10.953H3.28731L3.28654 9.85747H4.38281ZM7.66775 7.66641H0.00159749V0.000768254H7.66775V7.66641ZM6.57226 1.0963H1.09556V6.57165H6.57226V1.0963ZM2.19105 20.8097H5.476V17.5239H2.19105V20.8097ZM13.1429 19.7134V20.8097H14.2399V19.7134H13.1429ZM5.47676 2.19183H2.19182V5.47612H5.47676V2.19183ZM22.9993 0.000768254V7.66718H15.3331V0.000768254H22.9993ZM21.9038 1.0963H16.4286V6.57165H21.9038V1.0963ZM6.10352e-05 15.3321H7.66698V22.9985H6.10352e-05V15.3321ZM1.09632 21.9052H6.57303V16.4284H1.09632V21.9052ZM1.09632 8.76271H6.10352e-05V14.2396H1.09632V8.76271ZM15.3331 14.2381V15.3321H16.4286V14.2381H15.3331ZM12.0474 18.6194V17.5239H10.9527V18.6202H8.76325V20.812H10.9527V21.9075H12.0474V19.7157H13.1437V18.6202L12.0474 18.6194ZM8.76402 4.38212H10.9535V3.28506H8.76402V4.38212ZM17.5241 13.1441H19.7167V14.2396H20.8114V10.9545H19.7167V8.76271H18.6196V12.0485H15.3362V13.1448H16.4317V14.2404H17.5272V13.1448L17.5241 13.1441ZM18.6196 16.4284H17.5234V15.3321H16.4286L16.4279 17.5239H13.1429L13.1437 18.6202H15.3354V20.812H16.4309V21.9075H17.5264V19.7157H21.9061V18.6202H18.6212V16.4284H18.6196ZM18.6196 16.4284H19.7167V14.2381H18.6196V16.4284ZM9.85797 16.4284V15.3321H10.9519V14.2381H12.0467V13.1425H13.1429V10.9507H16.4279V8.75887H15.3324V9.8544H14.2369V5.47381H13.1414V3.28198H14.2369V0H13.1414V2.19106H12.0459V0H8.76094V2.19106H9.85644V1.09553H10.9504V3.28506H12.0459V6.57088H13.1414V7.66641H12.0459V9.85747H10.9504V7.66641H9.85644V6.57165H8.76094V8.76271H9.85644V9.85824H8.76094V13.1448H9.85644V10.953H10.9504V13.1448H9.85644V14.2404H8.76094V17.5239H10.9504V16.4284H9.85797ZM21.9038 17.5239V16.4284H19.7143V17.5239H21.9038ZM20.8083 2.19183H17.5241V5.47612H20.8083V2.19183ZM12.0474 16.4284H14.2399V15.3321H13.1429V14.2381H12.0467L12.0474 16.4284ZM14.2392 14.2381V13.1425H13.1429V14.2381H14.2392ZM20.8083 9.85747H23.0001V8.76194H20.8083V9.85747ZM21.9038 18.6194H23.0001V17.5239H21.9038V18.6194ZM21.9038 12.0485H23.0001V10.953H21.9038V12.0485ZM12.0474 6.57165H10.9527V7.66718H12.0474V6.57165Z" fill="black"/>
</svg>
