<svg width="20" height="22" viewBox="0 0 20 22" fill="none" xmlns="http://www.w3.org/2000/svg">
<path d="M17.3889 0H2.61111C1.45 0 0.5 1.1 0.5 2.44444V19.5556C0.5 20.9 1.45 22 2.61111 22H17.3889C18.55 22 19.5 20.9 19.5 19.5556V2.44444C19.5 1.1 18.55 0 17.3889 0ZM11.0556 17.1111H5.77778C5.19722 17.1111 4.72222 16.5611 4.72222 15.8889C4.72222 15.2167 5.19722 14.6667 5.77778 14.6667H11.0556C11.6361 14.6667 12.1111 15.2167 12.1111 15.8889C12.1111 16.5611 11.6361 17.1111 11.0556 17.1111ZM14.2222 12.2222H5.77778C5.19722 12.2222 4.72222 11.6722 4.72222 11C4.72222 10.3278 5.19722 9.77778 5.77778 9.77778H14.2222C14.8028 9.77778 15.2778 10.3278 15.2778 11C15.2778 11.6722 14.8028 12.2222 14.2222 12.2222ZM14.2222 7.33333H5.77778C5.19722 7.33333 4.72222 6.78333 4.72222 6.11111C4.72222 5.43889 5.19722 4.88889 5.77778 4.88889H14.2222C14.8028 4.88889 15.2778 5.43889 15.2778 6.11111C15.2778 6.78333 14.8028 7.33333 14.2222 7.33333Z" fill="#234FEC"/>
</svg>
