<svg width="32" height="32" viewBox="0 0 32 32" fill="none" xmlns="http://www.w3.org/2000/svg">
<path d="M31.518 19.8708C29.381 28.4423 20.699 33.6583 12.1265 31.5213C3.55804 29.3843 -1.65846 20.7023 0.479037 12.1313C2.61504 3.5588 11.2965 -1.6582 19.8665 0.478798C28.4385 2.6158 33.6545 11.2988 31.5175 19.8708H31.518Z" fill="#F7931A"/>
<path fill-rule="evenodd" clip-rule="evenodd" d="M20.8188 14.1412C21.0345 12.6969 19.9349 11.9205 18.4312 11.4025L18.919 9.44607L17.7277 9.14928L17.2529 11.0542C16.9401 10.9762 16.6186 10.9026 16.299 10.8296L16.7773 8.91218L15.5871 8.61539L15.099 10.5712C14.8398 10.5122 14.5854 10.4538 14.3385 10.3924L14.3399 10.3863L12.6975 9.97623L12.3807 11.2482C12.3807 11.2482 13.2643 11.4507 13.2456 11.4632C13.728 11.5837 13.8155 11.9028 13.8006 12.1559L13.245 14.3847C13.2782 14.3932 13.3213 14.4054 13.3688 14.4244L13.2433 14.3932L12.4641 17.5155C12.4051 17.662 12.2555 17.8818 11.9184 17.7984C11.9302 17.8156 11.0528 17.5823 11.0528 17.5823L10.4615 18.9458L12.0117 19.3322C12.1866 19.376 12.3595 19.4211 12.5304 19.4657L12.5305 19.4657C12.6412 19.4946 12.7511 19.5233 12.8603 19.5513L12.3675 21.5305L13.557 21.8273L14.0455 19.8695C14.3701 19.9577 14.6855 20.0391 14.9942 20.1157L14.5078 22.0644L15.6987 22.3612L16.1915 20.3861C18.2223 20.7704 19.7497 20.6153 20.3917 18.779C20.9097 17.3001 20.3663 16.447 19.2978 15.8904C20.076 15.7103 20.6621 15.1984 20.8185 14.1412H20.8188ZM18.0974 17.9568C17.7594 19.3141 15.6343 18.7525 14.6629 18.4957L14.6628 18.4957C14.5758 18.4727 14.4981 18.4522 14.4318 18.4357L15.0858 15.8141C15.1669 15.8343 15.266 15.8566 15.3783 15.8818L15.3783 15.8818C16.3833 16.1073 18.4429 16.5694 18.0978 17.9568H18.0974ZM15.5803 14.6652C16.3909 14.8815 18.1577 15.3528 18.4655 14.1198C18.7801 12.8584 17.0621 12.4782 16.223 12.2925C16.1287 12.2716 16.0455 12.2532 15.9775 12.2363L15.3846 14.614C15.4407 14.628 15.5065 14.6456 15.5803 14.6652Z" fill="white"/>
</svg>
