<svg width="142" height="134" viewBox="0 0 142 134" fill="none" xmlns="http://www.w3.org/2000/svg">
<path d="M68.332 21.2635L78.6562 10.3281" stroke="#F1F5F9" stroke-width="3.40789" stroke-linecap="round"/>
<path d="M129.062 64.3972L139.387 53.4619" stroke="#FB5E04" stroke-width="3.40789" stroke-linecap="round"/>
<path d="M104.164 128.186L114.488 117.251" stroke="#04A1FB" stroke-width="3.40789" stroke-linecap="round"/>
<path d="M3.35156 58.9295L13.6757 47.9941" stroke="#FACC15" stroke-width="3.40789" stroke-linecap="round"/>
<path d="M30.6797 117.859L41.0039 106.923" stroke="#04A1FB" stroke-width="3.40789" stroke-linecap="round"/>
<ellipse cx="51.3277" cy="2.43007" rx="2.42922" ry="2.43007" fill="#FB5E04"/>
<ellipse cx="40.398" cy="24.9086" rx="2.42922" ry="2.43007" fill="#F1F5F9"/>
<ellipse cx="21.5698" cy="71.0795" rx="2.42922" ry="2.43007" fill="#F1F5F9"/>
<ellipse cx="2.81594" cy="101.188" rx="2.42922" ry="2.43007" fill="#22C36B"/>
<ellipse cx="57.4019" cy="131.224" rx="2.42922" ry="2.43007" fill="#F1F5F9"/>
<ellipse cx="95.0521" cy="106.923" rx="3.03653" ry="3.03759" fill="#FACC15"/>
<ellipse cx="123.595" cy="91.7353" rx="3.03653" ry="3.03759" fill="#F1F5F9"/>
<ellipse cx="111.525" cy="22.8184" rx="3.03653" ry="3.03759" fill="#22C36B"/>
<ellipse cx="108.416" cy="51.0315" rx="1.82192" ry="1.82255" fill="#F1F5F9"/>
<ellipse cx="8.81801" cy="25.5159" rx="1.82192" ry="1.82255" fill="#04A1FB"/>
<ellipse cx="70.1543" cy="67.4345" rx="30.3653" ry="30.3759" fill="#22C36B"/>
<path d="M81.0055 60.5244L67.1893 74.3448L60.2812 67.4349" stroke="white" stroke-width="5.67982" stroke-linecap="round" stroke-linejoin="round"/>
</svg>
