<svg width="132" height="133" viewBox="0 0 132 133" fill="none" xmlns="http://www.w3.org/2000/svg">
<path d="M66.0027 132.505C102.455 132.505 132.005 102.955 132.005 66.5027C132.005 30.0504 102.455 0.5 66.0027 0.5C29.5504 0.5 0 30.0504 0 66.5027C0 102.955 29.5504 132.505 66.0027 132.505Z" fill="#616161"/>
<path d="M66.0027 108.503C42.8033 108.503 24.0024 89.702 24.0024 66.5027C24.0024 43.3033 42.8033 24.5024 66.0027 24.5024C77.597 24.5024 88.0957 29.204 95.7012 36.8041L112.673 19.8328C100.727 7.8874 84.2239 0.5 66.0027 0.5C29.5496 0.5 0 30.0496 0 66.5027C0 102.956 29.5496 132.505 66.0027 132.505C84.2292 132.505 100.727 125.118 112.678 113.178L95.7065 96.2065C88.0957 103.801 77.597 108.503 66.0027 108.503Z" fill="#9E9E9E"/>
<path d="M108.003 66.5028H87.0002C87.0002 54.9084 77.5971 45.5 65.9975 45.5C54.3978 45.5 45 54.9031 45 66.5028C45 72.151 47.2338 77.2728 50.8663 81.0542L50.8504 81.0702L76.8525 107.072L76.8579 107.078C94.7919 102.291 108.003 85.9419 108.003 66.5028Z" fill="#424242"/>
<path d="M132.002 66.5029H107.999C107.999 85.9421 94.7827 102.291 76.8594 107.078L95.3944 125.613C117.094 114.8 132.002 92.3934 132.002 66.5029Z" fill="#616161"/>
<path d="M66.0027 131.75C29.6773 131.75 0.21274 102.403 0.00531853 66.125C0.00531853 66.2526 0 66.375 0 66.5026C0 102.956 29.5496 132.505 66.0027 132.505C102.456 132.505 132.005 102.956 132.005 66.5026C132.005 66.375 132 66.2526 132 66.125C131.793 102.403 102.323 131.75 66.0027 131.75Z" fill="#212121" fill-opacity="0.1"/>
<path d="M76.8633 107.078L77.4483 107.663C95.0738 102.685 108.003 86.4846 108.003 67.2528V66.5029C108.003 85.9421 94.7866 102.291 76.8633 107.078Z" fill="white" fill-opacity="0.05"/>
<path d="M120.003 60.501H65.9993C62.6858 60.501 60 63.1868 60 66.5003C60 69.8137 62.6858 72.4995 65.9993 72.4995H119.998C123.312 72.4995 125.997 69.8137 125.997 66.5003C126.003 63.1868 123.317 60.501 120.003 60.501Z" fill="#9E9E9E"/>
<path opacity="0.5" d="M120.003 60.501H65.9993C62.6858 60.501 60 63.1868 60 66.5003C60 69.8137 62.6858 72.4995 65.9993 72.4995H119.998C123.312 72.4995 125.997 69.8137 125.997 66.5003C126.003 63.1868 123.317 60.501 120.003 60.501Z" fill="#BDBDBD"/>
<path d="M11.9995 71.0018C14.4844 71.0018 16.4989 68.9874 16.4989 66.5024C16.4989 64.0174 14.4844 62.0029 11.9995 62.0029C9.51448 62.0029 7.5 64.0174 7.5 66.5024C7.5 68.9874 9.51448 71.0018 11.9995 71.0018Z" fill="#BDBDBD"/>
<path d="M66.0034 16.9979C68.4883 16.9979 70.5028 14.9835 70.5028 12.4985C70.5028 10.0135 68.4883 7.99902 66.0034 7.99902C63.5184 7.99902 61.5039 10.0135 61.5039 12.4985C61.5039 14.9835 63.5184 16.9979 66.0034 16.9979Z" fill="#BDBDBD"/>
<path d="M66.0034 125.001C68.4883 125.001 70.5028 122.986 70.5028 120.501C70.5028 118.016 68.4883 116.002 66.0034 116.002C63.5184 116.002 61.5039 118.016 61.5039 120.501C61.5039 122.986 63.5184 125.001 66.0034 125.001Z" fill="#BDBDBD"/>
<path d="M27.7534 32.8153C30.2383 32.8153 32.2528 30.8008 32.2528 28.3159C32.2528 25.8309 30.2383 23.8164 27.7534 23.8164C25.2684 23.8164 23.2539 25.8309 23.2539 28.3159C23.2539 30.8008 25.2684 32.8153 27.7534 32.8153Z" fill="#BDBDBD"/>
<path d="M27.7534 109.253C30.2383 109.253 32.2528 107.238 32.2528 104.753C32.2528 102.268 30.2383 100.254 27.7534 100.254C25.2684 100.254 23.2539 102.268 23.2539 104.753C23.2539 107.238 25.2684 109.253 27.7534 109.253Z" fill="#BDBDBD"/>
<path d="M104.253 109.253C106.738 109.253 108.753 107.238 108.753 104.753C108.753 102.268 106.738 100.254 104.253 100.254C101.768 100.254 99.7539 102.268 99.7539 104.753C99.7539 107.238 101.768 109.253 104.253 109.253Z" fill="#757575"/>
<path d="M66.0032 61.2528H120.002C123.188 61.2528 125.794 63.7419 125.98 66.8798C125.985 66.7522 126.001 66.6299 126.001 66.5022C126.001 63.1888 123.315 60.5029 120.002 60.5029H66.0032C62.6898 60.5029 60.0039 63.1888 60.0039 66.5022C60.0039 66.6299 60.0092 66.7522 60.0252 66.8798C60.2113 63.7419 62.8121 61.2528 66.0032 61.2528Z" fill="white" fill-opacity="0.2"/>
<path d="M125.98 66.875C125.783 70.0076 123.182 72.502 120.002 72.502H66.0032C62.8174 72.502 60.2113 70.0129 60.0252 66.875C60.0092 67.0026 60.0039 67.125 60.0039 67.2473C60.0039 70.5607 62.6898 73.2466 66.0032 73.2466H120.002C123.315 73.2466 126.001 70.5607 126.001 67.2473C126.001 67.125 125.996 67.0026 125.98 66.875Z" fill="#212121" fill-opacity="0.2"/>
<path d="M66.0042 25.2525C77.5985 25.2525 88.0972 29.9541 95.7027 37.5542L113.041 20.2053C112.913 20.0776 112.791 19.95 112.669 19.8276L95.7027 36.799C88.0972 29.1988 77.5985 24.4973 66.0042 24.4973C42.8048 24.4973 24.0039 43.2982 24.0039 66.4975C24.0039 66.6252 24.0092 66.7475 24.0092 66.8751C24.2113 43.8513 42.9325 25.2525 66.0042 25.2525Z" fill="#212121" fill-opacity="0.1"/>
<path d="M66.0027 132.505C102.455 132.505 132.005 102.955 132.005 66.5027C132.005 30.0504 102.455 0.5 66.0027 0.5C29.5504 0.5 0 30.0504 0 66.5027C0 102.955 29.5504 132.505 66.0027 132.505Z" fill="url(#paint0_radial_3807_17947)"/>
<defs>
<radialGradient id="paint0_radial_3807_17947" cx="0" cy="0" r="1" gradientUnits="userSpaceOnUse" gradientTransform="translate(19.3557 19.7054) scale(131.777)">
<stop stop-color="white" stop-opacity="0.1"/>
<stop offset="1" stop-color="white" stop-opacity="0"/>
</radialGradient>
</defs>
</svg>
