<svg width="18" height="17" viewBox="0 0 18 17" fill="none" xmlns="http://www.w3.org/2000/svg">
<path d="M2.5452 16.591L2.5272 16.609L2.5083 16.591H0.8928C0.655932 16.5908 0.428847 16.4965 0.26144 16.3289C0.0940338 16.1613 -1.2011e-07 15.9342 0 15.6973V1.28469C0.00164704 1.04833 0.0962102 0.822107 0.263262 0.654887C0.430313 0.487667 0.656442 0.392876 0.8928 0.390991H17.1072C17.6004 0.390991 18 0.791491 18 1.28469V15.6973C17.9984 15.9337 17.9038 16.1599 17.7367 16.3271C17.5697 16.4943 17.3436 16.5891 17.1072 16.591H2.5452ZM16.2 11.191V2.19099H1.8V14.791L10.8 5.79099L16.2 11.191ZM16.2 13.7362L10.8 8.33619L4.3452 14.791H16.2V13.7362ZM5.4 7.59099C4.92261 7.59099 4.46477 7.40135 4.12721 7.06378C3.78964 6.72622 3.6 6.26838 3.6 5.79099C3.6 5.3136 3.78964 4.85576 4.12721 4.5182C4.46477 4.18063 4.92261 3.99099 5.4 3.99099C5.87739 3.99099 6.33523 4.18063 6.67279 4.5182C7.01036 4.85576 7.2 5.3136 7.2 5.79099C7.2 6.26838 7.01036 6.72622 6.67279 7.06378C6.33523 7.40135 5.87739 7.59099 5.4 7.59099Z" fill="#8E9BAE"/>
</svg>
