<svg width="35" height="37" viewBox="0 0 35 37" fill="none" xmlns="http://www.w3.org/2000/svg">
<path d="M34.1087 1.00935C33.77 1.10811 33.4287 1.20936 33.0862 1.30686C30.1261 2.1569 27.1585 2.98693 24.2108 3.86196C21.6694 4.60655 19.1791 5.51558 16.7556 6.58331C14.5667 7.55585 12.4592 8.67964 10.5053 10.0747C9.26403 10.9635 8.25525 12.0748 7.62022 13.4736C7.28303 14.1776 7.12378 14.9537 7.15645 15.7337C7.19155 16.6761 7.57766 17.5714 8.23899 18.2438C9.16903 19.2113 10.2766 19.9038 11.4979 20.4326C12.8247 20.984 14.2015 21.4064 15.6093 21.6939C16.9281 21.9839 18.2519 22.2552 19.5732 22.5352C19.617 22.5426 19.6571 22.5646 19.6869 22.5977C19.1057 22.7127 18.5269 22.8402 17.9369 22.9414C16.5796 23.182 15.2025 23.2934 13.8242 23.2739C11.8716 23.2352 9.97156 22.9339 8.17899 22.1101C6.844 21.5185 5.67691 20.6044 4.78262 19.45C4.13088 18.5902 3.71079 17.5774 3.56257 16.5087C3.27006 14.5511 3.74382 12.7448 4.67761 11.0385C5.6639 9.23591 7.0777 7.84961 8.81527 6.75832C11.7435 4.94 14.9265 3.56861 18.2594 2.68942C20.0204 2.20997 21.8104 1.8442 23.6183 1.59437C24.8196 1.43062 26.0259 1.29436 27.2335 1.19686C28.441 1.09936 29.6336 1.04435 30.8361 1.0106C31.9299 0.983101 33.0187 1.00935 34.1087 1.00935Z" fill="#FB5E04"/>
<path d="M14.4205 15.3875C15.1206 15.2625 15.8181 15.1075 16.5206 14.995C17.7628 14.791 19.0208 14.6989 20.2795 14.72C22.2321 14.76 24.1322 15.06 25.9235 15.885C27.2585 16.4778 28.4252 17.3932 29.3186 18.5489C29.9693 19.4096 30.3885 20.4227 30.5361 21.4915C30.8262 23.4428 30.3536 25.2416 29.4236 26.9467C28.4561 28.7168 27.0798 30.0931 25.3772 31.1731C22.5893 32.9229 19.564 34.2621 16.3944 35.1495C14.453 35.7092 12.4736 36.127 10.4716 36.3995C9.13784 36.5796 7.79654 36.7171 6.45399 36.8296C5.39645 36.9183 4.32891 36.9546 3.27012 36.9846C2.18258 37.0108 1.09254 36.9908 0 36.9908C0.201258 36.9308 0.403765 36.8658 0.606273 36.8108C3.21012 36.0708 5.81647 35.342 8.41532 34.5882C10.8392 33.8857 13.2355 33.1019 15.5806 32.1644C18.1719 31.1281 20.662 29.8968 22.9921 28.3517C24.0597 27.643 25.0147 26.8229 25.7635 25.7754C26.3335 24.9779 26.7548 24.1141 26.9023 23.1353C27.0565 22.2412 26.9022 21.3213 26.4647 20.5264C26.201 20.0539 25.8085 19.6727 25.4085 19.3077C24.4372 18.4251 23.3009 17.8226 22.0883 17.3501C20.7033 16.8101 19.2657 16.4575 17.8169 16.15C16.7194 15.9163 15.6218 15.6888 14.523 15.4588C14.4905 15.4513 14.458 15.44 14.4243 15.4313L14.4205 15.3875Z" fill="#FB5E04"/>
</svg>
