<svg width="158" height="36" viewBox="0 0 158 36" fill="none" xmlns="http://www.w3.org/2000/svg">
<path d="M34.1088 0.0113052C33.77 0.110059 33.4288 0.211312 33.0862 0.308816C30.1261 1.15885 27.1585 1.98888 24.2109 2.86391C21.6695 3.6085 19.1791 4.51754 16.7556 5.58527C14.5668 6.5578 12.4592 7.68159 10.5054 9.07665C9.26409 9.96543 8.25531 11.0767 7.62028 12.4755C7.28309 13.1796 7.12384 13.9557 7.15651 14.7356C7.19161 15.6781 7.57772 16.5733 8.23906 17.2457C9.16909 18.2132 10.2766 18.9058 11.4979 19.4345C12.8247 19.9859 14.2016 20.4083 15.6093 20.6958C16.9281 20.9858 18.2519 21.2571 19.5732 21.5371C19.6171 21.5445 19.6572 21.5666 19.687 21.5996C19.1057 21.7146 18.5269 21.8421 17.9369 21.9434C16.5796 22.184 15.2026 22.2953 13.8243 22.2759C11.8717 22.2371 9.97162 21.9359 8.17905 21.1121C6.84406 20.5204 5.67697 19.6064 4.78268 18.452C4.13094 17.5921 3.71085 16.5794 3.56263 15.5106C3.27012 13.5531 3.74389 11.7467 4.67767 10.0404C5.66396 8.23787 7.07776 6.85156 8.81533 5.76027C11.7435 3.94195 14.9266 2.57056 18.2594 1.69137C20.0204 1.21192 21.8105 0.846155 23.6184 0.596327C24.8197 0.432571 26.026 0.296316 27.2335 0.198812C28.4411 0.101309 29.6336 0.0463068 30.8362 0.0125555C31.9299 -0.0149456 33.0187 0.0113052 34.1088 0.0113052Z" fill="white"/>
<path d="M14.4205 14.3893C15.1206 14.2643 15.8181 14.1093 16.5206 13.9968C17.7628 13.7928 19.0208 13.7008 20.2795 13.7218C22.2321 13.7618 24.1322 14.0618 25.9235 14.8869C27.2585 15.4796 28.4252 16.395 29.3186 17.5507C29.9693 18.4114 30.3885 19.4245 30.5361 20.4933C30.8262 22.4446 30.3536 24.2435 29.4236 25.9485C28.4561 27.7186 27.0798 29.0949 25.3772 30.1749C22.5893 31.9248 19.564 33.264 16.3944 34.1513C14.453 34.711 12.4736 35.1288 10.4716 35.4014C9.13784 35.5814 7.79654 35.7189 6.45399 35.8314C5.39645 35.9202 4.32891 35.9564 3.27012 35.9864C2.18258 36.0127 1.09254 35.9927 0 35.9927C0.201258 35.9326 0.403765 35.8676 0.606273 35.8126C3.21012 35.0726 5.81647 34.3438 8.41532 33.5901C10.8392 32.8875 13.2355 32.1038 15.5806 31.1662C18.1719 30.1299 20.662 28.8986 22.9921 27.3536C24.0597 26.6448 25.0147 25.8248 25.7635 24.7772C26.3335 23.9797 26.7548 23.1159 26.9023 22.1371C27.0565 21.2431 26.9022 20.3231 26.4647 19.5283C26.201 19.0558 25.8085 18.6745 25.4085 18.3095C24.4372 17.427 23.3009 16.8244 22.0883 16.3519C20.7033 15.8119 19.2657 15.4594 17.8169 15.1519C16.7194 14.9181 15.6218 14.6906 14.523 14.4606C14.4905 14.4531 14.458 14.4418 14.4243 14.4331L14.4205 14.3893Z" fill="white"/>
<path d="M60.728 22.24C64.208 22.24 66.8 20.584 66.8 17.512C66.8 14.632 64.76 13.408 61.76 12.712L59.936 12.28C58.256 11.896 57.224 11.464 57.224 10.288C57.224 9.352 58.112 8.824 59.336 8.824C61.184 8.824 63.056 9.736 64.112 11.416L66.44 8.8C65.096 6.88 62.672 5.728 59.648 5.728C56.384 5.728 53.672 7.384 53.672 10.528C53.672 13.576 56.024 14.68 58.52 15.184L60.08 15.52C62.216 15.952 63.272 16.36 63.272 17.608C63.272 18.712 62.264 19.144 60.872 19.144C58.952 19.144 56.624 18.256 55.544 16.24L53.288 18.88C54.776 21.232 57.632 22.24 60.728 22.24ZM74.3015 22L75.5975 16.768L76.3175 12.52L77.0375 16.768L78.3095 22H82.5815L85.5335 10.24H81.7655L80.8775 16.12L80.4215 19.816L79.7255 16.144L78.2375 10.24H74.3495L72.9335 16.144L72.2135 19.816L71.7575 16.12L70.8455 10.24H67.0775L70.0295 22H74.3015ZM90.3384 8.848V5.92H86.9064V8.848H90.3384ZM90.3384 22V10.24H86.9064V22H90.3384ZM97.4218 22.24C99.2218 22.24 100.422 21.4 100.926 20.752L99.9418 17.944C99.5818 18.592 98.9338 19.192 98.1898 19.192C97.5178 19.192 97.0378 18.856 97.0378 17.896V12.856H100.302V10.24H97.0378V7.048L93.6058 8.848V10.24H91.8538V12.856H93.6058V18.52C93.6058 20.704 94.8298 22.24 97.4218 22.24ZM107.118 22.24C109.926 22.24 111.87 20.704 112.59 18.688L109.734 17.032C109.446 18.496 108.702 19.384 107.238 19.384C105.726 19.384 104.718 18.28 104.718 16.12C104.718 13.96 105.726 12.856 107.238 12.856C108.678 12.856 109.446 13.744 109.734 15.208L112.59 13.552C111.87 11.536 109.926 10 107.118 10C103.494 10 101.214 12.544 101.214 16.12C101.214 19.72 103.494 22.24 107.118 22.24ZM117.62 22V15.496C117.62 13.576 118.148 12.664 119.78 12.664C121.34 12.664 121.724 13.552 121.724 14.992V22H125.156V13.792C125.156 11.368 123.788 10 121.556 10C119.132 10 118.004 11.728 117.62 13.648V5.92H114.188V22H117.62ZM130.068 22.264C132.468 22.264 133.5 20.488 133.884 18.952V19.744C133.884 21.424 135.036 22 136.308 22H138.324V19.264H137.628C137.196 19.264 137.004 19.096 137.004 18.568V14.536C137.004 11.584 135.276 10 132.3 10C129.78 10 127.836 11.176 126.66 12.448L128.388 14.944C129.204 13.768 130.572 12.928 132.06 12.928C133.356 12.928 133.812 13.48 133.932 14.464L130.332 15.808C128.1 16.576 126.972 17.608 126.972 19.384C126.972 21.28 128.244 22.264 130.068 22.264ZM130.14 18.88C130.14 18.424 130.452 18.088 131.388 17.704L133.884 16.672V17.488C133.884 18.928 132.972 19.744 131.34 19.744C130.524 19.744 130.14 19.432 130.14 18.88Z" fill="white"/>
</svg>
