<svg width="158" height="36" viewBox="0 0 158 36" fill="none" xmlns="http://www.w3.org/2000/svg">
<path d="M34.1087 0.0113052C33.77 0.110059 33.4287 0.211312 33.0862 0.308816C30.1261 1.15885 27.1585 1.98888 24.2108 2.86391C21.6694 3.6085 19.1791 4.51754 16.7556 5.58527C14.5667 6.5578 12.4592 7.68159 10.5053 9.07665C9.26403 9.96543 8.25525 11.0767 7.62022 12.4755C7.28303 13.1796 7.12378 13.9557 7.15645 14.7356C7.19155 15.6781 7.57766 16.5733 8.23899 17.2457C9.16903 18.2132 10.2766 18.9058 11.4979 19.4345C12.8247 19.9859 14.2015 20.4083 15.6093 20.6958C16.9281 20.9858 18.2519 21.2571 19.5732 21.5371C19.617 21.5445 19.6571 21.5666 19.6869 21.5996C19.1057 21.7146 18.5269 21.8421 17.9369 21.9434C16.5796 22.184 15.2025 22.2953 13.8242 22.2759C11.8716 22.2371 9.97156 21.9359 8.17899 21.1121C6.844 20.5204 5.67691 19.6064 4.78262 18.452C4.13088 17.5921 3.71079 16.5794 3.56257 15.5106C3.27006 13.5531 3.74382 11.7467 4.67761 10.0404C5.6639 8.23787 7.0777 6.85156 8.81527 5.76027C11.7435 3.94195 14.9265 2.57056 18.2594 1.69137C20.0204 1.21192 21.8104 0.846155 23.6183 0.596327C24.8196 0.432571 26.0259 0.296316 27.2335 0.198812C28.441 0.101309 29.6336 0.0463068 30.8361 0.0125555C31.9299 -0.0149456 33.0187 0.0113052 34.1087 0.0113052Z" fill="white"/>
<path d="M14.4205 14.3895C15.1206 14.2645 15.8181 14.1094 16.5206 13.9969C17.7628 13.7929 19.0208 13.7009 20.2795 13.7219C22.2321 13.7619 24.1322 14.0619 25.9235 14.887C27.2585 15.4797 28.4252 16.3952 29.3186 17.5508C29.9693 18.4115 30.3885 19.4246 30.5361 20.4934C30.8262 22.4448 30.3536 24.2436 29.4236 25.9486C28.4561 27.7187 27.0798 29.095 25.3772 30.1751C22.5893 31.9249 19.564 33.2641 16.3944 34.1515C14.453 34.7112 12.4736 35.1289 10.4716 35.4015C9.13784 35.5815 7.79654 35.719 6.45399 35.8315C5.39645 35.9203 4.32891 35.9565 3.27012 35.9865C2.18258 36.0128 1.09254 35.9928 0 35.9928C0.201258 35.9328 0.403765 35.8678 0.606273 35.8128C3.21012 35.0727 5.81647 34.344 8.41532 33.5902C10.8392 32.8877 13.2355 32.1039 15.5806 31.1663C18.1719 30.1301 20.662 28.8988 22.9921 27.3537C24.0597 26.6449 25.0147 25.8249 25.7635 24.7773C26.3335 23.9798 26.7548 23.116 26.9023 22.1373C27.0565 21.2432 26.9022 20.3232 26.4647 19.5284C26.201 19.0559 25.8085 18.6746 25.4085 18.3096C24.4372 17.4271 23.3009 16.8246 22.0883 16.352C20.7033 15.812 19.2657 15.4595 17.8169 15.152C16.7194 14.9182 15.6218 14.6907 14.523 14.4607C14.4905 14.4532 14.458 14.442 14.4243 14.4332L14.4205 14.3895Z" fill="white"/>
<path d="M60.7282 22.24C64.2082 22.24 66.8002 20.584 66.8002 17.512C66.8002 14.632 64.7602 13.408 61.7602 12.712L59.9362 12.28C58.2562 11.896 57.2242 11.464 57.2242 10.288C57.2242 9.352 58.1122 8.824 59.3362 8.824C61.1842 8.824 63.0562 9.736 64.1122 11.416L66.4402 8.8C65.0962 6.88 62.6722 5.728 59.6482 5.728C56.3842 5.728 53.6722 7.384 53.6722 10.528C53.6722 13.576 56.0242 14.68 58.5202 15.184L60.0802 15.52C62.2162 15.952 63.2722 16.36 63.2722 17.608C63.2722 18.712 62.2642 19.144 60.8722 19.144C58.9522 19.144 56.6242 18.256 55.5442 16.24L53.2882 18.88C54.7762 21.232 57.6322 22.24 60.7282 22.24ZM74.3017 22L75.5977 16.768L76.3177 12.52L77.0377 16.768L78.3097 22H82.5817L85.5337 10.24H81.7657L80.8777 16.12L80.4217 19.816L79.7257 16.144L78.2377 10.24H74.3497L72.9337 16.144L72.2137 19.816L71.7577 16.12L70.8457 10.24H67.0777L70.0297 22H74.3017ZM90.3385 8.848V5.92H86.9065V8.848H90.3385ZM90.3385 22V10.24H86.9065V22H90.3385ZM97.4219 22.24C99.2219 22.24 100.422 21.4 100.926 20.752L99.9419 17.944C99.5819 18.592 98.9339 19.192 98.1899 19.192C97.5179 19.192 97.0379 18.856 97.0379 17.896V12.856H100.302V10.24H97.0379V7.048L93.6059 8.848V10.24H91.8539V12.856H93.6059V18.52C93.6059 20.704 94.8299 22.24 97.4219 22.24ZM107.118 22.24C109.926 22.24 111.87 20.704 112.59 18.688L109.734 17.032C109.446 18.496 108.702 19.384 107.238 19.384C105.726 19.384 104.718 18.28 104.718 16.12C104.718 13.96 105.726 12.856 107.238 12.856C108.678 12.856 109.446 13.744 109.734 15.208L112.59 13.552C111.87 11.536 109.926 10 107.118 10C103.494 10 101.214 12.544 101.214 16.12C101.214 19.72 103.494 22.24 107.118 22.24ZM117.62 22V15.496C117.62 13.576 118.148 12.664 119.78 12.664C121.34 12.664 121.724 13.552 121.724 14.992V22H125.156V13.792C125.156 11.368 123.788 10 121.556 10C119.132 10 118.004 11.728 117.62 13.648V5.92H114.188V22H117.62ZM130.068 22.264C132.468 22.264 133.5 20.488 133.884 18.952V19.744C133.884 21.424 135.036 22 136.308 22H138.324V19.264H137.628C137.196 19.264 137.004 19.096 137.004 18.568V14.536C137.004 11.584 135.276 10 132.3 10C129.78 10 127.836 11.176 126.66 12.448L128.388 14.944C129.204 13.768 130.572 12.928 132.06 12.928C133.356 12.928 133.812 13.48 133.932 14.464L130.332 15.808C128.1 16.576 126.972 17.608 126.972 19.384C126.972 21.28 128.244 22.264 130.068 22.264ZM130.14 18.88C130.14 18.424 130.452 18.088 131.388 17.704L133.884 16.672V17.488C133.884 18.928 132.972 19.744 131.34 19.744C130.524 19.744 130.14 19.432 130.14 18.88Z" fill="white"/>
</svg>
