<svg width="24" height="24" viewBox="0 0 24 24" fill="none" xmlns="http://www.w3.org/2000/svg">
<g clip-path="url(#clip0_1084_14555)">
<path d="M10 5.3335H16V6.66683H10V5.3335Z" fill="#64748B"/>
<path d="M10 8H16V9.33333H10V8Z" fill="#64748B"/>
<path d="M10 10.6665H16V11.9998H10V10.6665Z" fill="#64748B"/>
<path d="M10 13.3335H16V14.6668H10V13.3335Z" fill="#64748B"/>
<path d="M10 16H16V17.3333H10V16Z" fill="#64748B"/>
<path d="M7.33398 5.3335H8.66732V6.66683H7.33398V5.3335Z" fill="#64748B"/>
<path d="M7.33398 8H8.66732V9.33333H7.33398V8Z" fill="#64748B"/>
<path d="M7.33398 10.6665H8.66732V11.9998H7.33398V10.6665Z" fill="#64748B"/>
<path d="M7.33398 13.3335H8.66732V14.6668H7.33398V13.3335Z" fill="#64748B"/>
<path d="M7.33398 16H8.66732V17.3333H7.33398V16Z" fill="#64748B"/>
<path d="M18.6667 21.8335H19.1667V21.3335V2.66683V2.16683H18.6667H5.33333H4.83333V2.66683V21.3335V21.8335H5.33333H18.6667ZM4.74408 21.9228L4.39052 22.2763L4.74408 21.9228C4.5878 21.7665 4.5 21.5545 4.5 21.3335V2.66683C4.5 2.44582 4.5878 2.23385 4.74408 2.07757C4.90036 1.92129 5.11232 1.8335 5.33333 1.8335H18.6667C18.8877 1.8335 19.0996 1.92129 19.2559 2.07757C19.4122 2.23385 19.5 2.44582 19.5 2.66683V21.3335C19.5 21.5545 19.4122 21.7665 19.2559 21.9228C19.0996 22.079 18.8877 22.1668 18.6667 22.1668H5.33333C5.11232 22.1668 4.90036 22.079 4.74408 21.9228Z" fill="#64748B" stroke="#64748B"/>
</g>
<defs>
<clipPath id="clip0_1084_14555">
<rect width="24" height="24" fill="white"/>
</clipPath>
</defs>
</svg>
