<svg width="4" height="15" viewBox="0 0 4 15" fill="none" xmlns="http://www.w3.org/2000/svg">
<path d="M2 2.75C2.41421 2.75 2.75 2.41421 2.75 2C2.75 1.58579 2.41421 1.25 2 1.25C1.58579 1.25 1.25 1.58579 1.25 2C1.25 2.41421 1.58579 2.75 2 2.75Z" stroke="white" stroke-width="1.5" stroke-linecap="round" stroke-linejoin="round"/>
<path d="M2 8.25C2.41421 8.25 2.75 7.91421 2.75 7.5C2.75 7.08579 2.41421 6.75 2 6.75C1.58579 6.75 1.25 7.08579 1.25 7.5C1.25 7.91421 1.58579 8.25 2 8.25Z" stroke="white" stroke-width="1.5" stroke-linecap="round" stroke-linejoin="round"/>
<path d="M2 13.75C2.41421 13.75 2.75 13.4142 2.75 13C2.75 12.5858 2.41421 12.25 2 12.25C1.58579 12.25 1.25 12.5858 1.25 13C1.25 13.4142 1.58579 13.75 2 13.75Z" stroke="white" stroke-width="1.5" stroke-linecap="round" stroke-linejoin="round"/>
</svg>
