<svg width="24" height="25" viewBox="0 0 24 25" fill="none" xmlns="http://www.w3.org/2000/svg">
<g clip-path="url(#clip0_1084_15073)">
<path d="M10 5.8335H16V7.16683H10V5.8335Z" fill="white"/>
<path d="M10 8.5H16V9.83333H10V8.5Z" fill="white"/>
<path d="M10 11.1665H16V12.4998H10V11.1665Z" fill="white"/>
<path d="M10 13.8335H16V15.1668H10V13.8335Z" fill="white"/>
<path d="M10 16.5H16V17.8333H10V16.5Z" fill="white"/>
<path d="M7.33203 5.8335H8.66536V7.16683H7.33203V5.8335Z" fill="white"/>
<path d="M7.33203 8.5H8.66536V9.83333H7.33203V8.5Z" fill="white"/>
<path d="M7.33203 11.1665H8.66536V12.4998H7.33203V11.1665Z" fill="white"/>
<path d="M7.33203 13.8335H8.66536V15.1668H7.33203V13.8335Z" fill="white"/>
<path d="M7.33203 16.5H8.66536V17.8333H7.33203V16.5Z" fill="white"/>
<path d="M18.6667 22.3335H19.1667V21.8335V3.16683V2.66683H18.6667H5.33333H4.83333V3.16683V21.8335V22.3335H5.33333H18.6667ZM4.74408 22.4228L4.39052 22.7763L4.74408 22.4228C4.5878 22.2665 4.5 22.0545 4.5 21.8335V3.16683C4.5 2.94582 4.5878 2.73385 4.74408 2.57757C4.90036 2.42129 5.11232 2.3335 5.33333 2.3335H18.6667C18.8877 2.3335 19.0996 2.42129 19.2559 2.57757C19.4122 2.73385 19.5 2.94582 19.5 3.16683V21.8335C19.5 22.0545 19.4122 22.2665 19.2559 22.4228C19.0996 22.579 18.8877 22.6668 18.6667 22.6668H5.33333C5.11232 22.6668 4.90036 22.579 4.74408 22.4228Z" fill="white" stroke="white"/>
</g>
<defs>
<clipPath id="clip0_1084_15073">
<rect width="24" height="24" fill="white" transform="translate(0 0.5)"/>
</clipPath>
</defs>
</svg>
