<svg width="150" height="150" viewBox="0 0 150 150" fill="none" xmlns="http://www.w3.org/2000/svg">
<g clip-path="url(#clip0_3807_18144)">
<path d="M18.6758 18.75H37.3517V37.5H18.6758V18.75Z" fill="#333333"/>
<path d="M56.0277 0V56.25H0V0H56.0277ZM46.6897 9.375H9.33794V46.875H46.6897V9.375ZM37.3518 112.5H18.6759V131.25H37.3518V112.5Z" fill="#333333"/>
<path d="M56.0277 93.75V150H0V93.75H56.0277ZM9.33794 103.125V140.625H46.6897V103.125H9.33794ZM112.055 18.75H130.731V37.5H112.055V18.75Z" fill="#333333"/>
<path d="M93.3794 0V56.25H149.407V0H93.3794ZM140.069 9.375V46.875H102.717V9.375H140.069ZM74.7036 9.375V0H84.0415V18.75H74.7036V37.5H65.3656V9.375H74.7036ZM74.7036 56.25V37.5H84.0415V56.25H74.7036ZM56.0277 75V65.625H65.3656V56.25H74.7036V75H84.0415V65.625H130.731V75H93.3794V84.375H65.3656V75H56.0277ZM56.0277 75V84.375H18.6759V75H9.33794V84.375H0V65.625H28.0138V75H56.0277ZM149.407 84.375H140.069V65.625H149.407V84.375ZM140.069 84.375H130.731V103.125H149.407V93.75H140.069V84.375ZM102.717 84.375H121.393V93.75H112.055V103.125H102.717V84.375ZM121.393 112.5V103.125H112.055V112.5H102.717V121.875H84.0415V131.25H112.055V112.5H121.393ZM121.393 112.5H149.407V121.875H130.731V131.25H121.393V112.5ZM84.0415 103.125V112.5H93.3794V93.75H65.3656V103.125H84.0415Z" fill="#333333"/>
<path d="M65.3672 112.5H74.7051V140.625H112.057V150H65.3672V112.5ZM149.409 131.25V150H121.395V140.625H140.071V131.25H149.409Z" fill="#333333"/>
</g>
<defs>
<clipPath id="clip0_3807_18144">
<rect width="149.407" height="150" fill="white"/>
</clipPath>
</defs>
</svg>
