<svg width="121" height="120" viewBox="0 0 121 120" fill="none" xmlns="http://www.w3.org/2000/svg">
<path d="M16.4375 45H23C23.5156 45 23.9375 44.5781 23.9375 44.0625V23.4375H44.5625C45.0781 23.4375 45.5 23.0156 45.5 22.5V15.9375C45.5 15.4219 45.0781 15 44.5625 15H23.4688C19.0625 15 15.5 18.5625 15.5 22.9688V44.0625C15.5 44.5781 15.9219 45 16.4375 45ZM76.4375 23.4375H97.0625V44.0625C97.0625 44.5781 97.4844 45 98 45H104.562C105.078 45 105.5 44.5781 105.5 44.0625V22.9688C105.5 18.5625 101.938 15 97.5312 15H76.4375C75.9219 15 75.5 15.4219 75.5 15.9375V22.5C75.5 23.0156 75.9219 23.4375 76.4375 23.4375ZM44.5625 96.5625H23.9375V75.9375C23.9375 75.4219 23.5156 75 23 75H16.4375C15.9219 75 15.5 75.4219 15.5 75.9375V97.0312C15.5 101.438 19.0625 105 23.4688 105H44.5625C45.0781 105 45.5 104.578 45.5 104.062V97.5C45.5 96.9844 45.0781 96.5625 44.5625 96.5625ZM104.562 75H98C97.4844 75 97.0625 75.4219 97.0625 75.9375V96.5625H76.4375C75.9219 96.5625 75.5 96.9844 75.5 97.5V104.062C75.5 104.578 75.9219 105 76.4375 105H97.5312C101.938 105 105.5 101.438 105.5 97.0312V75.9375C105.5 75.4219 105.078 75 104.562 75ZM106.438 55.7812H14.5625C14.0469 55.7812 13.625 56.2031 13.625 56.7188V63.2812C13.625 63.7969 14.0469 64.2188 14.5625 64.2188H106.438C106.953 64.2188 107.375 63.7969 107.375 63.2812V56.7188C107.375 56.2031 106.953 55.7812 106.438 55.7812Z" fill="#FB5E04"/>
</svg>
