<svg width="120" height="120" viewBox="0 0 120 120" fill="none" xmlns="http://www.w3.org/2000/svg">
<path d="M15.9375 45H22.5C23.0156 45 23.4375 44.5781 23.4375 44.0625V23.4375H44.0625C44.5781 23.4375 45 23.0156 45 22.5V15.9375C45 15.4219 44.5781 15 44.0625 15H22.9688C18.5625 15 15 18.5625 15 22.9688V44.0625C15 44.5781 15.4219 45 15.9375 45ZM75.9375 23.4375H96.5625V44.0625C96.5625 44.5781 96.9844 45 97.5 45H104.062C104.578 45 105 44.5781 105 44.0625V22.9688C105 18.5625 101.438 15 97.0312 15H75.9375C75.4219 15 75 15.4219 75 15.9375V22.5C75 23.0156 75.4219 23.4375 75.9375 23.4375ZM44.0625 96.5625H23.4375V75.9375C23.4375 75.4219 23.0156 75 22.5 75H15.9375C15.4219 75 15 75.4219 15 75.9375V97.0312C15 101.438 18.5625 105 22.9688 105H44.0625C44.5781 105 45 104.578 45 104.062V97.5C45 96.9844 44.5781 96.5625 44.0625 96.5625ZM104.062 75H97.5C96.9844 75 96.5625 75.4219 96.5625 75.9375V96.5625H75.9375C75.4219 96.5625 75 96.9844 75 97.5V104.062C75 104.578 75.4219 105 75.9375 105H97.0312C101.438 105 105 101.438 105 97.0312V75.9375C105 75.4219 104.578 75 104.062 75ZM105.938 55.7812H14.0625C13.5469 55.7812 13.125 56.2031 13.125 56.7188V63.2812C13.125 63.7969 13.5469 64.2188 14.0625 64.2188H105.938C106.453 64.2188 106.875 63.7969 106.875 63.2812V56.7188C106.875 56.2031 106.453 55.7812 105.938 55.7812Z" fill="#FB5E04"/>
</svg>
