<svg width="25" height="25" viewBox="0 0 25 25" fill="none" xmlns="http://www.w3.org/2000/svg">
<g clip-path="url(#clip0_1084_15073)">
<path d="M10.5 5.8335H16.5V7.16683H10.5V5.8335Z" fill="#FB5E04"/>
<path d="M10.5 8.5H16.5V9.83333H10.5V8.5Z" fill="#FB5E04"/>
<path d="M10.5 11.1665H16.5V12.4998H10.5V11.1665Z" fill="#FB5E04"/>
<path d="M10.5 13.8335H16.5V15.1668H10.5V13.8335Z" fill="#FB5E04"/>
<path d="M10.5 16.5H16.5V17.8333H10.5V16.5Z" fill="#FB5E04"/>
<path d="M7.83203 5.8335H9.16536V7.16683H7.83203V5.8335Z" fill="#FB5E04"/>
<path d="M7.83203 8.5H9.16536V9.83333H7.83203V8.5Z" fill="#FB5E04"/>
<path d="M7.83203 11.1665H9.16536V12.4998H7.83203V11.1665Z" fill="#FB5E04"/>
<path d="M7.83203 13.8335H9.16536V15.1668H7.83203V13.8335Z" fill="#FB5E04"/>
<path d="M7.83203 16.5H9.16536V17.8333H7.83203V16.5Z" fill="#FB5E04"/>
<path d="M19.1667 22.3335H19.6667V21.8335V3.16683V2.66683H19.1667H5.83333H5.33333V3.16683V21.8335V22.3335H5.83333H19.1667ZM5.83333 2.3335H19.1667C19.3877 2.3335 19.5996 2.42129 19.7559 2.57757C19.9122 2.73385 20 2.94582 20 3.16683V21.8335C20 22.0545 19.9122 22.2665 19.7559 22.4228C19.5996 22.579 19.3877 22.6668 19.1667 22.6668H5.83333C5.61232 22.6668 5.40036 22.579 5.24408 22.4228C5.0878 22.2665 5 22.0545 5 21.8335V3.16683C5 2.94582 5.0878 2.73385 5.24408 2.57757C5.40036 2.42129 5.61232 2.3335 5.83333 2.3335Z" fill="#FB5E04" stroke="#FB5E04"/>
<path d="M1 1H24V24H1V1Z" stroke="#FB5E04"/>
</g>
<rect x="1" y="1" width="23" height="23" stroke="#FB5E04"/>
<defs>
<clipPath id="clip0_1084_15073">
<rect x="0.5" y="0.5" width="24" height="24" fill="white"/>
</clipPath>
</defs>
</svg>
