<svg width="142" height="134" viewBox="0 0 142 134" fill="none" xmlns="http://www.w3.org/2000/svg">
<path d="M68.4453 21.2632L78.7695 10.3279" stroke="#F1F5F9" stroke-width="3.40789" stroke-linecap="round"/>
<path d="M129.176 64.397L139.5 53.4617" stroke="#FB5E04" stroke-width="3.40789" stroke-linecap="round"/>
<path d="M104.277 128.186L114.602 117.251" stroke="#04A1FB" stroke-width="3.40789" stroke-linecap="round"/>
<path d="M3.46484 58.9292L13.789 47.9939" stroke="#FACC15" stroke-width="3.40789" stroke-linecap="round"/>
<path d="M30.793 117.859L41.1172 106.923" stroke="#04A1FB" stroke-width="3.40789" stroke-linecap="round"/>
<ellipse cx="51.4409" cy="2.43007" rx="2.42922" ry="2.43007" fill="#FB5E04"/>
<ellipse cx="40.5113" cy="24.9083" rx="2.42922" ry="2.43007" fill="#F1F5F9"/>
<ellipse cx="21.6831" cy="71.0797" rx="2.42922" ry="2.43007" fill="#F1F5F9"/>
<ellipse cx="2.92922" cy="101.188" rx="2.42922" ry="2.43007" fill="#22C36B"/>
<ellipse cx="57.5152" cy="131.224" rx="2.42922" ry="2.43007" fill="#F1F5F9"/>
<ellipse cx="95.1654" cy="106.923" rx="3.03653" ry="3.03759" fill="#FACC15"/>
<ellipse cx="123.708" cy="91.7353" rx="3.03653" ry="3.03759" fill="#F1F5F9"/>
<ellipse cx="111.638" cy="22.8184" rx="3.03653" ry="3.03759" fill="#22C36B"/>
<ellipse cx="108.529" cy="51.0315" rx="1.82192" ry="1.82255" fill="#F1F5F9"/>
<ellipse cx="8.93129" cy="25.5159" rx="1.82192" ry="1.82255" fill="#04A1FB"/>
<ellipse cx="70.2676" cy="67.4345" rx="30.3653" ry="30.3759" fill="#22C36B"/>
<path d="M81.1227 60.5247L67.3065 74.3451L60.3984 67.4352" stroke="white" stroke-width="5.67982" stroke-linecap="round" stroke-linejoin="round"/>
</svg>
