<svg width="25" height="25" viewBox="0 0 25 25" fill="none" xmlns="http://www.w3.org/2000/svg">
<path d="M14.5 6.5H4.5M6.5 12.5H4.5H6.5ZM6.5 12.5C6.5 13.0304 6.71071 13.5391 7.08579 13.9142C7.46086 14.2893 7.96957 14.5 8.5 14.5C9.03043 14.5 9.53914 14.2893 9.91421 13.9142C10.2893 13.5391 10.5 13.0304 10.5 12.5H6.5ZM6.5 12.5C6.5 11.9696 6.71071 11.4609 7.08579 11.0858C7.46086 10.7107 7.96957 10.5 8.5 10.5C9.03043 10.5 9.53914 10.7107 9.91421 11.0858C10.2893 11.4609 10.5 11.9696 10.5 12.5H6.5ZM18.5 18.5C18.5 17.9696 18.2893 17.4609 17.9142 17.0858C17.5391 16.7107 17.0304 16.5 16.5 16.5C15.9696 16.5 15.4609 16.7107 15.0858 17.0858C14.7107 17.4609 14.5 17.9696 14.5 18.5H18.5ZM18.5 18.5C18.5 19.0304 18.2893 19.5391 17.9142 19.9142C17.5391 20.2893 17.0304 20.5 16.5 20.5C15.9696 20.5 15.4609 20.2893 15.0858 19.9142C14.7107 19.5391 14.5 19.0304 14.5 18.5H18.5ZM18.5 18.5H20.5H18.5ZM14.5 18.5H4.5H14.5ZM10.5 12.5H20.5H10.5ZM18.5 6.5C18.5 5.96957 18.2893 5.46086 17.9142 5.08579C17.5391 4.71071 17.0304 4.5 16.5 4.5C15.9696 4.5 15.4609 4.71071 15.0858 5.08579C14.7107 5.46086 14.5 5.96957 14.5 6.5H18.5ZM18.5 6.5C18.5 7.03043 18.2893 7.53914 17.9142 7.91421C17.5391 8.28929 17.0304 8.5 16.5 8.5C15.9696 8.5 15.4609 8.28929 15.0858 7.91421C14.7107 7.53914 14.5 7.03043 14.5 6.5H18.5ZM18.5 6.5L20.5 6.5L18.5 6.5Z" stroke="white" stroke-width="1.5" stroke-linecap="round" stroke-linejoin="round"/>
</svg>
