<svg width="32" height="32" viewBox="0 0 32 32" fill="none" xmlns="http://www.w3.org/2000/svg">
<path d="M26.7155 5.39343C28.1084 6.78631 29.2133 8.43991 29.9671 10.2598C30.721 12.0797 31.1089 14.0303 31.1089 16.0001C31.1089 17.9699 30.721 19.9205 29.9671 21.7404C29.2133 23.5603 28.1084 25.2139 26.7155 26.6068C25.3226 27.9996 23.669 29.1045 21.8491 29.8584C20.0292 30.6122 18.0787 31.0002 16.1089 31.0002C14.139 31.0002 12.1885 30.6122 10.3686 29.8584C8.54868 29.1045 6.89508 27.9996 5.50219 26.6068C2.68913 23.7937 1.10876 19.9784 1.10876 16.0001C1.10876 12.0218 2.68913 8.20649 5.50219 5.39343C8.31525 2.58036 12.1306 1 16.1089 1C20.0871 1 23.9025 2.58036 26.7155 5.39343" stroke="white" stroke-width="1.5" stroke-linecap="round" stroke-linejoin="round"/>
<path d="M24.9539 28.0951C24.3139 25.0284 20.6172 22.6667 16.1089 22.6667C11.6005 22.6667 7.90385 25.0284 7.26385 28.0951" stroke="white" stroke-width="1.5" stroke-linecap="round" stroke-linejoin="round"/>
<path d="M19.6439 9.13178C20.1294 9.59103 20.5179 10.1429 20.7865 10.7549C21.0551 11.3669 21.1982 12.0265 21.2075 12.6947C21.2168 13.363 21.0921 14.0263 20.8406 14.6455C20.5891 15.2647 20.2161 15.8272 19.7435 16.2998C19.271 16.7724 18.7085 17.1454 18.0893 17.3969C17.4701 17.6483 16.8067 17.7731 16.1385 17.7638C15.4702 17.7545 14.8106 17.6113 14.1987 17.3427C13.5867 17.0742 13.0348 16.6856 12.5755 16.2001C11.6923 15.2523 11.2115 13.9986 11.2344 12.7033C11.2572 11.408 11.782 10.1721 12.698 9.25597C13.6141 8.33988 14.85 7.81514 16.1454 7.79228C17.4407 7.76943 18.6944 8.25025 19.6422 9.13345" stroke="white" stroke-width="1.5" stroke-linecap="round" stroke-linejoin="round"/>
</svg>
