<svg width="8" height="7" viewBox="0 0 8 7" fill="none" xmlns="http://www.w3.org/2000/svg">
<path d="M4.0013 6.83342C2.1603 6.83342 0.667969 5.34108 0.667969 3.50008C0.667969 1.65908 2.1603 0.166748 4.0013 0.166748C5.8423 0.166748 7.33464 1.65908 7.33464 3.50008C7.33464 5.34108 5.8423 6.83342 4.0013 6.83342ZM4.0013 6.16675C4.70855 6.16675 5.38682 5.8858 5.88692 5.3857C6.38702 4.8856 6.66797 4.20733 6.66797 3.50008C6.66797 2.79284 6.38702 2.11456 5.88692 1.61446C5.38682 1.11437 4.70855 0.833415 4.0013 0.833415C3.29406 0.833415 2.61578 1.11437 2.11568 1.61446C1.61559 2.11456 1.33464 2.79284 1.33464 3.50008C1.33464 4.20733 1.61559 4.8856 2.11568 5.3857C2.61578 5.8858 3.29406 6.16675 4.0013 6.16675ZM3.66897 4.83342L2.25464 3.41908L2.72597 2.94775L3.66897 3.89075L5.5543 2.00508L6.02597 2.47641L3.66897 4.83342Z" fill="#22C36B"/>
</svg>
